<?xml version="1.0" standalone="no"?>
<!DOCTYPE svg PUBLIC "-//W3C//DTD SVG 20010904//EN"
 "http://www.w3.org/TR/2001/REC-SVG-20010904/DTD/svg10.dtd">
<svg version="1.0" xmlns="http://www.w3.org/2000/svg"
 width="512.000000pt" height="512.000000pt" viewBox="0 0 512.000000 512.000000"
 preserveAspectRatio="xMidYMid meet">
<metadata>
Created by potrace 1.14, written by Peter Selinger 2001-2017
</metadata>
<g transform="translate(0.000000,512.000000) scale(0.100000,-0.100000)"
fill="#000000" stroke="none">
<path d="M1902 4999 c-13 -5 -33 -11 -45 -13 -60 -11 -266 -90 -377 -143 -41
-20 -78 -37 -81 -37 -20 -3 -259 -155 -348 -221 -129 -97 -160 -124 -276 -241
-112 -113 -135 -138 -215 -244 -36 -47 -67 -87 -70 -90 -7 -7 -80 -122 -123
-195 -87 -149 -181 -368 -231 -540 -31 -108 -78 -326 -72 -332 2 -3 0 -18 -4
-33 -22 -76 -31 -396 -17 -566 6 -74 24 -194 46 -314 50 -263 191 -599 358
-853 117 -178 299 -388 455 -524 266 -232 606 -418 946 -517 l80 -23 82 24
c137 39 268 91 413 163 l137 68 0 -168 0 -168 83 3 c88 3 207 13 247 20 14 3
41 7 60 10 19 3 46 7 60 10 14 3 41 7 60 10 74 12 232 58 379 109 84 30 320
142 396 189 28 18 58 37 67 42 167 102 421 321 553 475 274 321 450 663 551
1070 27 109 28 115 39 191 3 26 8 58 10 70 10 51 19 210 19 334 0 159 -8 260
-28 385 -22 132 -25 148 -42 210 -8 30 -16 62 -18 70 -30 123 -126 366 -203
510 -148 279 -362 546 -592 740 -30 25 -59 50 -65 55 -26 24 -157 117 -230
163 -90 58 -73 60 -201 -23 -131 -85 -273 -200 -397 -324 l-117 -117 -78 80
c-231 239 -499 427 -790 554 -100 45 -241 96 -318 117 -27 7 -57 16 -65 18 -8
3 -25 2 -38 -4z"/>
</g>
</svg>
