<svg width="277" height="277" viewBox="0 0 277 277" fill="none" xmlns="http://www.w3.org/2000/svg">
<path d="M138.756 276.981C116.942 276.981 95.4381 271.818 76.002 261.915C56.5658 252.012 39.7494 237.649 26.9276 220.001C14.1059 202.354 5.64281 181.922 2.23041 160.377C-1.18198 138.832 0.553163 116.785 7.294 96.0386L26.2376 86L33.5864 104.582C28.1937 121.178 26.8056 138.816 29.5355 156.052C32.2654 173.288 39.0359 189.634 49.2933 203.752C59.5507 217.87 73.0038 229.36 88.5527 237.282C104.102 245.205 121.305 249.335 138.756 249.335L121.06 262.958L138.756 276.981Z" fill="#E6F4F1"/>
<path d="M19.0462 69.64C29.9531 50.7488 45.1761 34.7071 63.4706 22.8265C81.7651 10.9459 102.612 3.56376 124.306 1.28361C146 -0.996538 167.926 1.89006 188.291 9.7074C208.656 17.5247 226.881 30.0509 241.477 46.2616L242.926 67.3028L220.933 64.76C209.256 51.7914 194.675 41.7705 178.384 35.5166C162.092 29.2628 144.551 26.9535 127.196 28.7776C109.84 30.6017 93.163 36.5074 78.5274 46.0119C63.8918 55.5164 51.7134 68.3498 42.9879 83.4627L39.5915 64.2979L19.0462 69.64Z" fill="#A5A7DD"/>
<path d="M258.462 69.6399C269.368 88.5311 275.649 109.735 276.791 131.519C277.933 153.303 273.902 175.048 265.03 194.976C256.158 214.903 242.695 232.448 225.742 246.176C208.79 259.904 188.829 269.425 167.492 273.96L148.102 264.961L161.744 246.919C178.814 243.291 194.783 235.674 208.345 224.692C221.906 213.709 232.677 199.673 239.775 183.731C246.873 167.789 250.097 150.393 249.183 132.966C248.27 115.539 243.245 98.5756 234.52 83.4626L254.61 91.3422L258.462 69.6399Z" fill="#EEE8A9"/>
<path d="M111.029 203.348C96.2158 196.802 84.1302 185.323 76.8316 170.866C69.5329 156.409 67.4728 139.869 71.0023 124.063C74.5317 108.258 83.4324 94.165 96.1876 84.1862C108.943 74.2074 124.764 68.96 140.954 69.3381C157.145 69.7162 172.703 75.6965 184.978 86.2599C197.254 96.8233 205.487 111.316 208.275 127.269C211.063 143.223 208.232 159.649 200.267 173.749C192.301 187.85 179.693 198.752 164.59 204.598L149.428 165.431C155.469 163.092 160.512 158.731 163.699 153.091C166.885 147.451 168.017 140.88 166.902 134.499C165.787 128.118 162.493 122.321 157.583 118.095C152.673 113.87 146.45 111.478 139.973 111.327C133.497 111.175 127.169 113.274 122.067 117.266C116.965 121.257 113.405 126.895 111.993 133.217C110.581 139.539 111.405 146.155 114.324 151.938C117.244 157.721 122.078 162.312 128.003 164.93L111.029 203.348Z" fill="#D9D9D9" fill-opacity="0.5"/>
</svg>
