<svg width="277" height="277" viewBox="0 0 277 277" fill="none" xmlns="http://www.w3.org/2000/svg">
<path d="M138.228 276.454C116.414 276.454 94.9098 271.292 75.4736 261.388C56.0375 251.485 39.2211 237.123 26.3993 219.475C13.5775 201.827 5.11449 181.396 1.70209 159.85C-1.7103 138.305 0.0248426 116.258 6.76568 95.5123L25.7092 85.4736L33.058 104.055C27.6654 120.652 26.2773 138.29 29.0072 155.526C31.7371 172.762 38.5075 189.107 48.765 203.225C59.0224 217.343 72.4755 228.834 88.0244 236.756C103.573 244.679 120.777 248.809 138.228 248.809L120.532 262.431L138.228 276.454Z" fill="#EEE8A9"/>
<path d="M18.5189 69.1136C29.4257 50.2224 44.6487 34.1807 62.9433 22.3001C81.2378 10.4195 102.084 3.03739 123.779 0.757242C145.473 -1.5229 167.399 1.3637 187.763 9.18103C208.128 16.9984 226.354 29.5245 240.95 45.7352L242.398 66.7764L220.406 64.2336C208.729 51.265 194.148 41.2441 177.856 34.9903C161.564 28.7364 144.024 26.4271 126.668 28.2512C109.313 30.0754 92.6357 35.9811 78 45.4856C63.3644 54.99 51.186 67.8234 42.4605 82.9364L39.0641 63.7715L18.5189 69.1136Z" fill="#E6F4F1"/>
<path d="M257.934 69.1133C268.841 88.0045 275.122 109.209 276.264 130.993C277.405 152.776 273.375 174.521 264.503 194.449C255.63 214.377 242.167 231.922 225.215 245.65C208.263 259.377 188.302 268.898 166.965 273.434L147.575 264.434L161.217 246.392C178.287 242.764 194.255 235.147 207.817 224.165C221.379 213.183 232.149 199.147 239.247 183.205C246.345 167.262 249.569 149.867 248.656 132.439C247.743 115.012 242.718 98.049 233.993 82.936L254.083 90.8156L257.934 69.1133Z" fill="#A5A7DD"/>
<path d="M110.502 202.821C95.6885 196.276 83.6029 184.797 76.3042 170.34C69.0056 155.883 66.9455 139.343 70.4749 123.537C74.0044 107.732 82.905 93.6387 95.6603 83.6598C108.416 73.681 124.236 68.4336 140.427 68.8118C156.617 69.1899 172.176 75.1701 184.451 85.7335C196.727 96.2969 204.96 110.79 207.747 126.743C210.535 142.696 207.705 159.122 199.74 173.223C191.774 187.323 179.166 198.226 164.063 204.072L148.901 164.904C154.942 162.566 159.985 158.205 163.171 152.565C166.357 146.925 167.489 140.354 166.374 133.973C165.259 127.592 161.966 121.794 157.056 117.569C152.146 113.344 145.922 110.952 139.446 110.8C132.97 110.649 126.642 112.748 121.54 116.74C116.437 120.731 112.877 126.368 111.465 132.69C110.054 139.013 110.878 145.629 113.797 151.412C116.717 157.194 121.551 161.786 127.476 164.404L110.502 202.821Z" fill="#D9D9D9" fill-opacity="0.5"/>
</svg>
