<svg width="912" height="126" viewBox="0 0 912 126" fill="none" xmlns="http://www.w3.org/2000/svg">
<path d="M148.97 97.3528C149.672 97.3528 150.27 97.2705 150.764 97.1058C151.267 96.9411 151.674 96.7158 151.986 96.4298C152.307 96.1438 152.541 95.8058 152.688 95.4158C152.835 95.0171 152.909 94.5838 152.909 94.1158C152.909 93.1885 152.588 92.4605 151.947 91.9318C151.306 91.3945 150.313 91.1258 148.97 91.1258H145.07V97.3528H148.97ZM145.07 83.0528V89.1628H148.255C149.616 89.1628 150.625 88.8898 151.284 88.3438C151.951 87.7891 152.285 87.0438 152.285 86.1078C152.285 85.0418 151.969 84.2661 151.336 83.7808C150.703 83.2955 149.72 83.0528 148.385 83.0528H145.07ZM148.385 80.8818C149.555 80.8818 150.556 80.9945 151.388 81.2198C152.229 81.4451 152.918 81.7701 153.455 82.1948C153.992 82.6195 154.387 83.1351 154.638 83.7418C154.898 84.3398 155.028 85.0201 155.028 85.7828C155.028 86.2335 154.959 86.6668 154.82 87.0828C154.681 87.4988 154.469 87.8888 154.183 88.2528C153.897 88.6081 153.537 88.9288 153.104 89.2148C152.671 89.5008 152.159 89.7391 151.57 89.9298C154.283 90.4671 155.639 91.8841 155.639 94.1808C155.639 94.9781 155.492 95.7061 155.197 96.3648C154.902 97.0148 154.473 97.5781 153.91 98.0548C153.347 98.5315 152.653 98.8998 151.83 99.1598C151.007 99.4198 150.071 99.5498 149.022 99.5498H142.301V80.8818H148.385ZM169.527 86.3418V99.5498H168.006C167.659 99.5498 167.434 99.3808 167.33 99.0428L167.148 97.7168C166.862 98.0201 166.563 98.2975 166.251 98.5488C165.939 98.8001 165.605 99.0168 165.25 99.1988C164.895 99.3721 164.518 99.5065 164.119 99.6018C163.72 99.7058 163.291 99.7578 162.832 99.7578C162.104 99.7578 161.463 99.6365 160.908 99.3938C160.362 99.1511 159.903 98.8131 159.53 98.3798C159.157 97.9378 158.876 97.4091 158.685 96.7938C158.494 96.1785 158.399 95.4981 158.399 94.7528V86.3418H160.947V94.7528C160.947 95.6975 161.164 96.4341 161.597 96.9628C162.03 97.4828 162.693 97.7428 163.586 97.7428C164.236 97.7428 164.843 97.5911 165.406 97.2878C165.969 96.9758 166.498 96.5511 166.992 96.0138V86.3418H169.527ZM175.847 86.3418V99.5498H173.312V86.3418H175.847ZM176.328 82.2598C176.328 82.4938 176.281 82.7191 176.185 82.9358C176.09 83.1438 175.96 83.3301 175.795 83.4948C175.639 83.6508 175.453 83.7765 175.236 83.8718C175.02 83.9585 174.794 84.0018 174.56 84.0018C174.326 84.0018 174.105 83.9585 173.897 83.8718C173.689 83.7765 173.503 83.6508 173.338 83.4948C173.182 83.3301 173.057 83.1438 172.961 82.9358C172.875 82.7191 172.831 82.4938 172.831 82.2598C172.831 82.0171 172.875 81.7918 172.961 81.5838C173.057 81.3671 173.182 81.1808 173.338 81.0248C173.503 80.8601 173.689 80.7345 173.897 80.6478C174.105 80.5525 174.326 80.5048 174.56 80.5048C174.794 80.5048 175.02 80.5525 175.236 80.6478C175.453 80.7345 175.639 80.8601 175.795 81.0248C175.96 81.1808 176.09 81.3671 176.185 81.5838C176.281 81.7918 176.328 82.0171 176.328 82.2598ZM182.248 80.3618V99.5498H179.7V80.3618H182.248ZM194.513 89.5398C194.097 88.9938 193.647 88.6125 193.161 88.3958C192.685 88.1791 192.147 88.0708 191.549 88.0708C190.388 88.0708 189.487 88.4911 188.845 89.3318C188.213 90.1638 187.896 91.3815 187.896 92.9848C187.896 93.8255 187.966 94.5448 188.104 95.1428C188.252 95.7321 188.46 96.2175 188.728 96.5988C189.006 96.9715 189.344 97.2488 189.742 97.4308C190.141 97.6041 190.592 97.6908 191.094 97.6908C191.831 97.6908 192.468 97.5261 193.005 97.1968C193.543 96.8675 194.045 96.4038 194.513 95.8058V89.5398ZM197.061 80.3618V99.5498H195.527C195.172 99.5498 194.951 99.3808 194.864 99.0428L194.643 97.5218C194.08 98.1891 193.439 98.7265 192.719 99.1338C192.009 99.5325 191.185 99.7318 190.249 99.7318C189.495 99.7318 188.811 99.5845 188.195 99.2898C187.589 98.9951 187.069 98.5661 186.635 98.0028C186.202 97.4308 185.868 96.7245 185.634 95.8838C185.4 95.0431 185.283 94.0768 185.283 92.9848C185.283 92.0055 185.413 91.0955 185.673 90.2548C185.933 89.4141 186.31 88.6861 186.804 88.0708C187.298 87.4555 187.896 86.9745 188.598 86.6278C189.3 86.2725 190.093 86.0948 190.977 86.0948C191.775 86.0948 192.451 86.2248 193.005 86.4848C193.569 86.7448 194.071 87.1131 194.513 87.5898V80.3618H197.061ZM203.38 86.3418V99.5498H200.845V86.3418H203.38ZM203.861 82.2598C203.861 82.4938 203.813 82.7191 203.718 82.9358C203.623 83.1438 203.493 83.3301 203.328 83.4948C203.172 83.6508 202.986 83.7765 202.769 83.8718C202.552 83.9585 202.327 84.0018 202.093 84.0018C201.859 84.0018 201.638 83.9585 201.43 83.8718C201.222 83.7765 201.036 83.6508 200.871 83.4948C200.715 83.3301 200.589 83.1438 200.494 82.9358C200.407 82.7191 200.364 82.4938 200.364 82.2598C200.364 82.0171 200.407 81.7918 200.494 81.5838C200.589 81.3671 200.715 81.1808 200.871 81.0248C201.036 80.8601 201.222 80.7345 201.43 80.6478C201.638 80.5525 201.859 80.5048 202.093 80.5048C202.327 80.5048 202.552 80.5525 202.769 80.6478C202.986 80.7345 203.172 80.8601 203.328 81.0248C203.493 81.1808 203.623 81.3671 203.718 81.5838C203.813 81.7918 203.861 82.0171 203.861 82.2598ZM209.559 88.1748C209.845 87.8715 210.144 87.5941 210.456 87.3428C210.768 87.0915 211.097 86.8791 211.444 86.7058C211.799 86.5238 212.176 86.3851 212.575 86.2898C212.982 86.1858 213.416 86.1338 213.875 86.1338C214.603 86.1338 215.24 86.2551 215.786 86.4978C216.341 86.7405 216.804 87.0828 217.177 87.5248C217.55 87.9581 217.831 88.4825 218.022 89.0978C218.213 89.7131 218.308 90.3935 218.308 91.1388V99.5498H215.76V91.1388C215.76 90.1941 215.543 89.4618 215.11 88.9418C214.677 88.4131 214.014 88.1488 213.121 88.1488C212.471 88.1488 211.86 88.3048 211.288 88.6168C210.725 88.9201 210.2 89.3361 209.715 89.8648V99.5498H207.18V86.3418H208.701C209.056 86.3418 209.277 86.5108 209.364 86.8488L209.559 88.1748ZM226.5 92.9588C226.951 92.9588 227.345 92.8981 227.683 92.7768C228.03 92.6555 228.316 92.4865 228.541 92.2698C228.775 92.0445 228.948 91.7758 229.061 91.4638C229.182 91.1518 229.243 90.8095 229.243 90.4368C229.243 89.6741 229.009 89.0675 228.541 88.6168C228.082 88.1575 227.401 87.9278 226.5 87.9278C225.607 87.9278 224.927 88.1575 224.459 88.6168C224 89.0675 223.77 89.6741 223.77 90.4368C223.77 90.8095 223.826 91.1518 223.939 91.4638C224.06 91.7671 224.234 92.0315 224.459 92.2568C224.693 92.4735 224.979 92.6468 225.317 92.7768C225.664 92.8981 226.058 92.9588 226.5 92.9588ZM230.543 100.239C230.543 99.9268 230.456 99.6798 230.283 99.4978C230.11 99.3071 229.871 99.1598 229.568 99.0558C229.273 98.9431 228.927 98.8651 228.528 98.8218C228.129 98.7698 227.709 98.7308 227.267 98.7048C226.834 98.6788 226.387 98.6571 225.928 98.6398C225.469 98.6138 225.027 98.5705 224.602 98.5098C224.151 98.7351 223.779 99.0081 223.484 99.3288C223.198 99.6495 223.055 100.026 223.055 100.46C223.055 100.737 223.124 100.997 223.263 101.24C223.41 101.482 223.631 101.69 223.926 101.864C224.229 102.046 224.606 102.184 225.057 102.28C225.516 102.384 226.062 102.436 226.695 102.436C227.319 102.436 227.869 102.379 228.346 102.267C228.823 102.163 229.221 102.011 229.542 101.812C229.871 101.621 230.118 101.391 230.283 101.123C230.456 100.854 230.543 100.559 230.543 100.239ZM233.117 86.8358V87.7848C233.117 88.0968 232.922 88.2918 232.532 88.3698L231.115 88.5778C231.236 88.8465 231.332 89.1325 231.401 89.4358C231.47 89.7305 231.505 90.0425 231.505 90.3718C231.505 91.0218 231.379 91.6111 231.128 92.1398C230.877 92.6598 230.53 93.1061 230.088 93.4788C229.646 93.8515 229.117 94.1375 228.502 94.3368C227.895 94.5361 227.228 94.6358 226.5 94.6358C225.902 94.6358 225.343 94.5708 224.823 94.4408C224.563 94.5968 224.364 94.7701 224.225 94.9608C224.095 95.1428 224.03 95.3248 224.03 95.5068C224.03 95.8101 224.156 96.0355 224.407 96.1828C224.667 96.3301 225.001 96.4385 225.408 96.5078C225.824 96.5685 226.296 96.6075 226.825 96.6248C227.362 96.6421 227.904 96.6725 228.45 96.7158C229.005 96.7505 229.546 96.8198 230.075 96.9238C230.612 97.0191 231.085 97.1795 231.492 97.4048C231.908 97.6215 232.242 97.9248 232.493 98.3148C232.753 98.6961 232.883 99.1945 232.883 99.8098C232.883 100.382 232.74 100.936 232.454 101.474C232.177 102.011 231.769 102.488 231.232 102.904C230.695 103.32 230.04 103.653 229.269 103.905C228.498 104.156 227.622 104.282 226.643 104.282C225.664 104.282 224.81 104.186 224.082 103.996C223.363 103.805 222.76 103.549 222.275 103.229C221.798 102.908 221.439 102.535 221.196 102.111C220.962 101.686 220.845 101.244 220.845 100.785C220.845 100.143 221.044 99.6018 221.443 99.1598C221.842 98.7091 222.392 98.3581 223.094 98.1068C222.713 97.9335 222.409 97.6995 222.184 97.4048C221.959 97.1015 221.846 96.7028 221.846 96.2088C221.846 96.0181 221.881 95.8231 221.95 95.6238C222.019 95.4158 222.123 95.2121 222.262 95.0128C222.409 94.8048 222.587 94.6098 222.795 94.4278C223.012 94.2458 223.259 94.0811 223.536 93.9338C222.886 93.5698 222.375 93.0888 222.002 92.4908C221.629 91.8841 221.443 91.1778 221.443 90.3718C221.443 89.7218 221.569 89.1368 221.82 88.6168C222.071 88.0968 222.418 87.6505 222.86 87.2778C223.311 86.9051 223.844 86.6191 224.459 86.4198C225.083 86.2205 225.763 86.1208 226.5 86.1208C227.644 86.1208 228.628 86.3591 229.451 86.8358H233.117ZM249.377 93.6868C248.346 93.7215 247.47 93.8038 246.751 93.9338C246.032 94.0551 245.447 94.2198 244.996 94.4278C244.545 94.6358 244.22 94.8828 244.021 95.1688C243.822 95.4461 243.722 95.7581 243.722 96.1048C243.722 96.4341 243.774 96.7201 243.878 96.9628C243.991 97.1968 244.138 97.3918 244.32 97.5478C244.511 97.6951 244.732 97.8035 244.983 97.8728C245.234 97.9421 245.507 97.9768 245.802 97.9768C246.192 97.9768 246.547 97.9378 246.868 97.8598C247.197 97.7818 247.505 97.6735 247.791 97.5348C248.077 97.3875 248.35 97.2098 248.61 97.0018C248.87 96.7938 249.126 96.5555 249.377 96.2868V93.6868ZM241.941 88.1878C242.678 87.4858 243.475 86.9615 244.333 86.6148C245.2 86.2681 246.149 86.0948 247.18 86.0948C247.934 86.0948 248.601 86.2205 249.182 86.4718C249.763 86.7145 250.252 87.0568 250.651 87.4988C251.05 87.9408 251.349 88.4695 251.548 89.0848C251.756 89.7001 251.86 90.3805 251.86 91.1258V99.5498H250.729C250.478 99.5498 250.287 99.5108 250.157 99.4328C250.027 99.3461 249.923 99.1901 249.845 98.9648L249.572 97.8078C249.234 98.1198 248.9 98.3971 248.571 98.6398C248.242 98.8738 247.895 99.0775 247.531 99.2508C247.176 99.4155 246.794 99.5411 246.387 99.6278C245.98 99.7145 245.529 99.7578 245.035 99.7578C244.515 99.7578 244.025 99.6885 243.566 99.5498C243.115 99.4025 242.721 99.1815 242.383 98.8868C242.045 98.5921 241.776 98.2238 241.577 97.7818C241.386 97.3398 241.291 96.8241 241.291 96.2348C241.291 95.7148 241.43 95.2165 241.707 94.7398C241.993 94.2545 242.452 93.8211 243.085 93.4398C243.726 93.0585 244.558 92.7465 245.581 92.5038C246.612 92.2611 247.878 92.1225 249.377 92.0878V91.1258C249.377 90.1291 249.165 89.3838 248.74 88.8898C248.315 88.3958 247.691 88.1488 246.868 88.1488C246.313 88.1488 245.845 88.2181 245.464 88.3568C245.091 88.4955 244.766 88.6515 244.489 88.8248C244.22 88.9895 243.982 89.1411 243.774 89.2798C243.575 89.4185 243.367 89.4878 243.15 89.4878C242.977 89.4878 242.825 89.4401 242.695 89.3448C242.574 89.2495 242.474 89.1368 242.396 89.0068L241.941 88.1878ZM271.346 88.8118C271.268 88.9071 271.19 88.9851 271.112 89.0458C271.043 89.0978 270.939 89.1238 270.8 89.1238C270.661 89.1238 270.514 89.0718 270.358 88.9678C270.211 88.8551 270.02 88.7381 269.786 88.6168C269.561 88.4868 269.283 88.3698 268.954 88.2658C268.633 88.1531 268.235 88.0968 267.758 88.0968C267.134 88.0968 266.584 88.2095 266.107 88.4348C265.63 88.6601 265.232 88.9808 264.911 89.3968C264.599 89.8128 264.361 90.3198 264.196 90.9178C264.031 91.5158 263.949 92.1875 263.949 92.9328C263.949 93.7041 264.036 94.3931 264.209 94.9998C264.382 95.5978 264.629 96.1048 264.95 96.5208C265.271 96.9281 265.661 97.2401 266.12 97.4568C266.579 97.6648 267.091 97.7688 267.654 97.7688C268.2 97.7688 268.651 97.7038 269.006 97.5738C269.361 97.4351 269.656 97.2878 269.89 97.1318C270.124 96.9758 270.319 96.8328 270.475 96.7028C270.631 96.5641 270.791 96.4948 270.956 96.4948C271.164 96.4948 271.324 96.5728 271.437 96.7288L272.165 97.6648C271.862 98.0375 271.519 98.3538 271.138 98.6138C270.765 98.8738 270.367 99.0861 269.942 99.2508C269.517 99.4155 269.071 99.5368 268.603 99.6148C268.144 99.6928 267.676 99.7318 267.199 99.7318C266.376 99.7318 265.604 99.5801 264.885 99.2768C264.174 98.9735 263.555 98.5315 263.026 97.9508C262.506 97.3701 262.094 96.6595 261.791 95.8188C261.488 94.9695 261.336 94.0075 261.336 92.9328C261.336 91.9535 261.47 91.0478 261.739 90.2158C262.016 89.3838 262.419 88.6688 262.948 88.0708C263.485 87.4641 264.144 86.9918 264.924 86.6538C265.704 86.3071 266.597 86.1338 267.602 86.1338C268.547 86.1338 269.379 86.2855 270.098 86.5888C270.817 86.8921 271.459 87.3211 272.022 87.8758L271.346 88.8118ZM280.062 86.1338C281.032 86.1338 281.908 86.2941 282.688 86.6148C283.476 86.9268 284.144 87.3818 284.69 87.9798C285.244 88.5691 285.669 89.2841 285.964 90.1248C286.258 90.9568 286.406 91.8928 286.406 92.9328C286.406 93.9728 286.258 94.9131 285.964 95.7538C285.669 96.5945 285.244 97.3095 284.69 97.8988C284.144 98.4881 283.476 98.9431 282.688 99.2638C281.908 99.5758 281.032 99.7318 280.062 99.7318C279.082 99.7318 278.198 99.5758 277.41 99.2638C276.63 98.9431 275.962 98.4881 275.408 97.8988C274.853 97.3095 274.424 96.5945 274.121 95.7538C273.826 94.9131 273.679 93.9728 273.679 92.9328C273.679 91.8928 273.826 90.9568 274.121 90.1248C274.424 89.2841 274.853 88.5691 275.408 87.9798C275.962 87.3818 276.63 86.9268 277.41 86.6148C278.198 86.2941 279.082 86.1338 280.062 86.1338ZM280.062 97.7558C281.31 97.7558 282.241 97.3355 282.857 96.4948C283.472 95.6541 283.78 94.4711 283.78 92.9458C283.78 91.4205 283.472 90.2375 282.857 89.3968C282.241 88.5475 281.31 88.1228 280.062 88.1228C278.796 88.1228 277.852 88.5475 277.228 89.3968C276.612 90.2375 276.305 91.4205 276.305 92.9458C276.305 94.4711 276.612 95.6541 277.228 96.4948C277.852 97.3355 278.796 97.7558 280.062 97.7558ZM289.366 99.5498V86.3418H290.887C291.242 86.3418 291.463 86.5108 291.55 86.8488L291.732 88.1098C292.217 87.5291 292.754 87.0568 293.344 86.6928C293.942 86.3201 294.639 86.1338 295.437 86.1338C296.312 86.1338 297.023 86.3765 297.569 86.8618C298.115 87.3385 298.513 87.9885 298.765 88.8118C298.955 88.3438 299.202 87.9408 299.506 87.6028C299.809 87.2648 300.147 86.9875 300.52 86.7708C300.892 86.5541 301.287 86.3938 301.703 86.2898C302.127 86.1858 302.556 86.1338 302.99 86.1338C303.692 86.1338 304.316 86.2465 304.862 86.4718C305.416 86.6885 305.884 87.0091 306.266 87.4338C306.647 87.8585 306.937 88.3828 307.137 89.0068C307.336 89.6308 307.436 90.3415 307.436 91.1388V99.5498H304.888V91.1388C304.888 90.1508 304.671 89.4055 304.238 88.9028C303.813 88.4001 303.189 88.1488 302.366 88.1488C302.002 88.1488 301.655 88.2138 301.326 88.3438C300.996 88.4651 300.706 88.6515 300.455 88.9028C300.212 89.1541 300.017 89.4661 299.87 89.8388C299.731 90.2115 299.662 90.6448 299.662 91.1388V99.5498H297.114V91.1388C297.114 90.1161 296.91 89.3621 296.503 88.8768C296.095 88.3915 295.497 88.1488 294.709 88.1488C294.163 88.1488 293.656 88.2918 293.188 88.5778C292.72 88.8638 292.291 89.2538 291.901 89.7478V99.5498H289.366ZM310.976 99.5498V86.3418H312.497C312.852 86.3418 313.073 86.5108 313.16 86.8488L313.342 88.1098C313.827 87.5291 314.365 87.0568 314.954 86.6928C315.552 86.3201 316.25 86.1338 317.047 86.1338C317.922 86.1338 318.633 86.3765 319.179 86.8618C319.725 87.3385 320.124 87.9885 320.375 88.8118C320.566 88.3438 320.813 87.9408 321.116 87.6028C321.419 87.2648 321.757 86.9875 322.13 86.7708C322.503 86.5541 322.897 86.3938 323.313 86.2898C323.738 86.1858 324.167 86.1338 324.6 86.1338C325.302 86.1338 325.926 86.2465 326.472 86.4718C327.027 86.6885 327.495 87.0091 327.876 87.4338C328.257 87.8585 328.548 88.3828 328.747 89.0068C328.946 89.6308 329.046 90.3415 329.046 91.1388V99.5498H326.498V91.1388C326.498 90.1508 326.281 89.4055 325.848 88.9028C325.423 88.4001 324.799 88.1488 323.976 88.1488C323.612 88.1488 323.265 88.2138 322.936 88.3438C322.607 88.4651 322.316 88.6515 322.065 88.9028C321.822 89.1541 321.627 89.4661 321.48 89.8388C321.341 90.2115 321.272 90.6448 321.272 91.1388V99.5498H318.724V91.1388C318.724 90.1161 318.52 89.3621 318.113 88.8768C317.706 88.3915 317.108 88.1488 316.319 88.1488C315.773 88.1488 315.266 88.2918 314.798 88.5778C314.33 88.8638 313.901 89.2538 313.511 89.7478V99.5498H310.976ZM343.571 86.3418V99.5498H342.05C341.704 99.5498 341.478 99.3808 341.374 99.0428L341.192 97.7168C340.906 98.0201 340.607 98.2975 340.295 98.5488C339.983 98.8001 339.65 99.0168 339.294 99.1988C338.939 99.3721 338.562 99.5065 338.163 99.6018C337.765 99.7058 337.336 99.7578 336.876 99.7578C336.148 99.7578 335.507 99.6365 334.952 99.3938C334.406 99.1511 333.947 98.8131 333.574 98.3798C333.202 97.9378 332.92 97.4091 332.729 96.7938C332.539 96.1785 332.443 95.4981 332.443 94.7528V86.3418H334.991V94.7528C334.991 95.6975 335.208 96.4341 335.641 96.9628C336.075 97.4828 336.738 97.7428 337.63 97.7428C338.28 97.7428 338.887 97.5911 339.45 97.2878C340.014 96.9758 340.542 96.5511 341.036 96.0138V86.3418H343.571ZM349.619 88.1748C349.905 87.8715 350.204 87.5941 350.516 87.3428C350.828 87.0915 351.157 86.8791 351.504 86.7058C351.859 86.5238 352.236 86.3851 352.635 86.2898C353.042 86.1858 353.476 86.1338 353.935 86.1338C354.663 86.1338 355.3 86.2551 355.846 86.4978C356.401 86.7405 356.864 87.0828 357.237 87.5248C357.61 87.9581 357.891 88.4825 358.082 89.0978C358.273 89.7131 358.368 90.3935 358.368 91.1388V99.5498H355.82V91.1388C355.82 90.1941 355.603 89.4618 355.17 88.9418C354.737 88.4131 354.074 88.1488 353.181 88.1488C352.531 88.1488 351.92 88.3048 351.348 88.6168C350.785 88.9201 350.26 89.3361 349.775 89.8648V99.5498H347.24V86.3418H348.761C349.116 86.3418 349.337 86.5108 349.424 86.8488L349.619 88.1748ZM364.571 86.3418V99.5498H362.036V86.3418H364.571ZM365.052 82.2598C365.052 82.4938 365.004 82.7191 364.909 82.9358C364.813 83.1438 364.683 83.3301 364.519 83.4948C364.363 83.6508 364.176 83.7765 363.96 83.8718C363.743 83.9585 363.518 84.0018 363.284 84.0018C363.05 84.0018 362.829 83.9585 362.621 83.8718C362.413 83.7765 362.226 83.6508 362.062 83.4948C361.906 83.3301 361.78 83.1438 361.685 82.9358C361.598 82.7191 361.555 82.4938 361.555 82.2598C361.555 82.0171 361.598 81.7918 361.685 81.5838C361.78 81.3671 361.906 81.1808 362.062 81.0248C362.226 80.8601 362.413 80.7345 362.621 80.6478C362.829 80.5525 363.05 80.5048 363.284 80.5048C363.518 80.5048 363.743 80.5525 363.96 80.6478C364.176 80.7345 364.363 80.8601 364.519 81.0248C364.683 81.1808 364.813 81.3671 364.909 81.5838C365.004 81.7918 365.052 82.0171 365.052 82.2598ZM372.505 99.7578C371.439 99.7578 370.616 99.4588 370.035 98.8608C369.463 98.2628 369.177 97.4091 369.177 96.2998V88.3958H367.643C367.496 88.3958 367.37 88.3525 367.266 88.2658C367.171 88.1705 367.123 88.0318 367.123 87.8498V86.8228L369.268 86.5238L369.84 82.5848C369.875 82.4375 369.94 82.3248 370.035 82.2468C370.139 82.1601 370.269 82.1168 370.425 82.1168H371.712V86.5498H375.456V88.3958H371.712V96.1308C371.712 96.6508 371.838 97.0408 372.089 97.3008C372.349 97.5521 372.678 97.6778 373.077 97.6778C373.311 97.6778 373.51 97.6475 373.675 97.5868C373.848 97.5261 373.996 97.4611 374.117 97.3918C374.238 97.3138 374.342 97.2445 374.429 97.1838C374.516 97.1231 374.594 97.0928 374.663 97.0928C374.75 97.0928 374.815 97.1145 374.858 97.1578C374.91 97.1925 374.962 97.2531 375.014 97.3398L375.768 98.5618C375.352 98.9431 374.858 99.2378 374.286 99.4458C373.714 99.6538 373.12 99.7578 372.505 99.7578ZM389.465 86.3418L382.133 103.385C382.055 103.575 381.951 103.723 381.821 103.827C381.691 103.931 381.5 103.983 381.249 103.983H379.364L381.782 98.7178L376.361 86.3418H378.571C378.788 86.3418 378.957 86.3938 379.078 86.4978C379.199 86.6018 379.286 86.7188 379.338 86.8488L382.692 94.7788C382.761 94.9781 382.826 95.1818 382.887 95.3898C382.956 95.5891 383.013 95.7885 383.056 95.9878C383.117 95.7798 383.182 95.5761 383.251 95.3768C383.32 95.1688 383.394 94.9651 383.472 94.7658L386.709 86.8488C386.77 86.7015 386.865 86.5801 386.995 86.4848C387.125 86.3895 387.272 86.3418 387.437 86.3418H389.465ZM403.234 86.1338C404.204 86.1338 405.08 86.2941 405.86 86.6148C406.648 86.9268 407.316 87.3818 407.862 87.9798C408.416 88.5691 408.841 89.2841 409.136 90.1248C409.43 90.9568 409.578 91.8928 409.578 92.9328C409.578 93.9728 409.43 94.9131 409.136 95.7538C408.841 96.5945 408.416 97.3095 407.862 97.8988C407.316 98.4881 406.648 98.9431 405.86 99.2638C405.08 99.5758 404.204 99.7318 403.234 99.7318C402.254 99.7318 401.37 99.5758 400.582 99.2638C399.802 98.9431 399.134 98.4881 398.58 97.8988C398.025 97.3095 397.596 96.5945 397.293 95.7538C396.998 94.9131 396.851 93.9728 396.851 92.9328C396.851 91.8928 396.998 90.9568 397.293 90.1248C397.596 89.2841 398.025 88.5691 398.58 87.9798C399.134 87.3818 399.802 86.9268 400.582 86.6148C401.37 86.2941 402.254 86.1338 403.234 86.1338ZM403.234 97.7558C404.482 97.7558 405.413 97.3355 406.029 96.4948C406.644 95.6541 406.952 94.4711 406.952 92.9458C406.952 91.4205 406.644 90.2375 406.029 89.3968C405.413 88.5475 404.482 88.1228 403.234 88.1228C401.968 88.1228 401.024 88.5475 400.4 89.3968C399.784 90.2375 399.477 91.4205 399.477 92.9458C399.477 94.4711 399.784 95.6541 400.4 96.4948C401.024 97.3355 401.968 97.7558 403.234 97.7558ZM413.104 99.5498V88.4218L411.726 88.2528C411.526 88.2095 411.362 88.1401 411.232 88.0448C411.11 87.9408 411.05 87.7935 411.05 87.6028V86.5498H413.104V85.3538C413.104 84.5998 413.212 83.9281 413.429 83.3388C413.645 82.7495 413.953 82.2511 414.352 81.8438C414.759 81.4278 415.244 81.1158 415.808 80.9078C416.38 80.6911 417.021 80.5828 417.732 80.5828C418.33 80.5828 418.88 80.6695 419.383 80.8428L419.331 82.1168C419.322 82.2295 419.287 82.3161 419.227 82.3768C419.166 82.4288 419.084 82.4678 418.98 82.4938C418.884 82.5198 418.763 82.5371 418.616 82.5458C418.477 82.5458 418.325 82.5458 418.161 82.5458C417.771 82.5458 417.415 82.5935 417.095 82.6888C416.774 82.7841 416.501 82.9445 416.276 83.1698C416.05 83.3951 415.877 83.6941 415.756 84.0668C415.634 84.4308 415.574 84.8858 415.574 85.4318V86.5498H419.279V88.3958H415.652V99.5498H413.104ZM430.288 96.2998C430.704 96.8458 431.15 97.2271 431.627 97.4438C432.112 97.6605 432.654 97.7688 433.252 97.7688C434.413 97.7688 435.31 97.3528 435.943 96.5208C436.584 95.6801 436.905 94.4581 436.905 92.8548C436.905 92.0141 436.831 91.2991 436.684 90.7098C436.545 90.1118 436.337 89.6265 436.06 89.2538C435.791 88.8725 435.457 88.5951 435.059 88.4218C434.66 88.2398 434.209 88.1488 433.707 88.1488C432.97 88.1488 432.329 88.3135 431.783 88.6428C431.245 88.9721 430.747 89.4401 430.288 90.0468V96.2998ZM430.158 88.3178C430.435 87.9885 430.73 87.6895 431.042 87.4208C431.362 87.1435 431.705 86.9095 432.069 86.7188C432.433 86.5195 432.818 86.3678 433.226 86.2638C433.642 86.1511 434.084 86.0948 434.552 86.0948C435.306 86.0948 435.986 86.2421 436.593 86.5368C437.208 86.8315 437.732 87.2648 438.166 87.8368C438.599 88.4088 438.933 89.1151 439.167 89.9558C439.409 90.7965 439.531 91.7628 439.531 92.8548C439.531 93.8341 439.396 94.7441 439.128 95.5848C438.868 96.4168 438.491 97.1405 437.997 97.7558C437.511 98.3711 436.913 98.8565 436.203 99.2118C435.501 99.5585 434.708 99.7318 433.824 99.7318C433.035 99.7318 432.359 99.6018 431.796 99.3418C431.232 99.0818 430.73 98.7178 430.288 98.2498V103.983H427.753V86.3418H429.274C429.629 86.3418 429.85 86.5108 429.937 86.8488L430.158 88.3178ZM444.9 88.8768C445.324 88.0101 445.836 87.3298 446.434 86.8358C447.032 86.3418 447.751 86.0948 448.592 86.0948C448.878 86.0948 449.146 86.1295 449.398 86.1988C449.658 86.2595 449.883 86.3548 450.074 86.4848L449.905 88.3958C449.844 88.6298 449.701 88.7468 449.476 88.7468C449.354 88.7468 449.172 88.7251 448.93 88.6818C448.687 88.6298 448.427 88.6038 448.15 88.6038C447.742 88.6038 447.383 88.6645 447.071 88.7858C446.759 88.8985 446.477 89.0718 446.226 89.3058C445.983 89.5311 445.766 89.8128 445.576 90.1508C445.385 90.4801 445.207 90.8571 445.043 91.2818V99.5498H442.508V86.3418H443.964C444.241 86.3418 444.427 86.3938 444.523 86.4978C444.627 86.5931 444.7 86.7665 444.744 87.0178L444.9 88.8768ZM459.054 93.6868C458.023 93.7215 457.147 93.8038 456.428 93.9338C455.709 94.0551 455.124 94.2198 454.673 94.4278C454.222 94.6358 453.897 94.8828 453.698 95.1688C453.499 95.4461 453.399 95.7581 453.399 96.1048C453.399 96.4341 453.451 96.7201 453.555 96.9628C453.668 97.1968 453.815 97.3918 453.997 97.5478C454.188 97.6951 454.409 97.8035 454.66 97.8728C454.911 97.9421 455.184 97.9768 455.479 97.9768C455.869 97.9768 456.224 97.9378 456.545 97.8598C456.874 97.7818 457.182 97.6735 457.468 97.5348C457.754 97.3875 458.027 97.2098 458.287 97.0018C458.547 96.7938 458.803 96.5555 459.054 96.2868V93.6868ZM451.618 88.1878C452.355 87.4858 453.152 86.9615 454.01 86.6148C454.877 86.2681 455.826 86.0948 456.857 86.0948C457.611 86.0948 458.278 86.2205 458.859 86.4718C459.44 86.7145 459.929 87.0568 460.328 87.4988C460.727 87.9408 461.026 88.4695 461.225 89.0848C461.433 89.7001 461.537 90.3805 461.537 91.1258V99.5498H460.406C460.155 99.5498 459.964 99.5108 459.834 99.4328C459.704 99.3461 459.6 99.1901 459.522 98.9648L459.249 97.8078C458.911 98.1198 458.577 98.3971 458.248 98.6398C457.919 98.8738 457.572 99.0775 457.208 99.2508C456.853 99.4155 456.471 99.5411 456.064 99.6278C455.657 99.7145 455.206 99.7578 454.712 99.7578C454.192 99.7578 453.702 99.6885 453.243 99.5498C452.792 99.4025 452.398 99.1815 452.06 98.8868C451.722 98.5921 451.453 98.2238 451.254 97.7818C451.063 97.3398 450.968 96.8241 450.968 96.2348C450.968 95.7148 451.107 95.2165 451.384 94.7398C451.67 94.2545 452.129 93.8211 452.762 93.4398C453.403 93.0585 454.235 92.7465 455.258 92.5038C456.289 92.2611 457.555 92.1225 459.054 92.0878V91.1258C459.054 90.1291 458.842 89.3838 458.417 88.8898C457.992 88.3958 457.368 88.1488 456.545 88.1488C455.99 88.1488 455.522 88.2181 455.141 88.3568C454.768 88.4955 454.443 88.6515 454.166 88.8248C453.897 88.9895 453.659 89.1411 453.451 89.2798C453.252 89.4185 453.044 89.4878 452.827 89.4878C452.654 89.4878 452.502 89.4401 452.372 89.3448C452.251 89.2495 452.151 89.1368 452.073 89.0068L451.618 88.1878ZM474.317 88.8118C474.239 88.9071 474.161 88.9851 474.083 89.0458C474.013 89.0978 473.909 89.1238 473.771 89.1238C473.632 89.1238 473.485 89.0718 473.329 88.9678C473.181 88.8551 472.991 88.7381 472.757 88.6168C472.531 88.4868 472.254 88.3698 471.925 88.2658C471.604 88.1531 471.205 88.0968 470.729 88.0968C470.105 88.0968 469.554 88.2095 469.078 88.4348C468.601 88.6601 468.202 88.9808 467.882 89.3968C467.57 89.8128 467.331 90.3198 467.167 90.9178C467.002 91.5158 466.92 92.1875 466.92 92.9328C466.92 93.7041 467.006 94.3931 467.18 94.9998C467.353 95.5978 467.6 96.1048 467.921 96.5208C468.241 96.9281 468.631 97.2401 469.091 97.4568C469.55 97.6648 470.061 97.7688 470.625 97.7688C471.171 97.7688 471.621 97.7038 471.977 97.5738C472.332 97.4351 472.627 97.2878 472.861 97.1318C473.095 96.9758 473.29 96.8328 473.446 96.7028C473.602 96.5641 473.762 96.4948 473.927 96.4948C474.135 96.4948 474.295 96.5728 474.408 96.7288L475.136 97.6648C474.832 98.0375 474.49 98.3538 474.109 98.6138C473.736 98.8738 473.337 99.0861 472.913 99.2508C472.488 99.4155 472.042 99.5368 471.574 99.6148C471.114 99.6928 470.646 99.7318 470.17 99.7318C469.346 99.7318 468.575 99.5801 467.856 99.2768C467.145 98.9735 466.525 98.5315 465.997 97.9508C465.477 97.3701 465.065 96.6595 464.762 95.8188C464.458 94.9695 464.307 94.0075 464.307 92.9328C464.307 91.9535 464.441 91.0478 464.71 90.2158C464.987 89.3838 465.39 88.6688 465.919 88.0708C466.456 87.4641 467.115 86.9918 467.895 86.6538C468.675 86.3071 469.567 86.1338 470.573 86.1338C471.517 86.1338 472.349 86.2855 473.069 86.5888C473.788 86.8921 474.429 87.3211 474.993 87.8758L474.317 88.8118ZM490.151 99.5498H487.603V88.3958H480.973V96.1308C480.973 96.6508 481.099 97.0408 481.35 97.3008C481.61 97.5521 481.939 97.6778 482.338 97.6778C482.572 97.6778 482.771 97.6475 482.936 97.5868C483.109 97.5261 483.257 97.4611 483.378 97.3918C483.499 97.3138 483.603 97.2445 483.69 97.1838C483.777 97.1231 483.855 97.0928 483.924 97.0928C484.011 97.0928 484.076 97.1145 484.119 97.1578C484.171 97.1925 484.223 97.2531 484.275 97.3398L485.029 98.5618C484.613 98.9431 484.119 99.2378 483.547 99.4458C482.975 99.6538 482.381 99.7578 481.766 99.7578C480.7 99.7578 479.877 99.4588 479.296 98.8608C478.724 98.2628 478.438 97.4091 478.438 96.2998V88.3958H476.904C476.757 88.3958 476.631 88.3525 476.527 88.2658C476.432 88.1705 476.384 88.0318 476.384 87.8498V86.8228L478.542 86.5238L479.101 82.5848C479.136 82.4375 479.201 82.3248 479.296 82.2468C479.4 82.1601 479.53 82.1168 479.686 82.1168H480.973V86.5498H490.151V99.5498ZM490.723 82.1818C490.723 82.4158 490.675 82.6411 490.58 82.8578C490.485 83.0658 490.355 83.2521 490.19 83.4168C490.034 83.5728 489.848 83.6985 489.631 83.7938C489.414 83.8805 489.189 83.9238 488.955 83.9238C488.721 83.9238 488.5 83.8805 488.292 83.7938C488.084 83.6985 487.898 83.5728 487.733 83.4168C487.577 83.2521 487.451 83.0658 487.356 82.8578C487.269 82.6411 487.226 82.4158 487.226 82.1818C487.226 81.9391 487.269 81.7095 487.356 81.4928C487.451 81.2761 487.577 81.0898 487.733 80.9338C487.898 80.7691 488.084 80.6435 488.292 80.5568C488.5 80.4615 488.721 80.4138 488.955 80.4138C489.189 80.4138 489.414 80.4615 489.631 80.5568C489.848 80.6435 490.034 80.7691 490.19 80.9338C490.355 81.0898 490.485 81.2761 490.58 81.4928C490.675 81.7095 490.723 81.9391 490.723 82.1818ZM503.217 88.8118C503.139 88.9071 503.061 88.9851 502.983 89.0458C502.914 89.0978 502.81 89.1238 502.671 89.1238C502.532 89.1238 502.385 89.0718 502.229 88.9678C502.082 88.8551 501.891 88.7381 501.657 88.6168C501.432 88.4868 501.154 88.3698 500.825 88.2658C500.504 88.1531 500.106 88.0968 499.629 88.0968C499.005 88.0968 498.455 88.2095 497.978 88.4348C497.501 88.6601 497.103 88.9808 496.782 89.3968C496.47 89.8128 496.232 90.3198 496.067 90.9178C495.902 91.5158 495.82 92.1875 495.82 92.9328C495.82 93.7041 495.907 94.3931 496.08 94.9998C496.253 95.5978 496.5 96.1048 496.821 96.5208C497.142 96.9281 497.532 97.2401 497.991 97.4568C498.45 97.6648 498.962 97.7688 499.525 97.7688C500.071 97.7688 500.522 97.7038 500.877 97.5738C501.232 97.4351 501.527 97.2878 501.761 97.1318C501.995 96.9758 502.19 96.8328 502.346 96.7028C502.502 96.5641 502.662 96.4948 502.827 96.4948C503.035 96.4948 503.195 96.5728 503.308 96.7288L504.036 97.6648C503.733 98.0375 503.39 98.3538 503.009 98.6138C502.636 98.8738 502.238 99.0861 501.813 99.2508C501.388 99.4155 500.942 99.5368 500.474 99.6148C500.015 99.6928 499.547 99.7318 499.07 99.7318C498.247 99.7318 497.475 99.5801 496.756 99.2768C496.045 98.9735 495.426 98.5315 494.897 97.9508C494.377 97.3701 493.965 96.6595 493.662 95.8188C493.359 94.9695 493.207 94.0075 493.207 92.9328C493.207 91.9535 493.341 91.0478 493.61 90.2158C493.887 89.3838 494.29 88.6688 494.819 88.0708C495.356 87.4641 496.015 86.9918 496.795 86.6538C497.575 86.3071 498.468 86.1338 499.473 86.1338C500.418 86.1338 501.25 86.2855 501.969 86.5888C502.688 86.8921 503.33 87.3211 503.893 87.8758L503.217 88.8118ZM515.053 91.4768C515.053 90.9741 514.979 90.5105 514.832 90.0858C514.693 89.6611 514.485 89.2928 514.208 88.9808C513.931 88.6688 513.593 88.4261 513.194 88.2528C512.795 88.0795 512.336 87.9928 511.816 87.9928C510.75 87.9928 509.909 88.3005 509.294 88.9158C508.687 89.5311 508.302 90.3848 508.137 91.4768H515.053ZM517.146 97.6648C516.834 98.0288 516.474 98.3451 516.067 98.6138C515.66 98.8738 515.226 99.0861 514.767 99.2508C514.308 99.4155 513.831 99.5368 513.337 99.6148C512.852 99.6928 512.371 99.7318 511.894 99.7318C510.984 99.7318 510.139 99.5801 509.359 99.2768C508.588 98.9648 507.916 98.5141 507.344 97.9248C506.781 97.3268 506.339 96.5901 506.018 95.7148C505.706 94.8308 505.55 93.8168 505.55 92.6728C505.55 91.7541 505.693 90.9005 505.979 90.1118C506.265 89.3145 506.672 88.6211 507.201 88.0318C507.738 87.4425 508.393 86.9788 509.164 86.6408C509.935 86.3028 510.802 86.1338 511.764 86.1338C512.57 86.1338 513.311 86.2681 513.987 86.5368C514.672 86.7968 515.261 87.1781 515.755 87.6808C516.249 88.1835 516.635 88.8031 516.912 89.5398C517.198 90.2765 517.341 91.1171 517.341 92.0618C517.341 92.4518 517.298 92.7161 517.211 92.8548C517.124 92.9848 516.964 93.0498 516.73 93.0498H508.072C508.098 93.8385 508.211 94.5275 508.41 95.1168C508.609 95.6975 508.882 96.1828 509.229 96.5728C509.584 96.9628 510.005 97.2531 510.49 97.4438C510.975 97.6345 511.517 97.7298 512.115 97.7298C512.678 97.7298 513.164 97.6648 513.571 97.5348C513.987 97.4048 514.342 97.2661 514.637 97.1188C514.94 96.9628 515.192 96.8198 515.391 96.6898C515.599 96.5598 515.781 96.4948 515.937 96.4948C516.145 96.4948 516.305 96.5728 516.418 96.7288L517.146 97.6648ZM534 93.6868C532.969 93.7215 532.093 93.8038 531.374 93.9338C530.655 94.0551 530.07 94.2198 529.619 94.4278C529.168 94.6358 528.843 94.8828 528.644 95.1688C528.445 95.4461 528.345 95.7581 528.345 96.1048C528.345 96.4341 528.397 96.7201 528.501 96.9628C528.614 97.1968 528.761 97.3918 528.943 97.5478C529.134 97.6951 529.355 97.8035 529.606 97.8728C529.857 97.9421 530.13 97.9768 530.425 97.9768C530.815 97.9768 531.17 97.9378 531.491 97.8598C531.82 97.7818 532.128 97.6735 532.414 97.5348C532.7 97.3875 532.973 97.2098 533.233 97.0018C533.493 96.7938 533.749 96.5555 534 96.2868V93.6868ZM526.564 88.1878C527.301 87.4858 528.098 86.9615 528.956 86.6148C529.823 86.2681 530.772 86.0948 531.803 86.0948C532.557 86.0948 533.224 86.2205 533.805 86.4718C534.386 86.7145 534.875 87.0568 535.274 87.4988C535.673 87.9408 535.972 88.4695 536.171 89.0848C536.379 89.7001 536.483 90.3805 536.483 91.1258V99.5498H535.352C535.101 99.5498 534.91 99.5108 534.78 99.4328C534.65 99.3461 534.546 99.1901 534.468 98.9648L534.195 97.8078C533.857 98.1198 533.523 98.3971 533.194 98.6398C532.865 98.8738 532.518 99.0775 532.154 99.2508C531.799 99.4155 531.417 99.5411 531.01 99.6278C530.603 99.7145 530.152 99.7578 529.658 99.7578C529.138 99.7578 528.648 99.6885 528.189 99.5498C527.738 99.4025 527.344 99.1815 527.006 98.8868C526.668 98.5921 526.399 98.2238 526.2 97.7818C526.009 97.3398 525.914 96.8241 525.914 96.2348C525.914 95.7148 526.053 95.2165 526.33 94.7398C526.616 94.2545 527.075 93.8211 527.708 93.4398C528.349 93.0585 529.181 92.7465 530.204 92.5038C531.235 92.2611 532.501 92.1225 534 92.0878V91.1258C534 90.1291 533.788 89.3838 533.363 88.8898C532.938 88.3958 532.314 88.1488 531.491 88.1488C530.936 88.1488 530.468 88.2181 530.087 88.3568C529.714 88.4955 529.389 88.6515 529.112 88.8248C528.843 88.9895 528.605 89.1411 528.397 89.2798C528.198 89.4185 527.99 89.4878 527.773 89.4878C527.6 89.4878 527.448 89.4401 527.318 89.3448C527.197 89.2495 527.097 89.1368 527.019 89.0068L526.564 88.1878ZM542.386 88.1748C542.672 87.8715 542.971 87.5941 543.283 87.3428C543.595 87.0915 543.924 86.8791 544.271 86.7058C544.626 86.5238 545.003 86.3851 545.402 86.2898C545.809 86.1858 546.242 86.1338 546.702 86.1338C547.43 86.1338 548.067 86.2551 548.613 86.4978C549.167 86.7405 549.631 87.0828 550.004 87.5248C550.376 87.9581 550.658 88.4825 550.849 89.0978C551.039 89.7131 551.135 90.3935 551.135 91.1388V99.5498H548.587V91.1388C548.587 90.1941 548.37 89.4618 547.937 88.9418C547.503 88.4131 546.84 88.1488 545.948 88.1488C545.298 88.1488 544.687 88.3048 544.115 88.6168C543.551 88.9201 543.027 89.3361 542.542 89.8648V99.5498H540.007V86.3418H541.528C541.883 86.3418 542.104 86.5108 542.191 86.8488L542.386 88.1748ZM563.2 89.5398C562.784 88.9938 562.334 88.6125 561.848 88.3958C561.372 88.1791 560.834 88.0708 560.236 88.0708C559.075 88.0708 558.174 88.4911 557.532 89.3318C556.9 90.1638 556.583 91.3815 556.583 92.9848C556.583 93.8255 556.653 94.5448 556.791 95.1428C556.939 95.7321 557.147 96.2175 557.415 96.5988C557.693 96.9715 558.031 97.2488 558.429 97.4308C558.828 97.6041 559.279 97.6908 559.781 97.6908C560.518 97.6908 561.155 97.5261 561.692 97.1968C562.23 96.8675 562.732 96.4038 563.2 95.8058V89.5398ZM565.748 80.3618V99.5498H564.214C563.859 99.5498 563.638 99.3808 563.551 99.0428L563.33 97.5218C562.767 98.1891 562.126 98.7265 561.406 99.1338C560.696 99.5325 559.872 99.7318 558.936 99.7318C558.182 99.7318 557.498 99.5845 556.882 99.2898C556.276 98.9951 555.756 98.5661 555.322 98.0028C554.889 97.4308 554.555 96.7245 554.321 95.8838C554.087 95.0431 553.97 94.0768 553.97 92.9848C553.97 92.0055 554.1 91.0955 554.36 90.2548C554.62 89.4141 554.997 88.6861 555.491 88.0708C555.985 87.4555 556.583 86.9745 557.285 86.6278C557.987 86.2725 558.78 86.0948 559.664 86.0948C560.462 86.0948 561.138 86.2248 561.692 86.4848C562.256 86.7448 562.758 87.1131 563.2 87.5898V80.3618H565.748ZM580.255 99.7578C579.189 99.7578 578.366 99.4588 577.785 98.8608C577.213 98.2628 576.927 97.4091 576.927 96.2998V88.3958H575.393C575.246 88.3958 575.12 88.3525 575.016 88.2658C574.921 88.1705 574.873 88.0318 574.873 87.8498V86.8228L577.018 86.5238L577.59 82.5848C577.625 82.4375 577.69 82.3248 577.785 82.2468C577.889 82.1601 578.019 82.1168 578.175 82.1168H579.462V86.5498H583.206V88.3958H579.462V96.1308C579.462 96.6508 579.588 97.0408 579.839 97.3008C580.099 97.5521 580.428 97.6778 580.827 97.6778C581.061 97.6778 581.26 97.6475 581.425 97.5868C581.598 97.5261 581.746 97.4611 581.867 97.3918C581.988 97.3138 582.092 97.2445 582.179 97.1838C582.266 97.1231 582.344 97.0928 582.413 97.0928C582.5 97.0928 582.565 97.1145 582.608 97.1578C582.66 97.1925 582.712 97.2531 582.764 97.3398L583.518 98.5618C583.102 98.9431 582.608 99.2378 582.036 99.4458C581.464 99.6538 580.87 99.7578 580.255 99.7578ZM588.063 88.8768C588.488 88.0101 588.999 87.3298 589.597 86.8358C590.195 86.3418 590.914 86.0948 591.755 86.0948C592.041 86.0948 592.31 86.1295 592.561 86.1988C592.821 86.2595 593.046 86.3548 593.237 86.4848L593.068 88.3958C593.007 88.6298 592.864 88.7468 592.639 88.7468C592.518 88.7468 592.336 88.7251 592.093 88.6818C591.85 88.6298 591.59 88.6038 591.313 88.6038C590.906 88.6038 590.546 88.6645 590.234 88.7858C589.922 88.8985 589.64 89.0718 589.389 89.3058C589.146 89.5311 588.93 89.8128 588.739 90.1508C588.548 90.4801 588.371 90.8571 588.206 91.2818V99.5498H585.671V86.3418H587.127C587.404 86.3418 587.591 86.3938 587.686 86.4978C587.79 86.5931 587.864 86.7665 587.907 87.0178L588.063 88.8768ZM602.217 93.6868C601.186 93.7215 600.311 93.8038 599.591 93.9338C598.872 94.0551 598.287 94.2198 597.836 94.4278C597.386 94.6358 597.061 94.8828 596.861 95.1688C596.662 95.4461 596.562 95.7581 596.562 96.1048C596.562 96.4341 596.614 96.7201 596.718 96.9628C596.831 97.1968 596.978 97.3918 597.16 97.5478C597.351 97.6951 597.572 97.8035 597.823 97.8728C598.075 97.9421 598.348 97.9768 598.642 97.9768C599.032 97.9768 599.388 97.9378 599.708 97.8598C600.038 97.7818 600.345 97.6735 600.631 97.5348C600.917 97.3875 601.19 97.2098 601.45 97.0018C601.71 96.7938 601.966 96.5555 602.217 96.2868V93.6868ZM594.781 88.1878C595.518 87.4858 596.315 86.9615 597.173 86.6148C598.04 86.2681 598.989 86.0948 600.02 86.0948C600.774 86.0948 601.442 86.2205 602.022 86.4718C602.603 86.7145 603.093 87.0568 603.491 87.4988C603.89 87.9408 604.189 88.4695 604.388 89.0848C604.596 89.7001 604.7 90.3805 604.7 91.1258V99.5498H603.569C603.318 99.5498 603.127 99.5108 602.997 99.4328C602.867 99.3461 602.763 99.1901 602.685 98.9648L602.412 97.8078C602.074 98.1198 601.741 98.3971 601.411 98.6398C601.082 98.8738 600.735 99.0775 600.371 99.2508C600.016 99.4155 599.635 99.5411 599.227 99.6278C598.82 99.7145 598.369 99.7578 597.875 99.7578C597.355 99.7578 596.866 99.6885 596.406 99.5498C595.956 99.4025 595.561 99.1815 595.223 98.8868C594.885 98.5921 594.617 98.2238 594.417 97.7818C594.227 97.3398 594.131 96.8241 594.131 96.2348C594.131 95.7148 594.27 95.2165 594.547 94.7398C594.833 94.2545 595.293 93.8211 595.925 93.4398C596.567 93.0585 597.399 92.7465 598.421 92.5038C599.453 92.2611 600.718 92.1225 602.217 92.0878V91.1258C602.217 90.1291 602.005 89.3838 601.58 88.8898C601.156 88.3958 600.532 88.1488 599.708 88.1488C599.154 88.1488 598.686 88.2181 598.304 88.3568C597.932 88.4955 597.607 88.6515 597.329 88.8248C597.061 88.9895 596.822 89.1411 596.614 89.2798C596.415 89.4185 596.207 89.4878 595.99 89.4878C595.817 89.4878 595.665 89.4401 595.535 89.3448C595.414 89.2495 595.314 89.1368 595.236 89.0068L594.781 88.1878ZM610.603 88.1748C610.889 87.8715 611.188 87.5941 611.5 87.3428C611.812 87.0915 612.141 86.8791 612.488 86.7058C612.843 86.5238 613.22 86.3851 613.619 86.2898C614.026 86.1858 614.46 86.1338 614.919 86.1338C615.647 86.1338 616.284 86.2551 616.83 86.4978C617.385 86.7405 617.848 87.0828 618.221 87.5248C618.594 87.9581 618.875 88.4825 619.066 89.0978C619.257 89.7131 619.352 90.3935 619.352 91.1388V99.5498H616.804V91.1388C616.804 90.1941 616.587 89.4618 616.154 88.9418C615.721 88.4131 615.058 88.1488 614.165 88.1488C613.515 88.1488 612.904 88.3048 612.332 88.6168C611.769 88.9201 611.244 89.3361 610.759 89.8648V99.5498H608.224V86.3418H609.745C610.1 86.3418 610.321 86.5108 610.408 86.8488L610.603 88.1748ZM630.69 88.6168C630.621 88.7295 630.547 88.8118 630.469 88.8638C630.391 88.9071 630.291 88.9288 630.17 88.9288C630.031 88.9288 629.875 88.8811 629.702 88.7858C629.537 88.6905 629.334 88.5865 629.091 88.4738C628.857 88.3611 628.58 88.2571 628.259 88.1618C627.938 88.0665 627.557 88.0188 627.115 88.0188C626.751 88.0188 626.417 88.0665 626.114 88.1618C625.819 88.2485 625.568 88.3741 625.36 88.5388C625.152 88.6948 624.992 88.8855 624.879 89.1108C624.766 89.3275 624.71 89.5615 624.71 89.8128C624.71 90.1421 624.805 90.4151 624.996 90.6318C625.195 90.8485 625.451 91.0348 625.763 91.1908C626.084 91.3468 626.443 91.4898 626.842 91.6198C627.249 91.7411 627.661 91.8711 628.077 92.0098C628.502 92.1485 628.913 92.3088 629.312 92.4908C629.719 92.6641 630.079 92.8851 630.391 93.1538C630.712 93.4138 630.967 93.7301 631.158 94.1028C631.357 94.4755 631.457 94.9305 631.457 95.4678C631.457 96.0831 631.344 96.6551 631.119 97.1838C630.902 97.7038 630.577 98.1545 630.144 98.5358C629.719 98.9171 629.191 99.2161 628.558 99.4328C627.925 99.6495 627.202 99.7578 626.387 99.7578C625.477 99.7578 624.636 99.6061 623.865 99.3028C623.094 98.9995 622.448 98.6138 621.928 98.1458L622.526 97.1708C622.595 97.0495 622.682 96.9585 622.786 96.8978C622.89 96.8285 623.029 96.7938 623.202 96.7938C623.367 96.7938 623.536 96.8545 623.709 96.9758C623.882 97.0971 624.09 97.2315 624.333 97.3788C624.576 97.5175 624.87 97.6475 625.217 97.7688C625.564 97.8815 625.997 97.9378 626.517 97.9378C626.95 97.9378 627.327 97.8858 627.648 97.7818C627.969 97.6691 628.233 97.5218 628.441 97.3398C628.658 97.1491 628.818 96.9325 628.922 96.6898C629.026 96.4471 629.078 96.1915 629.078 95.9228C629.078 95.5761 628.978 95.2901 628.779 95.0648C628.588 94.8308 628.333 94.6315 628.012 94.4668C627.7 94.3021 627.34 94.1591 626.933 94.0378C626.526 93.9165 626.11 93.7865 625.685 93.6478C625.26 93.5091 624.844 93.3488 624.437 93.1668C624.03 92.9848 623.666 92.7551 623.345 92.4778C623.033 92.2005 622.777 91.8625 622.578 91.4638C622.387 91.0651 622.292 90.5798 622.292 90.0078C622.292 89.4965 622.396 89.0068 622.604 88.5388C622.821 88.0708 623.128 87.6591 623.527 87.3038C623.934 86.9485 624.433 86.6668 625.022 86.4588C625.62 86.2421 626.3 86.1338 627.063 86.1338C627.938 86.1338 628.727 86.2725 629.429 86.5498C630.14 86.8271 630.746 87.2085 631.249 87.6938L630.69 88.6168ZM636.867 96.2998C637.283 96.8458 637.729 97.2271 638.206 97.4438C638.691 97.6605 639.233 97.7688 639.831 97.7688C640.992 97.7688 641.889 97.3528 642.522 96.5208C643.163 95.6801 643.484 94.4581 643.484 92.8548C643.484 92.0141 643.41 91.2991 643.263 90.7098C643.124 90.1118 642.916 89.6265 642.639 89.2538C642.37 88.8725 642.036 88.5951 641.638 88.4218C641.239 88.2398 640.788 88.1488 640.286 88.1488C639.549 88.1488 638.908 88.3135 638.362 88.6428C637.824 88.9721 637.326 89.4401 636.867 90.0468V96.2998ZM636.737 88.3178C637.014 87.9885 637.309 87.6895 637.621 87.4208C637.941 87.1435 638.284 86.9095 638.648 86.7188C639.012 86.5195 639.397 86.3678 639.805 86.2638C640.221 86.1511 640.663 86.0948 641.131 86.0948C641.885 86.0948 642.565 86.2421 643.172 86.5368C643.787 86.8315 644.311 87.2648 644.745 87.8368C645.178 88.4088 645.512 89.1151 645.746 89.9558C645.988 90.7965 646.11 91.7628 646.11 92.8548C646.11 93.8341 645.975 94.7441 645.707 95.5848C645.447 96.4168 645.07 97.1405 644.576 97.7558C644.09 98.3711 643.492 98.8565 642.782 99.2118C642.08 99.5585 641.287 99.7318 640.403 99.7318C639.614 99.7318 638.938 99.6018 638.375 99.3418C637.811 99.0818 637.309 98.7178 636.867 98.2498V103.983H634.332V86.3418H635.853C636.208 86.3418 636.429 86.5108 636.516 86.8488L636.737 88.3178ZM656.185 93.6868C655.153 93.7215 654.278 93.8038 653.559 93.9338C652.839 94.0551 652.254 94.2198 651.804 94.4278C651.353 94.6358 651.028 94.8828 650.829 95.1688C650.629 95.4461 650.53 95.7581 650.53 96.1048C650.53 96.4341 650.582 96.7201 650.686 96.9628C650.798 97.1968 650.946 97.3918 651.128 97.5478C651.318 97.6951 651.539 97.8035 651.791 97.8728C652.042 97.9421 652.315 97.9768 652.61 97.9768C653 97.9768 653.355 97.9378 653.676 97.8598C654.005 97.7818 654.313 97.6735 654.599 97.5348C654.885 97.3875 655.158 97.2098 655.418 97.0018C655.678 96.7938 655.933 96.5555 656.185 96.2868V93.6868ZM648.749 88.1878C649.485 87.4858 650.283 86.9615 651.141 86.6148C652.007 86.2681 652.956 86.0948 653.988 86.0948C654.742 86.0948 655.409 86.2205 655.99 86.4718C656.57 86.7145 657.06 87.0568 657.459 87.4988C657.857 87.9408 658.156 88.4695 658.356 89.0848C658.564 89.7001 658.668 90.3805 658.668 91.1258V99.5498H657.537C657.285 99.5498 657.095 99.5108 656.965 99.4328C656.835 99.3461 656.731 99.1901 656.653 98.9648L656.38 97.8078C656.042 98.1198 655.708 98.3971 655.379 98.6398C655.049 98.8738 654.703 99.0775 654.339 99.2508C653.983 99.4155 653.602 99.5411 653.195 99.6278C652.787 99.7145 652.337 99.7578 651.843 99.7578C651.323 99.7578 650.833 99.6885 650.374 99.5498C649.923 99.4025 649.529 99.1815 649.191 98.8868C648.853 98.5921 648.584 98.2238 648.385 97.7818C648.194 97.3398 648.099 96.8241 648.099 96.2348C648.099 95.7148 648.237 95.2165 648.515 94.7398C648.801 94.2545 649.26 93.8211 649.893 93.4398C650.534 93.0585 651.366 92.7465 652.389 92.5038C653.42 92.2611 654.685 92.1225 656.185 92.0878V91.1258C656.185 90.1291 655.972 89.3838 655.548 88.8898C655.123 88.3958 654.499 88.1488 653.676 88.1488C653.121 88.1488 652.653 88.2181 652.272 88.3568C651.899 88.4955 651.574 88.6515 651.297 88.8248C651.028 88.9895 650.79 89.1411 650.582 89.2798C650.382 89.4185 650.174 89.4878 649.958 89.4878C649.784 89.4878 649.633 89.4401 649.503 89.3448C649.381 89.2495 649.282 89.1368 649.204 89.0068L648.749 88.1878ZM664.583 88.8768C665.008 88.0101 665.519 87.3298 666.117 86.8358C666.715 86.3418 667.435 86.0948 668.275 86.0948C668.561 86.0948 668.83 86.1295 669.081 86.1988C669.341 86.2595 669.567 86.3548 669.757 86.4848L669.588 88.3958C669.528 88.6298 669.385 88.7468 669.159 88.7468C669.038 88.7468 668.856 88.7251 668.613 88.6818C668.371 88.6298 668.111 88.6038 667.833 88.6038C667.426 88.6038 667.066 88.6645 666.754 88.7858C666.442 88.8985 666.161 89.0718 665.909 89.3058C665.667 89.5311 665.45 89.8128 665.259 90.1508C665.069 90.4801 664.891 90.8571 664.726 91.2818V99.5498H662.191V86.3418H663.647C663.925 86.3418 664.111 86.3938 664.206 86.4978C664.31 86.5931 664.384 86.7665 664.427 87.0178L664.583 88.8768ZM680.109 91.4768C680.109 90.9741 680.036 90.5105 679.888 90.0858C679.75 89.6611 679.542 89.2928 679.264 88.9808C678.987 88.6688 678.649 88.4261 678.25 88.2528C677.852 88.0795 677.392 87.9928 676.872 87.9928C675.806 87.9928 674.966 88.3005 674.35 88.9158C673.744 89.5311 673.358 90.3848 673.193 91.4768H680.109ZM682.202 97.6648C681.89 98.0288 681.531 98.3451 681.123 98.6138C680.716 98.8738 680.283 99.0861 679.823 99.2508C679.364 99.4155 678.887 99.5368 678.393 99.6148C677.908 99.6928 677.427 99.7318 676.95 99.7318C676.04 99.7318 675.195 99.5801 674.415 99.2768C673.644 98.9648 672.972 98.5141 672.4 97.9248C671.837 97.3268 671.395 96.5901 671.074 95.7148C670.762 94.8308 670.606 93.8168 670.606 92.6728C670.606 91.7541 670.749 90.9005 671.035 90.1118C671.321 89.3145 671.729 88.6211 672.257 88.0318C672.795 87.4425 673.449 86.9788 674.22 86.6408C674.992 86.3028 675.858 86.1338 676.82 86.1338C677.626 86.1338 678.367 86.2681 679.043 86.5368C679.728 86.7968 680.317 87.1781 680.811 87.6808C681.305 88.1835 681.691 88.8031 681.968 89.5398C682.254 90.2765 682.397 91.1171 682.397 92.0618C682.397 92.4518 682.354 92.7161 682.267 92.8548C682.181 92.9848 682.02 93.0498 681.786 93.0498H673.128C673.154 93.8385 673.267 94.5275 673.466 95.1168C673.666 95.6975 673.939 96.1828 674.285 96.5728C674.641 96.9628 675.061 97.2531 675.546 97.4438C676.032 97.6345 676.573 97.7298 677.171 97.7298C677.735 97.7298 678.22 97.6648 678.627 97.5348C679.043 97.4048 679.399 97.2661 679.693 97.1188C679.997 96.9628 680.248 96.8198 680.447 96.6898C680.655 96.5598 680.837 96.4948 680.993 96.4948C681.201 96.4948 681.362 96.5728 681.474 96.7288L682.202 97.6648ZM687.631 88.1748C687.917 87.8715 688.216 87.5941 688.528 87.3428C688.84 87.0915 689.169 86.8791 689.516 86.7058C689.871 86.5238 690.248 86.3851 690.647 86.2898C691.054 86.1858 691.488 86.1338 691.947 86.1338C692.675 86.1338 693.312 86.2551 693.858 86.4978C694.413 86.7405 694.876 87.0828 695.249 87.5248C695.622 87.9581 695.903 88.4825 696.094 89.0978C696.285 89.7131 696.38 90.3935 696.38 91.1388V99.5498H693.832V91.1388C693.832 90.1941 693.615 89.4618 693.182 88.9418C692.749 88.4131 692.086 88.1488 691.193 88.1488C690.543 88.1488 689.932 88.3048 689.36 88.6168C688.797 88.9201 688.272 89.3361 687.787 89.8648V99.5498H685.252V86.3418H686.773C687.128 86.3418 687.349 86.5108 687.436 86.8488L687.631 88.1748ZM709.187 88.8118C709.109 88.9071 709.031 88.9851 708.953 89.0458C708.884 89.0978 708.78 89.1238 708.641 89.1238C708.502 89.1238 708.355 89.0718 708.199 88.9678C708.052 88.8551 707.861 88.7381 707.627 88.6168C707.402 88.4868 707.124 88.3698 706.795 88.2658C706.474 88.1531 706.076 88.0968 705.599 88.0968C704.975 88.0968 704.425 88.2095 703.948 88.4348C703.471 88.6601 703.073 88.9808 702.752 89.3968C702.44 89.8128 702.202 90.3198 702.037 90.9178C701.872 91.5158 701.79 92.1875 701.79 92.9328C701.79 93.7041 701.877 94.3931 702.05 94.9998C702.223 95.5978 702.47 96.1048 702.791 96.5208C703.112 96.9281 703.502 97.2401 703.961 97.4568C704.42 97.6648 704.932 97.7688 705.495 97.7688C706.041 97.7688 706.492 97.7038 706.847 97.5738C707.202 97.4351 707.497 97.2878 707.731 97.1318C707.965 96.9758 708.16 96.8328 708.316 96.7028C708.472 96.5641 708.632 96.4948 708.797 96.4948C709.005 96.4948 709.165 96.5728 709.278 96.7288L710.006 97.6648C709.703 98.0375 709.36 98.3538 708.979 98.6138C708.606 98.8738 708.208 99.0861 707.783 99.2508C707.358 99.4155 706.912 99.5368 706.444 99.6148C705.985 99.6928 705.517 99.7318 705.04 99.7318C704.217 99.7318 703.445 99.5801 702.726 99.2768C702.015 98.9735 701.396 98.5315 700.867 97.9508C700.347 97.3701 699.935 96.6595 699.632 95.8188C699.329 94.9695 699.177 94.0075 699.177 92.9328C699.177 91.9535 699.311 91.0478 699.58 90.2158C699.857 89.3838 700.26 88.6688 700.789 88.0708C701.326 87.4641 701.985 86.9918 702.765 86.6538C703.545 86.3071 704.438 86.1338 705.443 86.1338C706.388 86.1338 707.22 86.2855 707.939 86.5888C708.658 86.8921 709.3 87.3211 709.863 87.8758L709.187 88.8118ZM724.046 86.3418L716.714 103.385C716.636 103.575 716.532 103.723 716.402 103.827C716.272 103.931 716.082 103.983 715.83 103.983H713.945L716.363 98.7178L710.942 86.3418H713.152C713.369 86.3418 713.538 86.3938 713.659 86.4978C713.781 86.6018 713.867 86.7188 713.919 86.8488L717.273 94.7788C717.343 94.9781 717.408 95.1818 717.468 95.3898C717.538 95.5891 717.594 95.7885 717.637 95.9878C717.698 95.7798 717.763 95.5761 717.832 95.3768C717.902 95.1688 717.975 94.9651 718.053 94.7658L721.29 86.8488C721.351 86.7015 721.446 86.5801 721.576 86.4848C721.706 86.3895 721.854 86.3418 722.018 86.3418H724.046ZM733.057 99.5498V88.4218L731.679 88.2528C731.48 88.2095 731.315 88.1401 731.185 88.0448C731.064 87.9408 731.003 87.7935 731.003 87.6028V86.5498H733.057V85.3538C733.057 84.5998 733.165 83.9281 733.382 83.3388C733.599 82.7495 733.906 82.2511 734.305 81.8438C734.712 81.4278 735.198 81.1158 735.761 80.9078C736.333 80.6911 736.974 80.5828 737.685 80.5828C738.283 80.5828 738.833 80.6695 739.336 80.8428L739.284 82.1168C739.275 82.2295 739.241 82.3161 739.18 82.3768C739.119 82.4288 739.037 82.4678 738.933 82.4938C738.838 82.5198 738.716 82.5371 738.569 82.5458C738.43 82.5458 738.279 82.5458 738.114 82.5458C737.724 82.5458 737.369 82.5935 737.048 82.6888C736.727 82.7841 736.454 82.9445 736.229 83.1698C736.004 83.3951 735.83 83.6941 735.709 84.0668C735.588 84.4308 735.527 84.8858 735.527 85.4318V86.5498H739.232V88.3958H735.605V99.5498H733.057ZM746.705 86.1338C747.676 86.1338 748.551 86.2941 749.331 86.6148C750.12 86.9268 750.787 87.3818 751.333 87.9798C751.888 88.5691 752.312 89.2841 752.607 90.1248C752.902 90.9568 753.049 91.8928 753.049 92.9328C753.049 93.9728 752.902 94.9131 752.607 95.7538C752.312 96.5945 751.888 97.3095 751.333 97.8988C750.787 98.4881 750.12 98.9431 749.331 99.2638C748.551 99.5758 747.676 99.7318 746.705 99.7318C745.726 99.7318 744.842 99.5758 744.053 99.2638C743.273 98.9431 742.606 98.4881 742.051 97.8988C741.496 97.3095 741.067 96.5945 740.764 95.7538C740.469 94.9131 740.322 93.9728 740.322 92.9328C740.322 91.8928 740.469 90.9568 740.764 90.1248C741.067 89.2841 741.496 88.5691 742.051 87.9798C742.606 87.3818 743.273 86.9268 744.053 86.6148C744.842 86.2941 745.726 86.1338 746.705 86.1338ZM746.705 97.7558C747.953 97.7558 748.885 97.3355 749.5 96.4948C750.115 95.6541 750.423 94.4711 750.423 92.9458C750.423 91.4205 750.115 90.2375 749.5 89.3968C748.885 88.5475 747.953 88.1228 746.705 88.1228C745.44 88.1228 744.495 88.5475 743.871 89.3968C743.256 90.2375 742.948 91.4205 742.948 92.9458C742.948 94.4711 743.256 95.6541 743.871 96.4948C744.495 97.3355 745.44 97.7558 746.705 97.7558ZM758.401 88.8768C758.825 88.0101 759.337 87.3298 759.935 86.8358C760.533 86.3418 761.252 86.0948 762.093 86.0948C762.379 86.0948 762.647 86.1295 762.899 86.1988C763.159 86.2595 763.384 86.3548 763.575 86.4848L763.406 88.3958C763.345 88.6298 763.202 88.7468 762.977 88.7468C762.855 88.7468 762.673 88.7251 762.431 88.6818C762.188 88.6298 761.928 88.6038 761.651 88.6038C761.243 88.6038 760.884 88.6645 760.572 88.7858C760.26 88.8985 759.978 89.0718 759.727 89.3058C759.484 89.5311 759.267 89.8128 759.077 90.1508C758.886 90.4801 758.708 90.8571 758.544 91.2818V99.5498H756.009V86.3418H757.465C757.742 86.3418 757.928 86.3938 758.024 86.4978C758.128 86.5931 758.201 86.7665 758.245 87.0178L758.401 88.8768ZM777.437 86.1338C778.407 86.1338 779.283 86.2941 780.063 86.6148C780.851 86.9268 781.519 87.3818 782.065 87.9798C782.619 88.5691 783.044 89.2841 783.339 90.1248C783.633 90.9568 783.781 91.8928 783.781 92.9328C783.781 93.9728 783.633 94.9131 783.339 95.7538C783.044 96.5945 782.619 97.3095 782.065 97.8988C781.519 98.4881 780.851 98.9431 780.063 99.2638C779.283 99.5758 778.407 99.7318 777.437 99.7318C776.457 99.7318 775.573 99.5758 774.785 99.2638C774.005 98.9431 773.337 98.4881 772.783 97.8988C772.228 97.3095 771.799 96.5945 771.496 95.7538C771.201 94.9131 771.054 93.9728 771.054 92.9328C771.054 91.8928 771.201 90.9568 771.496 90.1248C771.799 89.2841 772.228 88.5691 772.783 87.9798C773.337 87.3818 774.005 86.9268 774.785 86.6148C775.573 86.2941 776.457 86.1338 777.437 86.1338ZM777.437 97.7558C778.685 97.7558 779.616 97.3355 780.232 96.4948C780.847 95.6541 781.155 94.4711 781.155 92.9458C781.155 91.4205 780.847 90.2375 780.232 89.3968C779.616 88.5475 778.685 88.1228 777.437 88.1228C776.171 88.1228 775.227 88.5475 774.603 89.3968C773.987 90.2375 773.68 91.4205 773.68 92.9458C773.68 94.4711 773.987 95.6541 774.603 96.4948C775.227 97.3355 776.171 97.7558 777.437 97.7558ZM789.275 96.2998C789.691 96.8458 790.138 97.2271 790.614 97.4438C791.1 97.6605 791.641 97.7688 792.239 97.7688C793.401 97.7688 794.298 97.3528 794.93 96.5208C795.572 95.6801 795.892 94.4581 795.892 92.8548C795.892 92.0141 795.819 91.2991 795.671 90.7098C795.533 90.1118 795.325 89.6265 795.047 89.2538C794.779 88.8725 794.445 88.5951 794.046 88.4218C793.648 88.2398 793.197 88.1488 792.694 88.1488C791.958 88.1488 791.316 88.3135 790.77 88.6428C790.233 88.9721 789.735 89.4401 789.275 90.0468V96.2998ZM789.145 88.3178C789.423 87.9885 789.717 87.6895 790.029 87.4208C790.35 87.1435 790.692 86.9095 791.056 86.7188C791.42 86.5195 791.806 86.3678 792.213 86.2638C792.629 86.1511 793.071 86.0948 793.539 86.0948C794.293 86.0948 794.974 86.2421 795.58 86.5368C796.196 86.8315 796.72 87.2648 797.153 87.8368C797.587 88.4088 797.92 89.1151 798.154 89.9558C798.397 90.7965 798.518 91.7628 798.518 92.8548C798.518 93.8341 798.384 94.7441 798.115 95.5848C797.855 96.4168 797.478 97.1405 796.984 97.7558C796.499 98.3711 795.901 98.8565 795.19 99.2118C794.488 99.5585 793.695 99.7318 792.811 99.7318C792.023 99.7318 791.347 99.6018 790.783 99.3418C790.22 99.0818 789.717 98.7178 789.275 98.2498V103.983H786.74V86.3418H788.261C788.617 86.3418 788.838 86.5108 788.924 86.8488L789.145 88.3178ZM810.244 91.4768C810.244 90.9741 810.171 90.5105 810.023 90.0858C809.885 89.6611 809.677 89.2928 809.399 88.9808C809.122 88.6688 808.784 88.4261 808.385 88.2528C807.987 88.0795 807.527 87.9928 807.007 87.9928C805.941 87.9928 805.101 88.3005 804.485 88.9158C803.879 89.5311 803.493 90.3848 803.328 91.4768H810.244ZM812.337 97.6648C812.025 98.0288 811.666 98.3451 811.258 98.6138C810.851 98.8738 810.418 99.0861 809.958 99.2508C809.499 99.4155 809.022 99.5368 808.528 99.6148C808.043 99.6928 807.562 99.7318 807.085 99.7318C806.175 99.7318 805.33 99.5801 804.55 99.2768C803.779 98.9648 803.107 98.5141 802.535 97.9248C801.972 97.3268 801.53 96.5901 801.209 95.7148C800.897 94.8308 800.741 93.8168 800.741 92.6728C800.741 91.7541 800.884 90.9005 801.17 90.1118C801.456 89.3145 801.864 88.6211 802.392 88.0318C802.93 87.4425 803.584 86.9788 804.355 86.6408C805.127 86.3028 805.993 86.1338 806.955 86.1338C807.761 86.1338 808.502 86.2681 809.178 86.5368C809.863 86.7968 810.452 87.1781 810.946 87.6808C811.44 88.1835 811.826 88.8031 812.103 89.5398C812.389 90.2765 812.532 91.1171 812.532 92.0618C812.532 92.4518 812.489 92.7161 812.402 92.8548C812.316 92.9848 812.155 93.0498 811.921 93.0498H803.263C803.289 93.8385 803.402 94.5275 803.601 95.1168C803.801 95.6975 804.074 96.1828 804.42 96.5728C804.776 96.9628 805.196 97.2531 805.681 97.4438C806.167 97.6345 806.708 97.7298 807.306 97.7298C807.87 97.7298 808.355 97.6648 808.762 97.5348C809.178 97.4048 809.534 97.2661 809.828 97.1188C810.132 96.9628 810.383 96.8198 810.582 96.6898C810.79 96.5598 810.972 96.4948 811.128 96.4948C811.336 96.4948 811.497 96.5728 811.609 96.7288L812.337 97.6648ZM817.779 88.8768C818.204 88.0101 818.715 87.3298 819.313 86.8358C819.911 86.3418 820.631 86.0948 821.471 86.0948C821.757 86.0948 822.026 86.1295 822.277 86.1988C822.537 86.2595 822.763 86.3548 822.953 86.4848L822.784 88.3958C822.724 88.6298 822.581 88.7468 822.355 88.7468C822.234 88.7468 822.052 88.7251 821.809 88.6818C821.567 88.6298 821.307 88.6038 821.029 88.6038C820.622 88.6038 820.262 88.6645 819.95 88.7858C819.638 88.8985 819.357 89.0718 819.105 89.3058C818.863 89.5311 818.646 89.8128 818.455 90.1508C818.265 90.4801 818.087 90.8571 817.922 91.2818V99.5498H815.387V86.3418H816.843C817.121 86.3418 817.307 86.3938 817.402 86.4978C817.506 86.5931 817.58 86.7665 817.623 87.0178L817.779 88.8768ZM831.934 93.6868C830.902 93.7215 830.027 93.8038 829.308 93.9338C828.588 94.0551 828.003 94.2198 827.553 94.4278C827.102 94.6358 826.777 94.8828 826.578 95.1688C826.378 95.4461 826.279 95.7581 826.279 96.1048C826.279 96.4341 826.331 96.7201 826.435 96.9628C826.547 97.1968 826.695 97.3918 826.877 97.5478C827.067 97.6951 827.288 97.8035 827.54 97.8728C827.791 97.9421 828.064 97.9768 828.359 97.9768C828.749 97.9768 829.104 97.9378 829.425 97.8598C829.754 97.7818 830.062 97.6735 830.348 97.5348C830.634 97.3875 830.907 97.2098 831.167 97.0018C831.427 96.7938 831.682 96.5555 831.934 96.2868V93.6868ZM824.498 88.1878C825.234 87.4858 826.032 86.9615 826.89 86.6148C827.756 86.2681 828.705 86.0948 829.737 86.0948C830.491 86.0948 831.158 86.2205 831.739 86.4718C832.319 86.7145 832.809 87.0568 833.208 87.4988C833.606 87.9408 833.905 88.4695 834.105 89.0848C834.313 89.7001 834.417 90.3805 834.417 91.1258V99.5498H833.286C833.034 99.5498 832.844 99.5108 832.714 99.4328C832.584 99.3461 832.48 99.1901 832.402 98.9648L832.129 97.8078C831.791 98.1198 831.457 98.3971 831.128 98.6398C830.798 98.8738 830.452 99.0775 830.088 99.2508C829.732 99.4155 829.351 99.5411 828.944 99.6278C828.536 99.7145 828.086 99.7578 827.592 99.7578C827.072 99.7578 826.582 99.6885 826.123 99.5498C825.672 99.4025 825.278 99.1815 824.94 98.8868C824.602 98.5921 824.333 98.2238 824.134 97.7818C823.943 97.3398 823.848 96.8241 823.848 96.2348C823.848 95.7148 823.986 95.2165 824.264 94.7398C824.55 94.2545 825.009 93.8211 825.642 93.4398C826.283 93.0585 827.115 92.7465 828.138 92.5038C829.169 92.2611 830.434 92.1225 831.934 92.0878V91.1258C831.934 90.1291 831.721 89.3838 831.297 88.8898C830.872 88.3958 830.248 88.1488 829.425 88.1488C828.87 88.1488 828.402 88.2181 828.021 88.3568C827.648 88.4955 827.323 88.6515 827.046 88.8248C826.777 88.9895 826.539 89.1411 826.331 89.2798C826.131 89.4185 825.923 89.4878 825.707 89.4878C825.533 89.4878 825.382 89.4401 825.252 89.3448C825.13 89.2495 825.031 89.1368 824.953 89.0068L824.498 88.1878ZM850.281 99.5498H847.733V88.3958H841.103V96.1308C841.103 96.6508 841.229 97.0408 841.48 97.3008C841.74 97.5521 842.07 97.6778 842.468 97.6778C842.702 97.6778 842.902 97.6475 843.066 97.5868C843.24 97.5261 843.387 97.4611 843.508 97.3918C843.63 97.3138 843.734 97.2445 843.82 97.1838C843.907 97.1231 843.985 97.0928 844.054 97.0928C844.141 97.0928 844.206 97.1145 844.249 97.1578C844.301 97.1925 844.353 97.2531 844.405 97.3398L845.159 98.5618C844.743 98.9431 844.249 99.2378 843.677 99.4458C843.105 99.6538 842.512 99.7578 841.896 99.7578C840.83 99.7578 840.007 99.4588 839.426 98.8608C838.854 98.2628 838.568 97.4091 838.568 96.2998V88.3958H837.034C836.887 88.3958 836.761 88.3525 836.657 88.2658C836.562 88.1705 836.514 88.0318 836.514 87.8498V86.8228L838.672 86.5238L839.231 82.5848C839.266 82.4375 839.331 82.3248 839.426 82.2468C839.53 82.1601 839.66 82.1168 839.816 82.1168H841.103V86.5498H850.281V99.5498ZM850.853 82.1818C850.853 82.4158 850.806 82.6411 850.71 82.8578C850.615 83.0658 850.485 83.2521 850.32 83.4168C850.164 83.5728 849.978 83.6985 849.761 83.7938C849.545 83.8805 849.319 83.9238 849.085 83.9238C848.851 83.9238 848.63 83.8805 848.422 83.7938C848.214 83.6985 848.028 83.5728 847.863 83.4168C847.707 83.2521 847.582 83.0658 847.486 82.8578C847.4 82.6411 847.356 82.4158 847.356 82.1818C847.356 81.9391 847.4 81.7095 847.486 81.4928C847.582 81.2761 847.707 81.0898 847.863 80.9338C848.028 80.7691 848.214 80.6435 848.422 80.5568C848.63 80.4615 848.851 80.4138 849.085 80.4138C849.319 80.4138 849.545 80.4615 849.761 80.5568C849.978 80.6435 850.164 80.7691 850.32 80.9338C850.485 81.0898 850.615 81.2761 850.71 81.4928C850.806 81.7095 850.853 81.9391 850.853 82.1818ZM859.721 86.1338C860.691 86.1338 861.567 86.2941 862.347 86.6148C863.135 86.9268 863.803 87.3818 864.349 87.9798C864.903 88.5691 865.328 89.2841 865.623 90.1248C865.917 90.9568 866.065 91.8928 866.065 92.9328C866.065 93.9728 865.917 94.9131 865.623 95.7538C865.328 96.5945 864.903 97.3095 864.349 97.8988C863.803 98.4881 863.135 98.9431 862.347 99.2638C861.567 99.5758 860.691 99.7318 859.721 99.7318C858.741 99.7318 857.857 99.5758 857.069 99.2638C856.289 98.9431 855.621 98.4881 855.067 97.8988C854.512 97.3095 854.083 96.5945 853.78 95.7538C853.485 94.9131 853.338 93.9728 853.338 92.9328C853.338 91.8928 853.485 90.9568 853.78 90.1248C854.083 89.2841 854.512 88.5691 855.067 87.9798C855.621 87.3818 856.289 86.9268 857.069 86.6148C857.857 86.2941 858.741 86.1338 859.721 86.1338ZM859.721 97.7558C860.969 97.7558 861.9 97.3355 862.516 96.4948C863.131 95.6541 863.439 94.4711 863.439 92.9458C863.439 91.4205 863.131 90.2375 862.516 89.3968C861.9 88.5475 860.969 88.1228 859.721 88.1228C858.455 88.1228 857.511 88.5475 856.887 89.3968C856.271 90.2375 855.964 91.4205 855.964 92.9458C855.964 94.4711 856.271 95.6541 856.887 96.4948C857.511 97.3355 858.455 97.7558 859.721 97.7558ZM871.403 88.1748C871.689 87.8715 871.988 87.5941 872.3 87.3428C872.612 87.0915 872.942 86.8791 873.288 86.7058C873.644 86.5238 874.021 86.3851 874.419 86.2898C874.827 86.1858 875.26 86.1338 875.719 86.1338C876.447 86.1338 877.084 86.2551 877.63 86.4978C878.185 86.7405 878.649 87.0828 879.021 87.5248C879.394 87.9581 879.676 88.4825 879.866 89.0978C880.057 89.7131 880.152 90.3935 880.152 91.1388V99.5498H877.604V91.1388C877.604 90.1941 877.388 89.4618 876.954 88.9418C876.521 88.4131 875.858 88.1488 874.965 88.1488C874.315 88.1488 873.704 88.3048 873.132 88.6168C872.569 88.9201 872.045 89.3361 871.559 89.8648V99.5498H869.024V86.3418H870.545C870.901 86.3418 871.122 86.5108 871.208 86.8488L871.403 88.1748ZM891.49 88.6168C891.421 88.7295 891.347 88.8118 891.269 88.8638C891.191 88.9071 891.092 88.9288 890.97 88.9288C890.832 88.9288 890.676 88.8811 890.502 88.7858C890.338 88.6905 890.134 88.5865 889.891 88.4738C889.657 88.3611 889.38 88.2571 889.059 88.1618C888.739 88.0665 888.357 88.0188 887.915 88.0188C887.551 88.0188 887.218 88.0665 886.914 88.1618C886.62 88.2485 886.368 88.3741 886.16 88.5388C885.952 88.6948 885.792 88.8855 885.679 89.1108C885.567 89.3275 885.51 89.5615 885.51 89.8128C885.51 90.1421 885.606 90.4151 885.796 90.6318C885.996 90.8485 886.251 91.0348 886.563 91.1908C886.884 91.3468 887.244 91.4898 887.642 91.6198C888.05 91.7411 888.461 91.8711 888.877 92.0098C889.302 92.1485 889.714 92.3088 890.112 92.4908C890.52 92.6641 890.879 92.8851 891.191 93.1538C891.512 93.4138 891.768 93.7301 891.958 94.1028C892.158 94.4755 892.257 94.9305 892.257 95.4678C892.257 96.0831 892.145 96.6551 891.919 97.1838C891.703 97.7038 891.378 98.1545 890.944 98.5358C890.52 98.9171 889.991 99.2161 889.358 99.4328C888.726 99.6495 888.002 99.7578 887.187 99.7578C886.277 99.7578 885.437 99.6061 884.665 99.3028C883.894 98.9995 883.248 98.6138 882.728 98.1458L883.326 97.1708C883.396 97.0495 883.482 96.9585 883.586 96.8978C883.69 96.8285 883.829 96.7938 884.002 96.7938C884.167 96.7938 884.336 96.8545 884.509 96.9758C884.683 97.0971 884.891 97.2315 885.133 97.3788C885.376 97.5175 885.671 97.6475 886.017 97.7688C886.364 97.8815 886.797 97.9378 887.317 97.9378C887.751 97.9378 888.128 97.8858 888.448 97.7818C888.769 97.6691 889.033 97.5218 889.241 97.3398C889.458 97.1491 889.618 96.9325 889.722 96.6898C889.826 96.4471 889.878 96.1915 889.878 95.9228C889.878 95.5761 889.779 95.2901 889.579 95.0648C889.389 94.8308 889.133 94.6315 888.812 94.4668C888.5 94.3021 888.141 94.1591 887.733 94.0378C887.326 93.9165 886.91 93.7865 886.485 93.6478C886.061 93.5091 885.645 93.3488 885.237 93.1668C884.83 92.9848 884.466 92.7551 884.145 92.4778C883.833 92.2005 883.578 91.8625 883.378 91.4638C883.188 91.0651 883.092 90.5798 883.092 90.0078C883.092 89.4965 883.196 89.0068 883.404 88.5388C883.621 88.0708 883.929 87.6591 884.327 87.3038C884.735 86.9485 885.233 86.6668 885.822 86.4588C886.42 86.2421 887.101 86.1338 887.863 86.1338C888.739 86.1338 889.527 86.2725 890.229 86.5498C890.94 86.8271 891.547 87.2085 892.049 87.6938L891.49 88.6168Z" fill="#0F203B"/>
<path d="M176.65 44.35C176.65 47.0333 176.217 49.5 175.35 51.75C174.5 53.9833 173.292 55.9167 171.725 57.55C170.158 59.1667 168.283 60.425 166.1 61.325C163.917 62.225 161.492 62.675 158.825 62.675C156.175 62.675 153.75 62.225 151.55 61.325C149.367 60.425 147.492 59.1667 145.925 57.55C144.375 55.9167 143.167 53.9833 142.3 51.75C141.433 49.5 141 47.0333 141 44.35C141 41.6833 141.433 39.225 142.3 36.975C143.167 34.725 144.375 32.7917 145.925 31.175C147.492 29.5417 149.367 28.275 151.55 27.375C153.75 26.4583 156.175 26 158.825 26C161.492 26 163.917 26.4583 166.1 27.375C168.283 28.275 170.158 29.5417 171.725 31.175C173.292 32.7917 174.5 34.725 175.35 36.975C176.217 39.225 176.65 41.6833 176.65 44.35ZM171.2 44.35C171.2 42.2167 170.908 40.3 170.325 38.6C169.742 36.9 168.908 35.4583 167.825 34.275C166.758 33.0917 165.458 32.1833 163.925 31.55C162.408 30.9167 160.708 30.6 158.825 30.6C156.942 30.6 155.233 30.9167 153.7 31.55C152.183 32.1833 150.883 33.0917 149.8 34.275C148.717 35.4583 147.883 36.9 147.3 38.6C146.717 40.3 146.425 42.2167 146.425 44.35C146.425 46.5 146.717 48.425 147.3 50.125C147.883 51.8083 148.717 53.2417 149.8 54.425C150.883 55.6083 152.183 56.5167 153.7 57.15C155.233 57.7667 156.942 58.075 158.825 58.075C160.708 58.075 162.408 57.7667 163.925 57.15C165.458 56.5167 166.758 55.6083 167.825 54.425C168.908 53.2417 169.742 51.8083 170.325 50.125C170.908 48.425 171.2 46.5 171.2 44.35Z" fill="#0F203B"/>
<path d="M194.212 44.875C195.562 44.875 196.745 44.7 197.762 44.35C198.795 44 199.653 43.5083 200.337 42.875C201.037 42.225 201.562 41.4583 201.912 40.575C202.262 39.675 202.437 38.6833 202.437 37.6C202.437 35.4167 201.753 33.7 200.387 32.45C199.037 31.2 196.978 30.575 194.212 30.575H188.662V44.875H194.212ZM194.212 26.4C196.512 26.4 198.512 26.6667 200.212 27.2C201.912 27.7333 203.32 28.4917 204.437 29.475C205.553 30.4417 206.378 31.6167 206.912 33C207.462 34.3833 207.737 35.9167 207.737 37.6C207.737 39.2833 207.445 40.8333 206.862 42.25C206.278 43.65 205.42 44.8583 204.287 45.875C203.153 46.8917 201.737 47.6833 200.037 48.25C198.353 48.8 196.412 49.075 194.212 49.075H188.662V62.3H183.337V26.4H194.212Z" fill="#0F203B"/>
<path d="M235.885 57.975L235.86 62.3H213.61V26.4H235.86V30.725H218.96V42.1H232.56V46.275H218.96V57.975H235.885Z" fill="#0F203B"/>
<path d="M271.868 26.4V62.3H269.168C268.751 62.3 268.401 62.225 268.118 62.075C267.851 61.925 267.576 61.6833 267.293 61.35L247.018 35.125C247.051 35.575 247.076 36.0167 247.093 36.45C247.126 36.8833 247.143 37.2917 247.143 37.675V62.3H242.468V26.4H245.218C245.684 26.4 246.034 26.4583 246.268 26.575C246.501 26.675 246.759 26.9167 247.043 27.3L267.368 53.55C267.318 53.0667 267.276 52.6 267.243 52.15C267.226 51.6833 267.218 51.25 267.218 50.85V26.4H271.868Z" fill="#0F203B"/>
<path d="M326.845 44.35C326.845 47.0333 326.412 49.5 325.545 51.75C324.695 53.9833 323.487 55.9167 321.92 57.55C320.354 59.1667 318.479 60.425 316.295 61.325C314.112 62.225 311.687 62.675 309.02 62.675C306.37 62.675 303.945 62.225 301.745 61.325C299.562 60.425 297.687 59.1667 296.12 57.55C294.57 55.9167 293.362 53.9833 292.495 51.75C291.629 49.5 291.195 47.0333 291.195 44.35C291.195 41.6833 291.629 39.225 292.495 36.975C293.362 34.725 294.57 32.7917 296.12 31.175C297.687 29.5417 299.562 28.275 301.745 27.375C303.945 26.4583 306.37 26 309.02 26C311.687 26 314.112 26.4583 316.295 27.375C318.479 28.275 320.354 29.5417 321.92 31.175C323.487 32.7917 324.695 34.725 325.545 36.975C326.412 39.225 326.845 41.6833 326.845 44.35ZM321.395 44.35C321.395 42.2167 321.104 40.3 320.52 38.6C319.937 36.9 319.104 35.4583 318.02 34.275C316.954 33.0917 315.654 32.1833 314.12 31.55C312.604 30.9167 310.904 30.6 309.02 30.6C307.137 30.6 305.429 30.9167 303.895 31.55C302.379 32.1833 301.079 33.0917 299.995 34.275C298.912 35.4583 298.079 36.9 297.495 38.6C296.912 40.3 296.62 42.2167 296.62 44.35C296.62 46.5 296.912 48.425 297.495 50.125C298.079 51.8083 298.912 53.2417 299.995 54.425C301.079 55.6083 302.379 56.5167 303.895 57.15C305.429 57.7667 307.137 58.075 309.02 58.075C310.904 58.075 312.604 57.7667 314.12 57.15C315.654 56.5167 316.954 55.6083 318.02 54.425C319.104 53.2417 319.937 51.8083 320.52 50.125C321.104 48.425 321.395 46.5 321.395 44.35Z" fill="#0F203B"/>
<path d="M344.407 44.875C345.757 44.875 346.94 44.7 347.957 44.35C348.99 44 349.849 43.5083 350.532 42.875C351.232 42.225 351.757 41.4583 352.107 40.575C352.457 39.675 352.632 38.6833 352.632 37.6C352.632 35.4167 351.949 33.7 350.582 32.45C349.232 31.2 347.174 30.575 344.407 30.575H338.857V44.875H344.407ZM344.407 26.4C346.707 26.4 348.707 26.6667 350.407 27.2C352.107 27.7333 353.515 28.4917 354.632 29.475C355.749 30.4417 356.574 31.6167 357.107 33C357.657 34.3833 357.932 35.9167 357.932 37.6C357.932 39.2833 357.64 40.8333 357.057 42.25C356.474 43.65 355.615 44.8583 354.482 45.875C353.349 46.8917 351.932 47.6833 350.232 48.25C348.549 48.8 346.607 49.075 344.407 49.075H338.857V62.3H333.532V26.4H344.407Z" fill="#0F203B"/>
<path d="M386.08 57.975L386.055 62.3H363.805V26.4H386.055V30.725H369.155V42.1H382.755V46.275H369.155V57.975H386.08Z" fill="#0F203B"/>
<path d="M402.838 43.7C404.205 43.7 405.405 43.5333 406.438 43.2C407.488 42.8667 408.363 42.4 409.063 41.8C409.763 41.1833 410.288 40.4583 410.638 39.625C410.988 38.775 411.163 37.8417 411.163 36.825C411.163 34.7583 410.48 33.2 409.113 32.15C407.763 31.1 405.73 30.575 403.013 30.575H397.988V43.7H402.838ZM419.588 62.3H414.838C413.888 62.3 413.196 61.925 412.763 61.175L403.888 48.725C403.605 48.3083 403.296 48.0167 402.963 47.85C402.63 47.6667 402.13 47.575 401.463 47.575H397.988V62.3H392.663V26.4H403.013C405.33 26.4 407.321 26.6417 408.988 27.125C410.671 27.5917 412.055 28.2667 413.138 29.15C414.238 30.0167 415.046 31.0667 415.563 32.3C416.096 33.5333 416.363 34.9167 416.363 36.45C416.363 37.7 416.171 38.875 415.788 39.975C415.405 41.075 414.838 42.0667 414.088 42.95C413.355 43.8167 412.455 44.5667 411.388 45.2C410.321 45.8333 409.113 46.3167 407.763 46.65C408.43 47.05 409.005 47.6083 409.488 48.325L419.588 62.3Z" fill="#0F203B"/>
<path d="M443.281 48.925L437.956 35C437.573 34.05 437.189 32.85 436.806 31.4C436.623 32.1167 436.431 32.7833 436.231 33.4C436.048 34.0167 435.864 34.5667 435.681 35.05L430.381 48.925H443.281ZM453.806 62.3H449.706C449.239 62.3 448.856 62.1833 448.556 61.95C448.256 61.7167 448.039 61.4167 447.906 61.05L444.731 52.725H428.906L425.731 61.05C425.614 61.3667 425.398 61.6583 425.081 61.925C424.764 62.175 424.381 62.3 423.931 62.3H419.831L434.131 26.4H439.506L453.806 62.3Z" fill="#0F203B"/>
<path d="M479.247 30.85H467.847V62.3H462.547V30.85H451.097V26.4H479.247V30.85Z" fill="#0F203B"/>
<path d="M489.761 62.3H484.411V26.4H489.761V62.3Z" fill="#0F203B"/>
<path d="M532.07 44.35C532.07 47.0333 531.637 49.5 530.77 51.75C529.92 53.9833 528.712 55.9167 527.145 57.55C525.578 59.1667 523.703 60.425 521.52 61.325C519.337 62.225 516.912 62.675 514.245 62.675C511.595 62.675 509.17 62.225 506.97 61.325C504.787 60.425 502.912 59.1667 501.345 57.55C499.795 55.9167 498.587 53.9833 497.72 51.75C496.853 49.5 496.42 47.0333 496.42 44.35C496.42 41.6833 496.853 39.225 497.72 36.975C498.587 34.725 499.795 32.7917 501.345 31.175C502.912 29.5417 504.787 28.275 506.97 27.375C509.17 26.4583 511.595 26 514.245 26C516.912 26 519.337 26.4583 521.52 27.375C523.703 28.275 525.578 29.5417 527.145 31.175C528.712 32.7917 529.92 34.725 530.77 36.975C531.637 39.225 532.07 41.6833 532.07 44.35ZM526.62 44.35C526.62 42.2167 526.328 40.3 525.745 38.6C525.162 36.9 524.328 35.4583 523.245 34.275C522.178 33.0917 520.878 32.1833 519.345 31.55C517.828 30.9167 516.128 30.6 514.245 30.6C512.362 30.6 510.653 30.9167 509.12 31.55C507.603 32.1833 506.303 33.0917 505.22 34.275C504.137 35.4583 503.303 36.9 502.72 38.6C502.137 40.3 501.845 42.2167 501.845 44.35C501.845 46.5 502.137 48.425 502.72 50.125C503.303 51.8083 504.137 53.2417 505.22 54.425C506.303 55.6083 507.603 56.5167 509.12 57.15C510.653 57.7667 512.362 58.075 514.245 58.075C516.128 58.075 517.828 57.7667 519.345 57.15C520.878 56.5167 522.178 55.6083 523.245 54.425C524.328 53.2417 525.162 51.8083 525.745 50.125C526.328 48.425 526.62 46.5 526.62 44.35Z" fill="#0F203B"/>
<path d="M568.157 26.4V62.3H565.457C565.04 62.3 564.69 62.225 564.407 62.075C564.14 61.925 563.865 61.6833 563.582 61.35L543.307 35.125C543.34 35.575 543.365 36.0167 543.382 36.45C543.415 36.8833 543.432 37.2917 543.432 37.675V62.3H538.757V26.4H541.507C541.973 26.4 542.323 26.4583 542.557 26.575C542.79 26.675 543.048 26.9167 543.332 27.3L563.657 53.55C563.607 53.0667 563.565 52.6 563.532 52.15C563.515 51.6833 563.507 51.25 563.507 50.85V26.4H568.157Z" fill="#0F203B"/>
<path d="M595.613 32.25C595.446 32.5333 595.271 32.7417 595.088 32.875C594.905 33.0083 594.671 33.075 594.388 33.075C594.088 33.075 593.746 32.9417 593.363 32.675C592.98 32.3917 592.496 32.0833 591.913 31.75C591.346 31.4 590.663 31.0917 589.863 30.825C589.063 30.5417 588.105 30.4 586.988 30.4C585.938 30.4 585.013 30.5417 584.213 30.825C583.43 31.0917 582.771 31.4667 582.238 31.95C581.705 32.4167 581.296 32.975 581.013 33.625C580.746 34.2583 580.613 34.95 580.613 35.7C580.613 36.6667 580.855 37.4667 581.338 38.1C581.838 38.7333 582.488 39.275 583.288 39.725C584.088 40.175 584.996 40.5667 586.013 40.9C587.03 41.2333 588.071 41.5833 589.138 41.95C590.205 42.3 591.246 42.7083 592.263 43.175C593.28 43.6417 594.188 44.2333 594.988 44.95C595.788 45.65 596.43 46.5167 596.913 47.55C597.413 48.5667 597.663 49.8167 597.663 51.3C597.663 52.8833 597.388 54.3667 596.838 55.75C596.305 57.1333 595.521 58.3417 594.488 59.375C593.455 60.4083 592.18 61.225 590.663 61.825C589.163 62.4083 587.455 62.7 585.538 62.7C584.388 62.7 583.271 62.5833 582.188 62.35C581.105 62.1333 580.08 61.825 579.113 61.425C578.146 61.0083 577.238 60.5167 576.388 59.95C575.555 59.3667 574.805 58.7167 574.138 58L575.663 55.45C575.813 55.25 575.988 55.0833 576.188 54.95C576.405 54.8167 576.646 54.75 576.913 54.75C577.263 54.75 577.663 54.9333 578.113 55.3C578.58 55.6667 579.146 56.075 579.813 56.525C580.496 56.9583 581.305 57.3583 582.238 57.725C583.188 58.0917 584.338 58.275 585.688 58.275C586.788 58.275 587.771 58.1333 588.638 57.85C589.505 57.55 590.23 57.1333 590.813 56.6C591.413 56.05 591.871 55.3917 592.188 54.625C592.505 53.8583 592.663 53.0083 592.663 52.075C592.663 51.025 592.421 50.1667 591.938 49.5C591.455 48.8333 590.813 48.275 590.013 47.825C589.213 47.375 588.305 46.9917 587.288 46.675C586.271 46.3583 585.23 46.0333 584.163 45.7C583.096 45.35 582.055 44.95 581.038 44.5C580.021 44.05 579.113 43.4667 578.313 42.75C577.513 42.0167 576.871 41.1083 576.388 40.025C575.905 38.925 575.663 37.575 575.663 35.975C575.663 34.6917 575.913 33.45 576.413 32.25C576.913 31.05 577.638 29.9917 578.588 29.075C579.555 28.1417 580.738 27.4 582.138 26.85C583.538 26.2833 585.138 26 586.938 26C588.955 26 590.805 26.325 592.488 26.975C594.188 27.6083 595.663 28.525 596.913 29.725L595.613 32.25Z" fill="#0F203B"/>
<path d="M654.632 26.4V62.3H649.982V36.75C649.982 36.3667 649.99 35.9583 650.007 35.525C650.04 35.0917 650.073 34.65 650.107 34.2L638.157 56.125C637.74 56.9417 637.098 57.35 636.232 57.35H635.482C634.615 57.35 633.982 56.9417 633.582 56.125L621.407 34.125C621.507 35.0583 621.557 35.9333 621.557 36.75V62.3H616.882V26.4H620.832C621.298 26.4 621.657 26.45 621.907 26.55C622.173 26.6333 622.423 26.8833 622.657 27.3L634.657 48.8C634.89 49.2333 635.107 49.6917 635.307 50.175C635.507 50.6583 635.698 51.1417 635.882 51.625C636.232 50.6417 636.64 49.6917 637.107 48.775L648.882 27.3C649.098 26.8833 649.332 26.6333 649.582 26.55C649.848 26.45 650.215 26.4 650.682 26.4H654.632Z" fill="#0F203B"/>
<path d="M682.587 48.925L677.263 35C676.879 34.05 676.496 32.85 676.113 31.4C675.929 32.1167 675.738 32.7833 675.538 33.4C675.354 34.0167 675.171 34.5667 674.988 35.05L669.687 48.925H682.587ZM693.112 62.3H689.012C688.546 62.3 688.163 62.1833 687.863 61.95C687.563 61.7167 687.346 61.4167 687.212 61.05L684.038 52.725H668.212L665.038 61.05C664.921 61.3667 664.704 61.6583 664.387 61.925C664.071 62.175 663.687 62.3 663.237 62.3H659.138L673.438 26.4H678.813L693.112 62.3Z" fill="#0F203B"/>
<path d="M726.995 26.4V62.3H724.295C723.878 62.3 723.528 62.225 723.245 62.075C722.978 61.925 722.703 61.6833 722.42 61.35L702.145 35.125C702.178 35.575 702.203 36.0167 702.22 36.45C702.253 36.8833 702.27 37.2917 702.27 37.675V62.3H697.595V26.4H700.345C700.811 26.4 701.161 26.4583 701.395 26.575C701.628 26.675 701.886 26.9167 702.17 27.3L722.495 53.55C722.445 53.0667 722.403 52.6 722.37 52.15C722.353 51.6833 722.345 51.25 722.345 50.85V26.4H726.995Z" fill="#0F203B"/>
<path d="M741.226 62.3H735.876V26.4H741.226V62.3Z" fill="#0F203B"/>
<path d="M755.435 30.725V42.75H769.835V47.075H755.435V62.3H750.085V26.4H772.335V30.725H755.435Z" fill="#0F203B"/>
<path d="M800.631 57.975L800.606 62.3H778.356V26.4H800.606V30.725H783.706V42.1H797.306V46.275H783.706V57.975H800.631Z" fill="#0F203B"/>
<path d="M825.789 32.25C825.622 32.5333 825.447 32.7417 825.264 32.875C825.08 33.0083 824.847 33.075 824.564 33.075C824.264 33.075 823.922 32.9417 823.539 32.675C823.155 32.3917 822.672 32.0833 822.089 31.75C821.522 31.4 820.839 31.0917 820.039 30.825C819.239 30.5417 818.28 30.4 817.164 30.4C816.114 30.4 815.189 30.5417 814.389 30.825C813.605 31.0917 812.947 31.4667 812.414 31.95C811.88 32.4167 811.472 32.975 811.189 33.625C810.922 34.2583 810.789 34.95 810.789 35.7C810.789 36.6667 811.03 37.4667 811.514 38.1C812.014 38.7333 812.664 39.275 813.464 39.725C814.264 40.175 815.172 40.5667 816.189 40.9C817.205 41.2333 818.247 41.5833 819.314 41.95C820.38 42.3 821.422 42.7083 822.439 43.175C823.455 43.6417 824.364 44.2333 825.164 44.95C825.964 45.65 826.605 46.5167 827.089 47.55C827.589 48.5667 827.839 49.8167 827.839 51.3C827.839 52.8833 827.564 54.3667 827.014 55.75C826.48 57.1333 825.697 58.3417 824.664 59.375C823.63 60.4083 822.355 61.225 820.839 61.825C819.339 62.4083 817.63 62.7 815.714 62.7C814.564 62.7 813.447 62.5833 812.364 62.35C811.28 62.1333 810.255 61.825 809.289 61.425C808.322 61.0083 807.414 60.5167 806.564 59.95C805.73 59.3667 804.98 58.7167 804.314 58L805.839 55.45C805.989 55.25 806.164 55.0833 806.364 54.95C806.58 54.8167 806.822 54.75 807.089 54.75C807.439 54.75 807.839 54.9333 808.289 55.3C808.755 55.6667 809.322 56.075 809.989 56.525C810.672 56.9583 811.48 57.3583 812.414 57.725C813.364 58.0917 814.514 58.275 815.864 58.275C816.964 58.275 817.947 58.1333 818.814 57.85C819.68 57.55 820.405 57.1333 820.989 56.6C821.589 56.05 822.047 55.3917 822.364 54.625C822.68 53.8583 822.839 53.0083 822.839 52.075C822.839 51.025 822.597 50.1667 822.114 49.5C821.63 48.8333 820.989 48.275 820.189 47.825C819.389 47.375 818.48 46.9917 817.464 46.675C816.447 46.3583 815.405 46.0333 814.339 45.7C813.272 45.35 812.23 44.95 811.214 44.5C810.197 44.05 809.289 43.4667 808.489 42.75C807.689 42.0167 807.047 41.1083 806.564 40.025C806.08 38.925 805.839 37.575 805.839 35.975C805.839 34.6917 806.089 33.45 806.589 32.25C807.089 31.05 807.814 29.9917 808.764 29.075C809.73 28.1417 810.914 27.4 812.314 26.85C813.714 26.2833 815.314 26 817.114 26C819.13 26 820.98 26.325 822.664 26.975C824.364 27.6083 825.839 28.525 827.089 29.725L825.789 32.25Z" fill="#0F203B"/>
<path d="M858.886 30.85H847.486V62.3H842.186V30.85H830.736V26.4H858.886V30.85Z" fill="#0F203B"/>
<path d="M895.986 44.35C895.986 47.0333 895.553 49.5 894.686 51.75C893.836 53.9833 892.628 55.9167 891.061 57.55C889.494 59.1667 887.619 60.425 885.436 61.325C883.253 62.225 880.828 62.675 878.161 62.675C875.511 62.675 873.086 62.225 870.886 61.325C868.703 60.425 866.828 59.1667 865.261 57.55C863.711 55.9167 862.503 53.9833 861.636 51.75C860.769 49.5 860.336 47.0333 860.336 44.35C860.336 41.6833 860.769 39.225 861.636 36.975C862.503 34.725 863.711 32.7917 865.261 31.175C866.828 29.5417 868.703 28.275 870.886 27.375C873.086 26.4583 875.511 26 878.161 26C880.828 26 883.253 26.4583 885.436 27.375C887.619 28.275 889.494 29.5417 891.061 31.175C892.628 32.7917 893.836 34.725 894.686 36.975C895.553 39.225 895.986 41.6833 895.986 44.35ZM890.536 44.35C890.536 42.2167 890.244 40.3 889.661 38.6C889.078 36.9 888.244 35.4583 887.161 34.275C886.094 33.0917 884.794 32.1833 883.261 31.55C881.744 30.9167 880.044 30.6 878.161 30.6C876.278 30.6 874.569 30.9167 873.036 31.55C871.519 32.1833 870.219 33.0917 869.136 34.275C868.053 35.4583 867.219 36.9 866.636 38.6C866.053 40.3 865.761 42.2167 865.761 44.35C865.761 46.5 866.053 48.425 866.636 50.125C867.219 51.8083 868.053 53.2417 869.136 54.425C870.219 55.6083 871.519 56.5167 873.036 57.15C874.569 57.7667 876.278 58.075 878.161 58.075C880.044 58.075 881.744 57.7667 883.261 57.15C884.794 56.5167 886.094 55.6083 887.161 54.425C888.244 53.2417 889.078 51.8083 889.661 50.125C890.244 48.425 890.536 46.5 890.536 44.35Z" fill="#0F203B"/>
<g clip-path="url(#clip0_89_140)">
<g clip-path="url(#clip1_89_140)">
<mask id="mask0_89_140" style="mask-type:alpha" maskUnits="userSpaceOnUse" x="16" y="16" width="94" height="94">
<path d="M16 63C16 37.0426 37.0426 16 63 16V16C88.9574 16 110 37.0426 110 63V63C110 88.9574 88.9574 110 63 110V110C37.0426 110 16 88.9574 16 63V63Z" fill="#4F5B8C"/>
</mask>
<g mask="url(#mask0_89_140)">
<path d="M-7.5 63C-7.5 37.0426 13.5426 16 39.5 16V16C65.4574 16 86.5 37.0426 86.5 63V63C86.5 88.9574 65.4574 110 39.5 110V110C13.5426 110 -7.5 88.9574 -7.5 63V63Z" fill="#4F5B8C"/>
<path d="M63 63C63 37.0426 84.0426 16 110 16V16C135.957 16 157 37.0426 157 63V110H63V63Z" fill="#F8A7D6"/>
</g>
</g>
</g>
<defs>
<clipPath id="clip0_89_140">
<rect width="94" height="94" fill="white" transform="translate(16 16)"/>
</clipPath>
<clipPath id="clip1_89_140">
<rect x="16" y="16" width="94" height="94" rx="47" fill="white"/>
</clipPath>
</defs>
</svg>
