<svg width="575" height="126" viewBox="0 0 575 126" fill="none" xmlns="http://www.w3.org/2000/svg">
<path d="M166.643 110.145C159.147 110.145 151.757 108.371 145.078 104.967C138.399 101.564 132.62 96.6288 128.214 90.5644C123.808 84.5 120.9 77.479 119.727 70.0752C118.555 62.6715 119.151 55.0954 121.467 47.9663L127.977 44.5166L130.502 50.9019C128.649 56.6052 128.172 62.6661 129.11 68.5891C130.048 74.5121 132.375 80.129 135.9 84.9805C139.425 89.832 144.048 93.7804 149.391 96.5029C154.734 99.2254 160.646 100.645 166.643 100.645L160.562 105.326L166.643 110.145Z" fill="#EEE8A9"/>
<path d="M125.507 38.8946C129.255 32.4028 134.486 26.8903 140.773 22.8077C147.06 18.7251 154.223 16.1883 161.678 15.4047C169.133 14.6212 176.668 15.6131 183.666 18.2995C190.664 20.9858 196.927 25.2902 201.943 30.8609L202.44 38.0914L194.883 37.2176C190.87 32.7611 185.86 29.3176 180.261 27.1685C174.663 25.0194 168.635 24.2259 162.671 24.8527C156.707 25.4796 150.976 27.509 145.947 30.7751C140.918 34.0412 136.733 38.4512 133.734 43.6446L132.567 37.0588L125.507 38.8946Z" fill="#E6F4F1"/>
<path d="M207.778 38.8945C211.526 45.3863 213.684 52.6729 214.076 60.1586C214.469 67.6443 213.084 75.1166 210.035 81.9646C206.986 88.8125 202.36 94.8416 196.534 99.559C190.709 104.276 183.85 107.548 176.517 109.107L169.854 106.014L174.542 99.8142C180.408 98.5674 185.895 95.95 190.556 92.1761C195.216 88.4022 198.917 83.5789 201.356 78.1006C203.795 72.6222 204.903 66.6444 204.59 60.6558C204.276 54.6672 202.549 48.8379 199.551 43.6445L206.454 46.3523L207.778 38.8945Z" fill="#A5A7DD"/>
<path d="M43.4479 106.093C33.396 101.652 25.195 93.8625 20.2424 84.0525C15.2897 74.2424 13.8918 63.0185 16.2868 52.2933C18.6818 41.5681 24.7215 32.0051 33.3768 25.2337C42.0322 18.4624 52.7677 14.9017 63.754 15.1583C74.7404 15.4148 85.298 19.4729 93.6278 26.6409C101.958 33.8089 107.544 43.6434 109.436 54.4688C111.328 65.2941 109.407 76.4405 104.002 86.0086C98.5968 95.5768 90.0412 102.975 79.7929 106.942L69.5042 80.364C73.6035 78.7771 77.0257 75.8179 79.1878 71.9906C81.3499 68.1634 82.1181 63.7048 81.3614 59.3747C80.6047 55.0446 78.37 51.1107 75.0381 48.2435C71.7062 45.3763 67.4832 43.7531 63.0886 43.6505C58.6941 43.5478 54.3999 44.9721 50.9377 47.6807C47.4756 50.3892 45.0597 54.2144 44.1017 58.5045C43.1437 62.7946 43.7029 67.2841 45.684 71.2082C47.665 75.1322 50.9454 78.2479 54.9662 80.0245L43.4479 106.093Z" fill="#D9D9D9" fill-opacity="0.5"/>
<path d="M73.6533 62.6565C73.6533 64.3739 73.3759 65.9525 72.8213 67.3925C72.2773 68.8219 71.5039 70.0592 70.5013 71.1045C69.4986 72.1392 68.2986 72.9445 66.9013 73.5205C65.5039 74.0965 63.9519 74.3845 62.2453 74.3845C60.5493 74.3845 58.9973 74.0965 57.5893 73.5205C56.1919 72.9445 54.9919 72.1392 53.9893 71.1045C52.9973 70.0592 52.2239 68.8219 51.6693 67.3925C51.1146 65.9525 50.8373 64.3739 50.8373 62.6565C50.8373 60.9499 51.1146 59.3765 51.6693 57.9365C52.2239 56.4965 52.9973 55.2592 53.9893 54.2245C54.9919 53.1792 56.1919 52.3685 57.5893 51.7925C58.9973 51.2059 60.5493 50.9125 62.2453 50.9125C63.9519 50.9125 65.5039 51.2059 66.9013 51.7925C68.2986 52.3685 69.4986 53.1792 70.5013 54.2245C71.5039 55.2592 72.2773 56.4965 72.8213 57.9365C73.3759 59.3765 73.6533 60.9499 73.6533 62.6565ZM70.1653 62.6565C70.1653 61.2912 69.9786 60.0645 69.6053 58.9765C69.2319 57.8885 68.6986 56.9659 68.0053 56.2085C67.3226 55.4512 66.4906 54.8699 65.5093 54.4645C64.5386 54.0592 63.4506 53.8565 62.2453 53.8565C61.0399 53.8565 59.9466 54.0592 58.9653 54.4645C57.9946 54.8699 57.1626 55.4512 56.4693 56.2085C55.7759 56.9659 55.2426 57.8885 54.8693 58.9765C54.4959 60.0645 54.3093 61.2912 54.3093 62.6565C54.3093 64.0325 54.4959 65.2645 54.8693 66.3525C55.2426 67.4299 55.7759 68.3472 56.4693 69.1045C57.1626 69.8619 57.9946 70.4432 58.9653 70.8485C59.9466 71.2432 61.0399 71.4405 62.2453 71.4405C63.4506 71.4405 64.5386 71.2432 65.5093 70.8485C66.4906 70.4432 67.3226 69.8619 68.0053 69.1045C68.6986 68.3472 69.2319 67.4299 69.6053 66.3525C69.9786 65.2645 70.1653 64.0325 70.1653 62.6565ZM86.4928 62.9925C87.3568 62.9925 88.1141 62.8805 88.7648 62.6565C89.4261 62.4325 89.9754 62.1179 90.4128 61.7125C90.8608 61.2965 91.1968 60.8059 91.4208 60.2405C91.6448 59.6645 91.7568 59.0299 91.7568 58.3365C91.7568 56.9392 91.3194 55.8405 90.4448 55.0405C89.5808 54.2405 88.2634 53.8405 86.4928 53.8405H82.9408V62.9925H86.4928ZM86.4928 51.1685C87.9648 51.1685 89.2448 51.3392 90.3328 51.6805C91.4208 52.0219 92.3221 52.5072 93.0368 53.1365C93.7514 53.7552 94.2794 54.5072 94.6208 55.3925C94.9728 56.2779 95.1488 57.2592 95.1488 58.3365C95.1488 59.4139 94.9621 60.4059 94.5888 61.3125C94.2154 62.2085 93.6661 62.9819 92.9408 63.6325C92.2154 64.2832 91.3088 64.7899 90.2208 65.1525C89.1434 65.5045 87.9008 65.6805 86.4928 65.6805H82.9408V74.1445H79.5328V51.1685H86.4928ZM114.764 71.3765L114.748 74.1445H100.508V51.1685H114.748V53.9365H103.932V61.2165H112.636V63.8885H103.932V71.3765H114.764ZM139.393 51.1685V74.1445H137.665C137.398 74.1445 137.174 74.0965 136.993 74.0005C136.822 73.9045 136.646 73.7499 136.465 73.5365L123.489 56.7525C123.51 57.0405 123.526 57.3232 123.537 57.6005C123.558 57.8779 123.569 58.1392 123.569 58.3845V74.1445H120.577V51.1685H122.337C122.635 51.1685 122.859 51.2059 123.009 51.2805C123.158 51.3445 123.323 51.4992 123.505 51.7445L136.513 68.5445C136.481 68.2352 136.454 67.9365 136.433 67.6485C136.422 67.3499 136.417 67.0725 136.417 66.8165V51.1685H139.393ZM177.778 62.6565C177.778 64.3739 177.501 65.9525 176.946 67.3925C176.402 68.8219 175.629 70.0592 174.626 71.1045C173.624 72.1392 172.424 72.9445 171.026 73.5205C169.629 74.0965 168.077 74.3845 166.37 74.3845C164.674 74.3845 163.122 74.0965 161.714 73.5205C160.317 72.9445 159.117 72.1392 158.114 71.1045C157.122 70.0592 156.349 68.8219 155.794 67.3925C155.24 65.9525 154.962 64.3739 154.962 62.6565C154.962 60.9499 155.24 59.3765 155.794 57.9365C156.349 56.4965 157.122 55.2592 158.114 54.2245C159.117 53.1792 160.317 52.3685 161.714 51.7925C163.122 51.2059 164.674 50.9125 166.37 50.9125C168.077 50.9125 169.629 51.2059 171.026 51.7925C172.424 52.3685 173.624 53.1792 174.626 54.2245C175.629 55.2592 176.402 56.4965 176.946 57.9365C177.501 59.3765 177.778 60.9499 177.778 62.6565ZM174.29 62.6565C174.29 61.2912 174.104 60.0645 173.73 58.9765C173.357 57.8885 172.824 56.9659 172.13 56.2085C171.448 55.4512 170.616 54.8699 169.634 54.4645C168.664 54.0592 167.576 53.8565 166.37 53.8565C165.165 53.8565 164.072 54.0592 163.09 54.4645C162.12 54.8699 161.288 55.4512 160.594 56.2085C159.901 56.9659 159.368 57.8885 158.994 58.9765C158.621 60.0645 158.434 61.2912 158.434 62.6565C158.434 64.0325 158.621 65.2645 158.994 66.3525C159.368 67.4299 159.901 68.3472 160.594 69.1045C161.288 69.8619 162.12 70.4432 163.09 70.8485C164.072 71.2432 165.165 71.4405 166.37 71.4405C167.576 71.4405 168.664 71.2432 169.634 70.8485C170.616 70.4432 171.448 69.8619 172.13 69.1045C172.824 68.3472 173.357 67.4299 173.73 66.3525C174.104 65.2645 174.29 64.0325 174.29 62.6565ZM190.618 62.9925C191.482 62.9925 192.239 62.8805 192.89 62.6565C193.551 62.4325 194.1 62.1179 194.538 61.7125C194.986 61.2965 195.322 60.8059 195.546 60.2405C195.77 59.6645 195.882 59.0299 195.882 58.3365C195.882 56.9392 195.444 55.8405 194.57 55.0405C193.706 54.2405 192.388 53.8405 190.618 53.8405H187.066V62.9925H190.618ZM190.618 51.1685C192.09 51.1685 193.37 51.3392 194.458 51.6805C195.546 52.0219 196.447 52.5072 197.162 53.1365C197.876 53.7552 198.404 54.5072 198.746 55.3925C199.098 56.2779 199.274 57.2592 199.274 58.3365C199.274 59.4139 199.087 60.4059 198.714 61.3125C198.34 62.2085 197.791 62.9819 197.066 63.6325C196.34 64.2832 195.434 64.7899 194.346 65.1525C193.268 65.5045 192.026 65.6805 190.618 65.6805H187.066V74.1445H183.658V51.1685H190.618ZM218.889 71.3765L218.873 74.1445H204.633V51.1685H218.873V53.9365H208.057V61.2165H216.761V63.8885H208.057V71.3765H218.889ZM231.214 62.2405C232.088 62.2405 232.856 62.1339 233.518 61.9205C234.19 61.7072 234.75 61.4085 235.198 61.0245C235.646 60.6299 235.982 60.1659 236.206 59.6325C236.43 59.0885 236.542 58.4912 236.542 57.8405C236.542 56.5179 236.104 55.5205 235.23 54.8485C234.366 54.1765 233.064 53.8405 231.326 53.8405H228.11V62.2405H231.214ZM241.934 74.1445H238.894C238.286 74.1445 237.843 73.9045 237.566 73.4245L231.886 65.4565C231.704 65.1899 231.507 65.0032 231.294 64.8965C231.08 64.7792 230.76 64.7205 230.334 64.7205H228.11V74.1445H224.702V51.1685H231.326C232.808 51.1685 234.083 51.3232 235.15 51.6325C236.227 51.9312 237.112 52.3632 237.806 52.9285C238.51 53.4832 239.027 54.1552 239.358 54.9445C239.699 55.7339 239.87 56.6192 239.87 57.6005C239.87 58.4005 239.747 59.1525 239.502 59.8565C239.256 60.5605 238.894 61.1952 238.414 61.7605C237.944 62.3152 237.368 62.7952 236.686 63.2005C236.003 63.6059 235.23 63.9152 234.366 64.1285C234.792 64.3845 235.16 64.7419 235.47 65.2005L241.934 74.1445ZM258.697 65.5845L255.289 56.6725C255.044 56.0645 254.798 55.2965 254.553 54.3685C254.436 54.8272 254.313 55.2539 254.185 55.6485C254.068 56.0432 253.95 56.3952 253.833 56.7045L250.441 65.5845H258.697ZM265.433 74.1445H262.809C262.51 74.1445 262.265 74.0699 262.073 73.9205C261.881 73.7712 261.742 73.5792 261.657 73.3445L259.625 68.0165H249.497L247.465 73.3445C247.39 73.5472 247.252 73.7339 247.049 73.9045C246.846 74.0645 246.601 74.1445 246.313 74.1445H243.689L252.841 51.1685H256.281L265.433 74.1445ZM283.316 54.0165H276.02V74.1445H272.628V54.0165H265.3V51.1685H283.316V54.0165ZM291.644 74.1445H288.22V51.1685H291.644V74.1445ZM320.322 62.6565C320.322 64.3739 320.045 65.9525 319.49 67.3925C318.946 68.8219 318.173 70.0592 317.17 71.1045C316.167 72.1392 314.967 72.9445 313.57 73.5205C312.173 74.0965 310.621 74.3845 308.914 74.3845C307.218 74.3845 305.666 74.0965 304.258 73.5205C302.861 72.9445 301.661 72.1392 300.658 71.1045C299.666 70.0592 298.893 68.8219 298.338 67.3925C297.783 65.9525 297.506 64.3739 297.506 62.6565C297.506 60.9499 297.783 59.3765 298.338 57.9365C298.893 56.4965 299.666 55.2592 300.658 54.2245C301.661 53.1792 302.861 52.3685 304.258 51.7925C305.666 51.2059 307.218 50.9125 308.914 50.9125C310.621 50.9125 312.173 51.2059 313.57 51.7925C314.967 52.3685 316.167 53.1792 317.17 54.2245C318.173 55.2592 318.946 56.4965 319.49 57.9365C320.045 59.3765 320.322 60.9499 320.322 62.6565ZM316.834 62.6565C316.834 61.2912 316.647 60.0645 316.274 58.9765C315.901 57.8885 315.367 56.9659 314.674 56.2085C313.991 55.4512 313.159 54.8699 312.178 54.4645C311.207 54.0592 310.119 53.8565 308.914 53.8565C307.709 53.8565 306.615 54.0592 305.634 54.4645C304.663 54.8699 303.831 55.4512 303.138 56.2085C302.445 56.9659 301.911 57.8885 301.538 58.9765C301.165 60.0645 300.978 61.2912 300.978 62.6565C300.978 64.0325 301.165 65.2645 301.538 66.3525C301.911 67.4299 302.445 68.3472 303.138 69.1045C303.831 69.8619 304.663 70.4432 305.634 70.8485C306.615 71.2432 307.709 71.4405 308.914 71.4405C310.119 71.4405 311.207 71.2432 312.178 70.8485C313.159 70.4432 313.991 69.8619 314.674 69.1045C315.367 68.3472 315.901 67.4299 316.274 66.3525C316.647 65.2645 316.834 64.0325 316.834 62.6565ZM345.018 51.1685V74.1445H343.29C343.023 74.1445 342.799 74.0965 342.618 74.0005C342.447 73.9045 342.271 73.7499 342.09 73.5365L329.114 56.7525C329.135 57.0405 329.151 57.3232 329.162 57.6005C329.183 57.8779 329.194 58.1392 329.194 58.3845V74.1445H326.202V51.1685H327.962C328.26 51.1685 328.484 51.2059 328.634 51.2805C328.783 51.3445 328.948 51.4992 329.13 51.7445L342.138 68.5445C342.106 68.2352 342.079 67.9365 342.058 67.6485C342.047 67.3499 342.042 67.0725 342.042 66.8165V51.1685H345.018ZM364.19 54.9125C364.083 55.0939 363.971 55.2272 363.854 55.3125C363.736 55.3979 363.587 55.4405 363.406 55.4405C363.214 55.4405 362.995 55.3552 362.75 55.1845C362.504 55.0032 362.195 54.8059 361.822 54.5925C361.459 54.3685 361.022 54.1712 360.51 54.0005C359.998 53.8192 359.384 53.7285 358.67 53.7285C357.998 53.7285 357.406 53.8192 356.894 54.0005C356.392 54.1712 355.971 54.4112 355.63 54.7205C355.288 55.0192 355.027 55.3765 354.846 55.7925C354.675 56.1979 354.59 56.6405 354.59 57.1205C354.59 57.7392 354.744 58.2512 355.054 58.6565C355.374 59.0619 355.79 59.4085 356.302 59.6965C356.814 59.9845 357.395 60.2352 358.046 60.4485C358.696 60.6619 359.363 60.8859 360.046 61.1205C360.728 61.3445 361.395 61.6059 362.046 61.9045C362.696 62.2032 363.278 62.5819 363.79 63.0405C364.302 63.4885 364.712 64.0432 365.022 64.7045C365.342 65.3552 365.502 66.1552 365.502 67.1045C365.502 68.1179 365.326 69.0672 364.974 69.9525C364.632 70.8379 364.131 71.6112 363.47 72.2725C362.808 72.9339 361.992 73.4565 361.022 73.8405C360.062 74.2139 358.968 74.4005 357.742 74.4005C357.006 74.4005 356.291 74.3259 355.598 74.1765C354.904 74.0379 354.248 73.8405 353.63 73.5845C353.011 73.3179 352.43 73.0032 351.886 72.6405C351.352 72.2672 350.872 71.8512 350.446 71.3925L351.422 69.7605C351.518 69.6325 351.63 69.5259 351.758 69.4405C351.896 69.3552 352.051 69.3125 352.222 69.3125C352.446 69.3125 352.702 69.4299 352.99 69.6645C353.288 69.8992 353.651 70.1605 354.078 70.4485C354.515 70.7259 355.032 70.9819 355.63 71.2165C356.238 71.4512 356.974 71.5685 357.838 71.5685C358.542 71.5685 359.171 71.4779 359.726 71.2965C360.28 71.1045 360.744 70.8379 361.118 70.4965C361.502 70.1445 361.795 69.7232 361.998 69.2325C362.2 68.7419 362.302 68.1979 362.302 67.6005C362.302 66.9285 362.147 66.3792 361.838 65.9525C361.528 65.5259 361.118 65.1685 360.606 64.8805C360.094 64.5925 359.512 64.3472 358.862 64.1445C358.211 63.9419 357.544 63.7339 356.862 63.5205C356.179 63.2965 355.512 63.0405 354.862 62.7525C354.211 62.4645 353.63 62.0912 353.118 61.6325C352.606 61.1632 352.195 60.5819 351.886 59.8885C351.576 59.1845 351.422 58.3205 351.422 57.2965C351.422 56.4752 351.582 55.6805 351.902 54.9125C352.222 54.1445 352.686 53.4672 353.294 52.8805C353.912 52.2832 354.67 51.8085 355.566 51.4565C356.462 51.0939 357.486 50.9125 358.638 50.9125C359.928 50.9125 361.112 51.1205 362.19 51.5365C363.278 51.9419 364.222 52.5285 365.022 53.2965L364.19 54.9125ZM405.162 51.1685V74.1445H402.186V57.7925C402.186 57.5472 402.191 57.2859 402.202 57.0085C402.223 56.7312 402.244 56.4485 402.266 56.1605L394.618 70.1925C394.351 70.7152 393.94 70.9765 393.386 70.9765H392.906C392.351 70.9765 391.946 70.7152 391.69 70.1925L383.898 56.1125C383.962 56.7099 383.994 57.2699 383.994 57.7925V74.1445H381.002V51.1685H383.53C383.828 51.1685 384.058 51.2005 384.218 51.2645C384.388 51.3179 384.548 51.4779 384.698 51.7445L392.378 65.5045C392.527 65.7819 392.666 66.0752 392.794 66.3845C392.922 66.6939 393.044 67.0032 393.162 67.3125C393.386 66.6832 393.647 66.0752 393.946 65.4885L401.482 51.7445C401.62 51.4779 401.77 51.3179 401.93 51.2645C402.1 51.2005 402.335 51.1685 402.634 51.1685H405.162ZM424.653 65.5845L421.245 56.6725C421 56.0645 420.755 55.2965 420.509 54.3685C420.392 54.8272 420.269 55.2539 420.141 55.6485C420.024 56.0432 419.907 56.3952 419.789 56.7045L416.397 65.5845H424.653ZM431.389 74.1445H428.765C428.467 74.1445 428.221 74.0699 428.029 73.9205C427.837 73.7712 427.699 73.5792 427.613 73.3445L425.581 68.0165H415.453L413.421 73.3445C413.347 73.5472 413.208 73.7339 413.005 73.9045C412.803 74.0645 412.557 74.1445 412.269 74.1445H409.645L418.797 51.1685H422.237L431.389 74.1445ZM454.674 51.1685V74.1445H452.946C452.679 74.1445 452.455 74.0965 452.274 74.0005C452.103 73.9045 451.927 73.7499 451.746 73.5365L438.77 56.7525C438.791 57.0405 438.807 57.3232 438.818 57.6005C438.839 57.8779 438.85 58.1392 438.85 58.3845V74.1445H435.858V51.1685H437.618C437.916 51.1685 438.14 51.2059 438.29 51.2805C438.439 51.3445 438.604 51.4992 438.786 51.7445L451.794 68.5445C451.762 68.2352 451.735 67.9365 451.714 67.6485C451.703 67.3499 451.698 67.0725 451.698 66.8165V51.1685H454.674ZM465.382 74.1445H461.958V51.1685H465.382V74.1445ZM476.076 53.9365V61.6325H485.292V64.4005H476.076V74.1445H472.652V51.1685H486.892V53.9365H476.076ZM506.601 71.3765L506.585 74.1445H492.345V51.1685H506.585V53.9365H495.769V61.2165H504.473V63.8885H495.769V71.3765H506.601ZM524.302 54.9125C524.195 55.0939 524.083 55.2272 523.966 55.3125C523.849 55.3979 523.699 55.4405 523.518 55.4405C523.326 55.4405 523.107 55.3552 522.862 55.1845C522.617 55.0032 522.307 54.8059 521.934 54.5925C521.571 54.3685 521.134 54.1712 520.622 54.0005C520.11 53.8192 519.497 53.7285 518.782 53.7285C518.11 53.7285 517.518 53.8192 517.006 54.0005C516.505 54.1712 516.083 54.4112 515.742 54.7205C515.401 55.0192 515.139 55.3765 514.958 55.7925C514.787 56.1979 514.702 56.6405 514.702 57.1205C514.702 57.7392 514.857 58.2512 515.166 58.6565C515.486 59.0619 515.902 59.4085 516.414 59.6965C516.926 59.9845 517.507 60.2352 518.158 60.4485C518.809 60.6619 519.475 60.8859 520.158 61.1205C520.841 61.3445 521.507 61.6059 522.158 61.9045C522.809 62.2032 523.39 62.5819 523.902 63.0405C524.414 63.4885 524.825 64.0432 525.134 64.7045C525.454 65.3552 525.614 66.1552 525.614 67.1045C525.614 68.1179 525.438 69.0672 525.086 69.9525C524.745 70.8379 524.243 71.6112 523.582 72.2725C522.921 72.9339 522.105 73.4565 521.134 73.8405C520.174 74.2139 519.081 74.4005 517.854 74.4005C517.118 74.4005 516.403 74.3259 515.71 74.1765C515.017 74.0379 514.361 73.8405 513.742 73.5845C513.123 73.3179 512.542 73.0032 511.998 72.6405C511.465 72.2672 510.985 71.8512 510.558 71.3925L511.534 69.7605C511.63 69.6325 511.742 69.5259 511.87 69.4405C512.009 69.3552 512.163 69.3125 512.334 69.3125C512.558 69.3125 512.814 69.4299 513.102 69.6645C513.401 69.8992 513.763 70.1605 514.19 70.4485C514.627 70.7259 515.145 70.9819 515.742 71.2165C516.35 71.4512 517.086 71.5685 517.95 71.5685C518.654 71.5685 519.283 71.4779 519.838 71.2965C520.393 71.1045 520.857 70.8379 521.23 70.4965C521.614 70.1445 521.907 69.7232 522.11 69.2325C522.313 68.7419 522.414 68.1979 522.414 67.6005C522.414 66.9285 522.259 66.3792 521.95 65.9525C521.641 65.5259 521.23 65.1685 520.718 64.8805C520.206 64.5925 519.625 64.3472 518.974 64.1445C518.323 63.9419 517.657 63.7339 516.974 63.5205C516.291 63.2965 515.625 63.0405 514.974 62.7525C514.323 62.4645 513.742 62.0912 513.23 61.6325C512.718 61.1632 512.307 60.5819 511.998 59.8885C511.689 59.1845 511.534 58.3205 511.534 57.2965C511.534 56.4752 511.694 55.6805 512.014 54.9125C512.334 54.1445 512.798 53.4672 513.406 52.8805C514.025 52.2832 514.782 51.8085 515.678 51.4565C516.574 51.0939 517.598 50.9125 518.75 50.9125C520.041 50.9125 521.225 51.1205 522.302 51.5365C523.39 51.9419 524.334 52.5285 525.134 53.2965L524.302 54.9125ZM547.084 54.0165H539.788V74.1445H536.396V54.0165H529.068V51.1685H547.084V54.0165ZM572.428 62.6565C572.428 64.3739 572.151 65.9525 571.596 67.3925C571.052 68.8219 570.279 70.0592 569.276 71.1045C568.274 72.1392 567.074 72.9445 565.676 73.5205C564.279 74.0965 562.727 74.3845 561.02 74.3845C559.324 74.3845 557.772 74.0965 556.364 73.5205C554.967 72.9445 553.767 72.1392 552.764 71.1045C551.772 70.0592 550.999 68.8219 550.444 67.3925C549.89 65.9525 549.612 64.3739 549.612 62.6565C549.612 60.9499 549.89 59.3765 550.444 57.9365C550.999 56.4965 551.772 55.2592 552.764 54.2245C553.767 53.1792 554.967 52.3685 556.364 51.7925C557.772 51.2059 559.324 50.9125 561.02 50.9125C562.727 50.9125 564.279 51.2059 565.676 51.7925C567.074 52.3685 568.274 53.1792 569.276 54.2245C570.279 55.2592 571.052 56.4965 571.596 57.9365C572.151 59.3765 572.428 60.9499 572.428 62.6565ZM568.94 62.6565C568.94 61.2912 568.754 60.0645 568.38 58.9765C568.007 57.8885 567.474 56.9659 566.78 56.2085C566.098 55.4512 565.266 54.8699 564.284 54.4645C563.314 54.0592 562.226 53.8565 561.02 53.8565C559.815 53.8565 558.722 54.0592 557.74 54.4645C556.77 54.8699 555.938 55.4512 555.244 56.2085C554.551 56.9659 554.018 57.8885 553.644 58.9765C553.271 60.0645 553.084 61.2912 553.084 62.6565C553.084 64.0325 553.271 65.2645 553.644 66.3525C554.018 67.4299 554.551 68.3472 555.244 69.1045C555.938 69.8619 556.77 70.4432 557.74 70.8485C558.722 71.2432 559.815 71.4405 561.02 71.4405C562.226 71.4405 563.314 71.2432 564.284 70.8485C565.266 70.4432 566.098 69.8619 566.78 69.1045C567.474 68.3472 568.007 67.4299 568.38 66.3525C568.754 65.2645 568.94 64.0325 568.94 62.6565Z" fill="#3F3F46"/>
<path d="M219.462 91.1305C219.786 91.1305 220.062 91.0925 220.29 91.0165C220.522 90.9405 220.71 90.8365 220.854 90.7045C221.002 90.5725 221.11 90.4165 221.178 90.2365C221.246 90.0525 221.28 89.8525 221.28 89.6365C221.28 89.2085 221.132 88.8725 220.836 88.6285C220.54 88.3805 220.082 88.2565 219.462 88.2565H217.662V91.1305H219.462ZM217.662 84.5305V87.3505H219.132C219.76 87.3505 220.226 87.2245 220.53 86.9725C220.838 86.7165 220.992 86.3725 220.992 85.9405C220.992 85.4485 220.846 85.0905 220.554 84.8665C220.262 84.6425 219.808 84.5305 219.192 84.5305H217.662ZM219.192 83.5285C219.732 83.5285 220.194 83.5805 220.578 83.6845C220.966 83.7885 221.284 83.9385 221.532 84.1345C221.78 84.3305 221.962 84.5685 222.078 84.8485C222.198 85.1245 222.258 85.4385 222.258 85.7905C222.258 85.9985 222.226 86.1985 222.162 86.3905C222.098 86.5825 222 86.7625 221.868 86.9305C221.736 87.0945 221.57 87.2425 221.37 87.3745C221.17 87.5065 220.934 87.6165 220.662 87.7045C221.914 87.9525 222.54 88.6065 222.54 89.6665C222.54 90.0345 222.472 90.3705 222.336 90.6745C222.2 90.9745 222.002 91.2345 221.742 91.4545C221.482 91.6745 221.162 91.8445 220.782 91.9645C220.402 92.0845 219.97 92.1445 219.486 92.1445H216.384V83.5285H219.192ZM229.069 86.0485V92.1445H228.367C228.207 92.1445 228.103 92.0665 228.055 91.9105L227.971 91.2985C227.839 91.4385 227.701 91.5665 227.557 91.6825C227.413 91.7985 227.259 91.8985 227.095 91.9825C226.931 92.0625 226.757 92.1245 226.573 92.1685C226.389 92.2165 226.191 92.2405 225.979 92.2405C225.643 92.2405 225.347 92.1845 225.091 92.0725C224.839 91.9605 224.627 91.8045 224.455 91.6045C224.283 91.4005 224.153 91.1565 224.065 90.8725C223.977 90.5885 223.933 90.2745 223.933 89.9305V86.0485H225.109V89.9305C225.109 90.3665 225.209 90.7065 225.409 90.9505C225.609 91.1905 225.915 91.3105 226.327 91.3105C226.627 91.3105 226.907 91.2405 227.167 91.1005C227.427 90.9565 227.671 90.7605 227.899 90.5125V86.0485H229.069ZM232.106 86.0485V92.1445H230.936V86.0485H232.106ZM232.328 84.1645C232.328 84.2725 232.306 84.3765 232.262 84.4765C232.218 84.5725 232.158 84.6585 232.082 84.7345C232.01 84.8065 231.924 84.8645 231.824 84.9085C231.724 84.9485 231.62 84.9685 231.512 84.9685C231.404 84.9685 231.302 84.9485 231.206 84.9085C231.11 84.8645 231.024 84.8065 230.948 84.7345C230.876 84.6585 230.818 84.5725 230.774 84.4765C230.734 84.3765 230.714 84.2725 230.714 84.1645C230.714 84.0525 230.734 83.9485 230.774 83.8525C230.818 83.7525 230.876 83.6665 230.948 83.5945C231.024 83.5185 231.11 83.4605 231.206 83.4205C231.302 83.3765 231.404 83.3545 231.512 83.3545C231.62 83.3545 231.724 83.3765 231.824 83.4205C231.924 83.4605 232.01 83.5185 232.082 83.5945C232.158 83.6665 232.218 83.7525 232.262 83.8525C232.306 83.9485 232.328 84.0525 232.328 84.1645ZM235.18 83.2885V92.1445H234.004V83.2885H235.18ZM240.961 87.5245C240.769 87.2725 240.561 87.0965 240.337 86.9965C240.117 86.8965 239.869 86.8465 239.593 86.8465C239.057 86.8465 238.641 87.0405 238.345 87.4285C238.053 87.8125 237.907 88.3745 237.907 89.1145C237.907 89.5025 237.939 89.8345 238.003 90.1105C238.071 90.3825 238.167 90.6065 238.291 90.7825C238.419 90.9545 238.575 91.0825 238.759 91.1665C238.943 91.2465 239.151 91.2865 239.383 91.2865C239.723 91.2865 240.017 91.2105 240.265 91.0585C240.513 90.9065 240.745 90.6925 240.961 90.4165V87.5245ZM242.137 83.2885V92.1445H241.429C241.265 92.1445 241.163 92.0665 241.123 91.9105L241.021 91.2085C240.761 91.5165 240.465 91.7645 240.133 91.9525C239.805 92.1365 239.425 92.2285 238.993 92.2285C238.645 92.2285 238.329 92.1605 238.045 92.0245C237.765 91.8885 237.525 91.6905 237.325 91.4305C237.125 91.1665 236.971 90.8405 236.863 90.4525C236.755 90.0645 236.701 89.6185 236.701 89.1145C236.701 88.6625 236.761 88.2425 236.881 87.8545C237.001 87.4665 237.175 87.1305 237.403 86.8465C237.631 86.5625 237.907 86.3405 238.231 86.1805C238.555 86.0165 238.921 85.9345 239.329 85.9345C239.697 85.9345 240.009 85.9945 240.265 86.1145C240.525 86.2345 240.757 86.4045 240.961 86.6245V83.2885H242.137ZM245.174 86.0485V92.1445H244.004V86.0485H245.174ZM245.396 84.1645C245.396 84.2725 245.374 84.3765 245.33 84.4765C245.286 84.5725 245.226 84.6585 245.15 84.7345C245.078 84.8065 244.992 84.8645 244.892 84.9085C244.792 84.9485 244.688 84.9685 244.58 84.9685C244.472 84.9685 244.37 84.9485 244.274 84.9085C244.178 84.8645 244.092 84.8065 244.016 84.7345C243.944 84.6585 243.886 84.5725 243.842 84.4765C243.802 84.3765 243.782 84.2725 243.782 84.1645C243.782 84.0525 243.802 83.9485 243.842 83.8525C243.886 83.7525 243.944 83.6665 244.016 83.5945C244.092 83.5185 244.178 83.4605 244.274 83.4205C244.37 83.3765 244.472 83.3545 244.58 83.3545C244.688 83.3545 244.792 83.3765 244.892 83.4205C244.992 83.4605 245.078 83.5185 245.15 83.5945C245.226 83.6665 245.286 83.7525 245.33 83.8525C245.374 83.9485 245.396 84.0525 245.396 84.1645ZM248.146 86.8945C248.278 86.7545 248.416 86.6265 248.56 86.5105C248.704 86.3945 248.856 86.2965 249.016 86.2165C249.18 86.1325 249.354 86.0685 249.538 86.0245C249.726 85.9765 249.926 85.9525 250.138 85.9525C250.474 85.9525 250.768 86.0085 251.02 86.1205C251.276 86.2325 251.49 86.3905 251.662 86.5945C251.834 86.7945 251.964 87.0365 252.052 87.3205C252.14 87.6045 252.184 87.9185 252.184 88.2625V92.1445H251.008V88.2625C251.008 87.8265 250.908 87.4885 250.708 87.2485C250.508 87.0045 250.202 86.8825 249.79 86.8825C249.49 86.8825 249.208 86.9545 248.944 87.0985C248.684 87.2385 248.442 87.4305 248.218 87.6745V92.1445H247.048V86.0485H247.75C247.914 86.0485 248.016 86.1265 248.056 86.2825L248.146 86.8945ZM256.085 89.1025C256.293 89.1025 256.475 89.0745 256.631 89.0185C256.791 88.9625 256.923 88.8845 257.027 88.7845C257.135 88.6805 257.215 88.5565 257.267 88.4125C257.323 88.2685 257.351 88.1105 257.351 87.9385C257.351 87.5865 257.243 87.3065 257.027 87.0985C256.815 86.8865 256.501 86.7805 256.085 86.7805C255.673 86.7805 255.359 86.8865 255.143 87.0985C254.931 87.3065 254.825 87.5865 254.825 87.9385C254.825 88.1105 254.851 88.2685 254.903 88.4125C254.959 88.5525 255.039 88.6745 255.143 88.7785C255.251 88.8785 255.383 88.9585 255.539 89.0185C255.699 89.0745 255.881 89.1025 256.085 89.1025ZM257.951 92.4625C257.951 92.3185 257.911 92.2045 257.831 92.1205C257.751 92.0325 257.641 91.9645 257.501 91.9165C257.365 91.8645 257.205 91.8285 257.021 91.8085C256.837 91.7845 256.643 91.7665 256.439 91.7545C256.239 91.7425 256.033 91.7325 255.821 91.7245C255.609 91.7125 255.405 91.6925 255.209 91.6645C255.001 91.7685 254.829 91.8945 254.693 92.0425C254.561 92.1905 254.495 92.3645 254.495 92.5645C254.495 92.6925 254.527 92.8125 254.591 92.9245C254.659 93.0365 254.761 93.1325 254.897 93.2125C255.037 93.2965 255.211 93.3605 255.419 93.4045C255.631 93.4525 255.883 93.4765 256.175 93.4765C256.463 93.4765 256.717 93.4505 256.937 93.3985C257.157 93.3505 257.341 93.2805 257.489 93.1885C257.641 93.1005 257.755 92.9945 257.831 92.8705C257.911 92.7465 257.951 92.6105 257.951 92.4625ZM259.139 86.2765V86.7145C259.139 86.8585 259.049 86.9485 258.869 86.9845L258.215 87.0805C258.271 87.2045 258.315 87.3365 258.347 87.4765C258.379 87.6125 258.395 87.7565 258.395 87.9085C258.395 88.2085 258.337 88.4805 258.221 88.7245C258.105 88.9645 257.945 89.1705 257.741 89.3425C257.537 89.5145 257.293 89.6465 257.009 89.7385C256.729 89.8305 256.421 89.8765 256.085 89.8765C255.809 89.8765 255.551 89.8465 255.311 89.7865C255.191 89.8585 255.099 89.9385 255.035 90.0265C254.975 90.1105 254.945 90.1945 254.945 90.2785C254.945 90.4185 255.003 90.5225 255.119 90.5905C255.239 90.6585 255.393 90.7085 255.581 90.7405C255.773 90.7685 255.991 90.7865 256.235 90.7945C256.483 90.8025 256.733 90.8165 256.985 90.8365C257.241 90.8525 257.491 90.8845 257.735 90.9325C257.983 90.9765 258.201 91.0505 258.389 91.1545C258.581 91.2545 258.735 91.3945 258.851 91.5745C258.971 91.7505 259.031 91.9805 259.031 92.2645C259.031 92.5285 258.965 92.7845 258.833 93.0325C258.705 93.2805 258.517 93.5005 258.269 93.6925C258.021 93.8845 257.719 94.0385 257.363 94.1545C257.007 94.2705 256.603 94.3285 256.151 94.3285C255.699 94.3285 255.305 94.2845 254.969 94.1965C254.637 94.1085 254.359 93.9905 254.135 93.8425C253.915 93.6945 253.749 93.5225 253.637 93.3265C253.529 93.1305 253.475 92.9265 253.475 92.7145C253.475 92.4185 253.567 92.1685 253.751 91.9645C253.935 91.7565 254.189 91.5945 254.513 91.4785C254.337 91.3985 254.197 91.2905 254.093 91.1545C253.989 91.0145 253.937 90.8305 253.937 90.6025C253.937 90.5145 253.953 90.4245 253.985 90.3325C254.017 90.2365 254.065 90.1425 254.129 90.0505C254.197 89.9545 254.279 89.8645 254.375 89.7805C254.475 89.6965 254.589 89.6205 254.717 89.5525C254.417 89.3845 254.181 89.1625 254.009 88.8865C253.837 88.6065 253.751 88.2805 253.751 87.9085C253.751 87.6085 253.809 87.3385 253.925 87.0985C254.041 86.8585 254.201 86.6525 254.405 86.4805C254.613 86.3085 254.859 86.1765 255.143 86.0845C255.431 85.9925 255.745 85.9465 256.085 85.9465C256.613 85.9465 257.067 86.0565 257.447 86.2765H259.139ZM266.883 89.4385C266.407 89.4545 266.003 89.4925 265.671 89.5525C265.339 89.6085 265.069 89.6845 264.861 89.7805C264.653 89.8765 264.503 89.9905 264.411 90.1225C264.319 90.2505 264.273 90.3945 264.273 90.5545C264.273 90.7065 264.297 90.8385 264.345 90.9505C264.397 91.0585 264.465 91.1485 264.549 91.2205C264.637 91.2885 264.739 91.3385 264.855 91.3705C264.971 91.4025 265.097 91.4185 265.233 91.4185C265.413 91.4185 265.577 91.4005 265.725 91.3645C265.877 91.3285 266.019 91.2785 266.151 91.2145C266.283 91.1465 266.409 91.0645 266.529 90.9685C266.649 90.8725 266.767 90.7625 266.883 90.6385V89.4385ZM263.451 86.9005C263.791 86.5765 264.159 86.3345 264.555 86.1745C264.955 86.0145 265.393 85.9345 265.869 85.9345C266.217 85.9345 266.525 85.9925 266.793 86.1085C267.061 86.2205 267.287 86.3785 267.471 86.5825C267.655 86.7865 267.793 87.0305 267.885 87.3145C267.981 87.5985 268.029 87.9125 268.029 88.2565V92.1445H267.507C267.391 92.1445 267.303 92.1265 267.243 92.0905C267.183 92.0505 267.135 91.9785 267.099 91.8745L266.973 91.3405C266.817 91.4845 266.663 91.6125 266.511 91.7245C266.359 91.8325 266.199 91.9265 266.031 92.0065C265.867 92.0825 265.691 92.1405 265.503 92.1805C265.315 92.2205 265.107 92.2405 264.879 92.2405C264.639 92.2405 264.413 92.2085 264.201 92.1445C263.993 92.0765 263.811 91.9745 263.655 91.8385C263.499 91.7025 263.375 91.5325 263.283 91.3285C263.195 91.1245 263.151 90.8865 263.151 90.6145C263.151 90.3745 263.215 90.1445 263.343 89.9245C263.475 89.7005 263.687 89.5005 263.979 89.3245C264.275 89.1485 264.659 89.0045 265.131 88.8925C265.607 88.7805 266.191 88.7165 266.883 88.7005V88.2565C266.883 87.7965 266.785 87.4525 266.589 87.2245C266.393 86.9965 266.105 86.8825 265.725 86.8825C265.469 86.8825 265.253 86.9145 265.077 86.9785C264.905 87.0425 264.755 87.1145 264.627 87.1945C264.503 87.2705 264.393 87.3405 264.297 87.4045C264.205 87.4685 264.109 87.5005 264.009 87.5005C263.929 87.5005 263.859 87.4785 263.799 87.4345C263.743 87.3905 263.697 87.3385 263.661 87.2785L263.451 86.9005ZM277.263 87.1885C277.227 87.2325 277.191 87.2685 277.155 87.2965C277.123 87.3205 277.075 87.3325 277.011 87.3325C276.947 87.3325 276.879 87.3085 276.807 87.2605C276.739 87.2085 276.651 87.1545 276.543 87.0985C276.439 87.0385 276.311 86.9845 276.159 86.9365C276.011 86.8845 275.827 86.8585 275.607 86.8585C275.319 86.8585 275.065 86.9105 274.845 87.0145C274.625 87.1185 274.441 87.2665 274.293 87.4585C274.149 87.6505 274.039 87.8845 273.963 88.1605C273.887 88.4365 273.849 88.7465 273.849 89.0905C273.849 89.4465 273.889 89.7645 273.969 90.0445C274.049 90.3205 274.163 90.5545 274.311 90.7465C274.459 90.9345 274.639 91.0785 274.851 91.1785C275.063 91.2745 275.299 91.3225 275.559 91.3225C275.811 91.3225 276.019 91.2925 276.183 91.2325C276.347 91.1685 276.483 91.1005 276.591 91.0285C276.699 90.9565 276.789 90.8905 276.861 90.8305C276.933 90.7665 277.007 90.7345 277.083 90.7345C277.179 90.7345 277.253 90.7705 277.305 90.8425L277.641 91.2745C277.501 91.4465 277.343 91.5925 277.167 91.7125C276.995 91.8325 276.811 91.9305 276.615 92.0065C276.419 92.0825 276.213 92.1385 275.997 92.1745C275.785 92.2105 275.569 92.2285 275.349 92.2285C274.969 92.2285 274.613 92.1585 274.281 92.0185C273.953 91.8785 273.667 91.6745 273.423 91.4065C273.183 91.1385 272.993 90.8105 272.853 90.4225C272.713 90.0305 272.643 89.5865 272.643 89.0905C272.643 88.6385 272.705 88.2205 272.829 87.8365C272.957 87.4525 273.143 87.1225 273.387 86.8465C273.635 86.5665 273.939 86.3485 274.299 86.1925C274.659 86.0325 275.071 85.9525 275.535 85.9525C275.971 85.9525 276.355 86.0225 276.687 86.1625C277.019 86.3025 277.315 86.5005 277.575 86.7565L277.263 87.1885ZM281.405 85.9525C281.853 85.9525 282.257 86.0265 282.617 86.1745C282.981 86.3185 283.289 86.5285 283.541 86.8045C283.797 87.0765 283.993 87.4065 284.129 87.7945C284.265 88.1785 284.333 88.6105 284.333 89.0905C284.333 89.5705 284.265 90.0045 284.129 90.3925C283.993 90.7805 283.797 91.1105 283.541 91.3825C283.289 91.6545 282.981 91.8645 282.617 92.0125C282.257 92.1565 281.853 92.2285 281.405 92.2285C280.953 92.2285 280.545 92.1565 280.181 92.0125C279.821 91.8645 279.513 91.6545 279.257 91.3825C279.001 91.1105 278.803 90.7805 278.663 90.3925C278.527 90.0045 278.459 89.5705 278.459 89.0905C278.459 88.6105 278.527 88.1785 278.663 87.7945C278.803 87.4065 279.001 87.0765 279.257 86.8045C279.513 86.5285 279.821 86.3185 280.181 86.1745C280.545 86.0265 280.953 85.9525 281.405 85.9525ZM281.405 91.3165C281.981 91.3165 282.411 91.1225 282.695 90.7345C282.979 90.3465 283.121 89.8005 283.121 89.0965C283.121 88.3925 282.979 87.8465 282.695 87.4585C282.411 87.0665 281.981 86.8705 281.405 86.8705C280.821 86.8705 280.385 87.0665 280.097 87.4585C279.813 87.8465 279.671 88.3925 279.671 89.0965C279.671 89.8005 279.813 90.3465 280.097 90.7345C280.385 91.1225 280.821 91.3165 281.405 91.3165ZM285.819 92.1445V86.0485H286.521C286.685 86.0485 286.787 86.1265 286.827 86.2825L286.911 86.8645C287.135 86.5965 287.383 86.3785 287.655 86.2105C287.931 86.0385 288.253 85.9525 288.621 85.9525C289.025 85.9525 289.353 86.0645 289.605 86.2885C289.857 86.5085 290.041 86.8085 290.157 87.1885C290.245 86.9725 290.359 86.7865 290.499 86.6305C290.639 86.4745 290.795 86.3465 290.967 86.2465C291.139 86.1465 291.321 86.0725 291.513 86.0245C291.709 85.9765 291.907 85.9525 292.107 85.9525C292.431 85.9525 292.719 86.0045 292.971 86.1085C293.227 86.2085 293.443 86.3565 293.619 86.5525C293.795 86.7485 293.929 86.9905 294.021 87.2785C294.113 87.5665 294.159 87.8945 294.159 88.2625V92.1445H292.983V88.2625C292.983 87.8065 292.883 87.4625 292.683 87.2305C292.487 86.9985 292.199 86.8825 291.819 86.8825C291.651 86.8825 291.491 86.9125 291.339 86.9725C291.187 87.0285 291.053 87.1145 290.937 87.2305C290.825 87.3465 290.735 87.4905 290.667 87.6625C290.603 87.8345 290.571 88.0345 290.571 88.2625V92.1445H289.395V88.2625C289.395 87.7905 289.301 87.4425 289.113 87.2185C288.925 86.9945 288.649 86.8825 288.285 86.8825C288.033 86.8825 287.799 86.9485 287.583 87.0805C287.367 87.2125 287.169 87.3925 286.989 87.6205V92.1445H285.819ZM295.914 92.1445V86.0485H296.616C296.78 86.0485 296.882 86.1265 296.922 86.2825L297.006 86.8645C297.23 86.5965 297.478 86.3785 297.75 86.2105C298.026 86.0385 298.348 85.9525 298.716 85.9525C299.12 85.9525 299.448 86.0645 299.7 86.2885C299.952 86.5085 300.136 86.8085 300.252 87.1885C300.34 86.9725 300.454 86.7865 300.594 86.6305C300.734 86.4745 300.89 86.3465 301.062 86.2465C301.234 86.1465 301.416 86.0725 301.608 86.0245C301.804 85.9765 302.002 85.9525 302.202 85.9525C302.526 85.9525 302.814 86.0045 303.066 86.1085C303.322 86.2085 303.538 86.3565 303.714 86.5525C303.89 86.7485 304.024 86.9905 304.116 87.2785C304.208 87.5665 304.254 87.8945 304.254 88.2625V92.1445H303.078V88.2625C303.078 87.8065 302.978 87.4625 302.778 87.2305C302.582 86.9985 302.294 86.8825 301.914 86.8825C301.746 86.8825 301.586 86.9125 301.434 86.9725C301.282 87.0285 301.148 87.1145 301.032 87.2305C300.92 87.3465 300.83 87.4905 300.762 87.6625C300.698 87.8345 300.666 88.0345 300.666 88.2625V92.1445H299.49V88.2625C299.49 87.7905 299.396 87.4425 299.208 87.2185C299.02 86.9945 298.744 86.8825 298.38 86.8825C298.128 86.8825 297.894 86.9485 297.678 87.0805C297.462 87.2125 297.264 87.3925 297.084 87.6205V92.1445H295.914ZM311.078 86.0485V92.1445H310.376C310.216 92.1445 310.112 92.0665 310.064 91.9105L309.98 91.2985C309.848 91.4385 309.71 91.5665 309.566 91.6825C309.422 91.7985 309.268 91.8985 309.104 91.9825C308.94 92.0625 308.766 92.1245 308.582 92.1685C308.398 92.2165 308.2 92.2405 307.988 92.2405C307.652 92.2405 307.356 92.1845 307.1 92.0725C306.848 91.9605 306.636 91.8045 306.464 91.6045C306.292 91.4005 306.162 91.1565 306.074 90.8725C305.986 90.5885 305.942 90.2745 305.942 89.9305V86.0485H307.118V89.9305C307.118 90.3665 307.218 90.7065 307.418 90.9505C307.618 91.1905 307.924 91.3105 308.336 91.3105C308.636 91.3105 308.916 91.2405 309.176 91.1005C309.436 90.9565 309.68 90.7605 309.908 90.5125V86.0485H311.078ZM313.989 86.8945C314.121 86.7545 314.259 86.6265 314.403 86.5105C314.547 86.3945 314.699 86.2965 314.859 86.2165C315.023 86.1325 315.197 86.0685 315.381 86.0245C315.569 85.9765 315.769 85.9525 315.981 85.9525C316.317 85.9525 316.611 86.0085 316.863 86.1205C317.119 86.2325 317.333 86.3905 317.505 86.5945C317.677 86.7945 317.807 87.0365 317.895 87.3205C317.983 87.6045 318.027 87.9185 318.027 88.2625V92.1445H316.851V88.2625C316.851 87.8265 316.751 87.4885 316.551 87.2485C316.351 87.0045 316.045 86.8825 315.633 86.8825C315.333 86.8825 315.051 86.9545 314.787 87.0985C314.527 87.2385 314.285 87.4305 314.061 87.6745V92.1445H312.891V86.0485H313.593C313.757 86.0485 313.859 86.1265 313.899 86.2825L313.989 86.8945ZM321.01 86.0485V92.1445H319.84V86.0485H321.01ZM321.232 84.1645C321.232 84.2725 321.21 84.3765 321.166 84.4765C321.122 84.5725 321.062 84.6585 320.986 84.7345C320.914 84.8065 320.828 84.8645 320.728 84.9085C320.628 84.9485 320.524 84.9685 320.416 84.9685C320.308 84.9685 320.206 84.9485 320.11 84.9085C320.014 84.8645 319.928 84.8065 319.852 84.7345C319.78 84.6585 319.722 84.5725 319.678 84.4765C319.638 84.3765 319.618 84.2725 319.618 84.1645C319.618 84.0525 319.638 83.9485 319.678 83.8525C319.722 83.7525 319.78 83.6665 319.852 83.5945C319.928 83.5185 320.014 83.4605 320.11 83.4205C320.206 83.3765 320.308 83.3545 320.416 83.3545C320.524 83.3545 320.628 83.3765 320.728 83.4205C320.828 83.4605 320.914 83.5185 320.986 83.5945C321.062 83.6665 321.122 83.7525 321.166 83.8525C321.21 83.9485 321.232 84.0525 321.232 84.1645ZM324.792 92.2405C324.3 92.2405 323.92 92.1025 323.652 91.8265C323.388 91.5505 323.256 91.1565 323.256 90.6445V86.9965H322.548C322.48 86.9965 322.422 86.9765 322.374 86.9365C322.33 86.8925 322.308 86.8285 322.308 86.7445V86.2705L323.298 86.1325L323.562 84.3145C323.578 84.2465 323.608 84.1945 323.652 84.1585C323.7 84.1185 323.76 84.0985 323.832 84.0985H324.426V86.1445H326.154V86.9965H324.426V90.5665C324.426 90.8065 324.484 90.9865 324.6 91.1065C324.72 91.2225 324.872 91.2805 325.056 91.2805C325.164 91.2805 325.256 91.2665 325.332 91.2385C325.412 91.2105 325.48 91.1805 325.536 91.1485C325.592 91.1125 325.64 91.0805 325.68 91.0525C325.72 91.0245 325.756 91.0105 325.788 91.0105C325.828 91.0105 325.858 91.0205 325.878 91.0405C325.902 91.0565 325.926 91.0845 325.95 91.1245L326.298 91.6885C326.106 91.8645 325.878 92.0005 325.614 92.0965C325.35 92.1925 325.076 92.2405 324.792 92.2405ZM332.739 86.0485L329.355 93.9145C329.319 94.0025 329.271 94.0705 329.211 94.1185C329.151 94.1665 329.063 94.1905 328.947 94.1905H328.077L329.193 91.7605L326.691 86.0485H327.711C327.811 86.0485 327.889 86.0725 327.945 86.1205C328.001 86.1685 328.041 86.2225 328.065 86.2825L329.613 89.9425C329.645 90.0345 329.675 90.1285 329.703 90.2245C329.735 90.3165 329.761 90.4085 329.781 90.5005C329.809 90.4045 329.839 90.3105 329.871 90.2185C329.903 90.1225 329.937 90.0285 329.973 89.9365L331.467 86.2825C331.495 86.2145 331.539 86.1585 331.599 86.1145C331.659 86.0705 331.727 86.0485 331.803 86.0485H332.739ZM339.334 85.9525C339.782 85.9525 340.186 86.0265 340.546 86.1745C340.91 86.3185 341.218 86.5285 341.47 86.8045C341.726 87.0765 341.922 87.4065 342.058 87.7945C342.194 88.1785 342.262 88.6105 342.262 89.0905C342.262 89.5705 342.194 90.0045 342.058 90.3925C341.922 90.7805 341.726 91.1105 341.47 91.3825C341.218 91.6545 340.91 91.8645 340.546 92.0125C340.186 92.1565 339.782 92.2285 339.334 92.2285C338.882 92.2285 338.474 92.1565 338.11 92.0125C337.75 91.8645 337.442 91.6545 337.186 91.3825C336.93 91.1105 336.732 90.7805 336.592 90.3925C336.456 90.0045 336.388 89.5705 336.388 89.0905C336.388 88.6105 336.456 88.1785 336.592 87.7945C336.732 87.4065 336.93 87.0765 337.186 86.8045C337.442 86.5285 337.75 86.3185 338.11 86.1745C338.474 86.0265 338.882 85.9525 339.334 85.9525ZM339.334 91.3165C339.91 91.3165 340.34 91.1225 340.624 90.7345C340.908 90.3465 341.05 89.8005 341.05 89.0965C341.05 88.3925 340.908 87.8465 340.624 87.4585C340.34 87.0665 339.91 86.8705 339.334 86.8705C338.75 86.8705 338.314 87.0665 338.026 87.4585C337.742 87.8465 337.6 88.3925 337.6 89.0965C337.6 89.8005 337.742 90.3465 338.026 90.7345C338.314 91.1225 338.75 91.3165 339.334 91.3165ZM344.009 92.1445V87.0085L343.373 86.9305C343.281 86.9105 343.205 86.8785 343.145 86.8345C343.089 86.7865 343.061 86.7185 343.061 86.6305V86.1445H344.009V85.5925C344.009 85.2445 344.059 84.9345 344.159 84.6625C344.259 84.3905 344.401 84.1605 344.585 83.9725C344.773 83.7805 344.997 83.6365 345.257 83.5405C345.521 83.4405 345.817 83.3905 346.145 83.3905C346.421 83.3905 346.675 83.4305 346.907 83.5105L346.883 84.0985C346.879 84.1505 346.863 84.1905 346.835 84.2185C346.807 84.2425 346.769 84.2605 346.721 84.2725C346.677 84.2845 346.621 84.2925 346.553 84.2965C346.489 84.2965 346.419 84.2965 346.343 84.2965C346.163 84.2965 345.999 84.3185 345.851 84.3625C345.703 84.4065 345.577 84.4805 345.473 84.5845C345.369 84.6885 345.289 84.8265 345.233 84.9985C345.177 85.1665 345.149 85.3765 345.149 85.6285V86.1445H346.859V86.9965H345.185V92.1445H344.009ZM352.18 90.6445C352.372 90.8965 352.578 91.0725 352.798 91.1725C353.022 91.2725 353.272 91.3225 353.548 91.3225C354.084 91.3225 354.498 91.1305 354.79 90.7465C355.086 90.3585 355.234 89.7945 355.234 89.0545C355.234 88.6665 355.2 88.3365 355.132 88.0645C355.068 87.7885 354.972 87.5645 354.844 87.3925C354.72 87.2165 354.566 87.0885 354.382 87.0085C354.198 86.9245 353.99 86.8825 353.758 86.8825C353.418 86.8825 353.122 86.9585 352.87 87.1105C352.622 87.2625 352.392 87.4785 352.18 87.7585V90.6445ZM352.12 86.9605C352.248 86.8085 352.384 86.6705 352.528 86.5465C352.676 86.4185 352.834 86.3105 353.002 86.2225C353.17 86.1305 353.348 86.0605 353.536 86.0125C353.728 85.9605 353.932 85.9345 354.148 85.9345C354.496 85.9345 354.81 86.0025 355.09 86.1385C355.374 86.2745 355.616 86.4745 355.816 86.7385C356.016 87.0025 356.17 87.3285 356.278 87.7165C356.39 88.1045 356.446 88.5505 356.446 89.0545C356.446 89.5065 356.384 89.9265 356.26 90.3145C356.14 90.6985 355.966 91.0325 355.738 91.3165C355.514 91.6005 355.238 91.8245 354.91 91.9885C354.586 92.1485 354.22 92.2285 353.812 92.2285C353.448 92.2285 353.136 92.1685 352.876 92.0485C352.616 91.9285 352.384 91.7605 352.18 91.5445V94.1905H351.01V86.0485H351.712C351.876 86.0485 351.978 86.1265 352.018 86.2825L352.12 86.9605ZM359.044 87.2185C359.24 86.8185 359.476 86.5045 359.752 86.2765C360.028 86.0485 360.36 85.9345 360.748 85.9345C360.88 85.9345 361.004 85.9505 361.12 85.9825C361.24 86.0105 361.344 86.0545 361.432 86.1145L361.354 86.9965C361.326 87.1045 361.26 87.1585 361.156 87.1585C361.1 87.1585 361.016 87.1485 360.904 87.1285C360.792 87.1045 360.672 87.0925 360.544 87.0925C360.356 87.0925 360.19 87.1205 360.046 87.1765C359.902 87.2285 359.772 87.3085 359.656 87.4165C359.544 87.5205 359.444 87.6505 359.356 87.8065C359.268 87.9585 359.186 88.1325 359.11 88.3285V92.1445H357.94V86.0485H358.612C358.74 86.0485 358.826 86.0725 358.87 86.1205C358.918 86.1645 358.952 86.2445 358.972 86.3605L359.044 87.2185ZM365.697 89.4385C365.221 89.4545 364.817 89.4925 364.485 89.5525C364.153 89.6085 363.883 89.6845 363.675 89.7805C363.467 89.8765 363.317 89.9905 363.225 90.1225C363.133 90.2505 363.087 90.3945 363.087 90.5545C363.087 90.7065 363.111 90.8385 363.159 90.9505C363.211 91.0585 363.279 91.1485 363.363 91.2205C363.451 91.2885 363.553 91.3385 363.669 91.3705C363.785 91.4025 363.911 91.4185 364.047 91.4185C364.227 91.4185 364.391 91.4005 364.539 91.3645C364.691 91.3285 364.833 91.2785 364.965 91.2145C365.097 91.1465 365.223 91.0645 365.343 90.9685C365.463 90.8725 365.581 90.7625 365.697 90.6385V89.4385ZM362.265 86.9005C362.605 86.5765 362.973 86.3345 363.369 86.1745C363.769 86.0145 364.207 85.9345 364.683 85.9345C365.031 85.9345 365.339 85.9925 365.607 86.1085C365.875 86.2205 366.101 86.3785 366.285 86.5825C366.469 86.7865 366.607 87.0305 366.699 87.3145C366.795 87.5985 366.843 87.9125 366.843 88.2565V92.1445H366.321C366.205 92.1445 366.117 92.1265 366.057 92.0905C365.997 92.0505 365.949 91.9785 365.913 91.8745L365.787 91.3405C365.631 91.4845 365.477 91.6125 365.325 91.7245C365.173 91.8325 365.013 91.9265 364.845 92.0065C364.681 92.0825 364.505 92.1405 364.317 92.1805C364.129 92.2205 363.921 92.2405 363.693 92.2405C363.453 92.2405 363.227 92.2085 363.015 92.1445C362.807 92.0765 362.625 91.9745 362.469 91.8385C362.313 91.7025 362.189 91.5325 362.097 91.3285C362.009 91.1245 361.965 90.8865 361.965 90.6145C361.965 90.3745 362.029 90.1445 362.157 89.9245C362.289 89.7005 362.501 89.5005 362.793 89.3245C363.089 89.1485 363.473 89.0045 363.945 88.8925C364.421 88.7805 365.005 88.7165 365.697 88.7005V88.2565C365.697 87.7965 365.599 87.4525 365.403 87.2245C365.207 86.9965 364.919 86.8825 364.539 86.8825C364.283 86.8825 364.067 86.9145 363.891 86.9785C363.719 87.0425 363.569 87.1145 363.441 87.1945C363.317 87.2705 363.207 87.3405 363.111 87.4045C363.019 87.4685 362.923 87.5005 362.823 87.5005C362.743 87.5005 362.673 87.4785 362.613 87.4345C362.557 87.3905 362.511 87.3385 362.475 87.2785L362.265 86.9005ZM372.861 87.1885C372.825 87.2325 372.789 87.2685 372.753 87.2965C372.721 87.3205 372.673 87.3325 372.609 87.3325C372.545 87.3325 372.477 87.3085 372.405 87.2605C372.337 87.2085 372.249 87.1545 372.141 87.0985C372.037 87.0385 371.909 86.9845 371.757 86.9365C371.609 86.8845 371.425 86.8585 371.205 86.8585C370.917 86.8585 370.663 86.9105 370.443 87.0145C370.223 87.1185 370.039 87.2665 369.891 87.4585C369.747 87.6505 369.637 87.8845 369.561 88.1605C369.485 88.4365 369.447 88.7465 369.447 89.0905C369.447 89.4465 369.487 89.7645 369.567 90.0445C369.647 90.3205 369.761 90.5545 369.909 90.7465C370.057 90.9345 370.237 91.0785 370.449 91.1785C370.661 91.2745 370.897 91.3225 371.157 91.3225C371.409 91.3225 371.617 91.2925 371.781 91.2325C371.945 91.1685 372.081 91.1005 372.189 91.0285C372.297 90.9565 372.387 90.8905 372.459 90.8305C372.531 90.7665 372.605 90.7345 372.681 90.7345C372.777 90.7345 372.851 90.7705 372.903 90.8425L373.239 91.2745C373.099 91.4465 372.941 91.5925 372.765 91.7125C372.593 91.8325 372.409 91.9305 372.213 92.0065C372.017 92.0825 371.811 92.1385 371.595 92.1745C371.383 92.2105 371.167 92.2285 370.947 92.2285C370.567 92.2285 370.211 92.1585 369.879 92.0185C369.551 91.8785 369.265 91.6745 369.021 91.4065C368.781 91.1385 368.591 90.8105 368.451 90.4225C368.311 90.0305 368.241 89.5865 368.241 89.0905C368.241 88.6385 368.303 88.2205 368.427 87.8365C368.555 87.4525 368.741 87.1225 368.985 86.8465C369.233 86.5665 369.537 86.3485 369.897 86.1925C370.257 86.0325 370.669 85.9525 371.133 85.9525C371.569 85.9525 371.953 86.0225 372.285 86.1625C372.617 86.3025 372.913 86.5005 373.173 86.7565L372.861 87.1885ZM380.29 92.1445H379.114V86.9965H376.054V90.5665C376.054 90.8065 376.112 90.9865 376.228 91.1065C376.348 91.2225 376.5 91.2805 376.684 91.2805C376.792 91.2805 376.884 91.2665 376.96 91.2385C377.04 91.2105 377.108 91.1805 377.164 91.1485C377.22 91.1125 377.268 91.0805 377.308 91.0525C377.348 91.0245 377.384 91.0105 377.416 91.0105C377.456 91.0105 377.486 91.0205 377.506 91.0405C377.53 91.0565 377.554 91.0845 377.578 91.1245L377.926 91.6885C377.734 91.8645 377.506 92.0005 377.242 92.0965C376.978 92.1925 376.704 92.2405 376.42 92.2405C375.928 92.2405 375.548 92.1025 375.28 91.8265C375.016 91.5505 374.884 91.1565 374.884 90.6445V86.9965H374.176C374.108 86.9965 374.05 86.9765 374.002 86.9365C373.958 86.8925 373.936 86.8285 373.936 86.7445V86.2705L374.932 86.1325L375.19 84.3145C375.206 84.2465 375.236 84.1945 375.28 84.1585C375.328 84.1185 375.388 84.0985 375.46 84.0985H376.054V86.1445H380.29V92.1445ZM380.554 84.1285C380.554 84.2365 380.532 84.3405 380.488 84.4405C380.444 84.5365 380.384 84.6225 380.308 84.6985C380.236 84.7705 380.15 84.8285 380.05 84.8725C379.95 84.9125 379.846 84.9325 379.738 84.9325C379.63 84.9325 379.528 84.9125 379.432 84.8725C379.336 84.8285 379.25 84.7705 379.174 84.6985C379.102 84.6225 379.044 84.5365 379 84.4405C378.96 84.3405 378.94 84.2365 378.94 84.1285C378.94 84.0165 378.96 83.9105 379 83.8105C379.044 83.7105 379.102 83.6245 379.174 83.5525C379.25 83.4765 379.336 83.4185 379.432 83.3785C379.528 83.3345 379.63 83.3125 379.738 83.3125C379.846 83.3125 379.95 83.3345 380.05 83.3785C380.15 83.4185 380.236 83.4765 380.308 83.5525C380.384 83.6245 380.444 83.7105 380.488 83.8105C380.532 83.9105 380.554 84.0165 380.554 84.1285ZM386.44 87.1885C386.404 87.2325 386.368 87.2685 386.332 87.2965C386.3 87.3205 386.252 87.3325 386.188 87.3325C386.124 87.3325 386.056 87.3085 385.984 87.2605C385.916 87.2085 385.828 87.1545 385.72 87.0985C385.616 87.0385 385.488 86.9845 385.336 86.9365C385.188 86.8845 385.004 86.8585 384.784 86.8585C384.496 86.8585 384.242 86.9105 384.022 87.0145C383.802 87.1185 383.618 87.2665 383.47 87.4585C383.326 87.6505 383.216 87.8845 383.14 88.1605C383.064 88.4365 383.026 88.7465 383.026 89.0905C383.026 89.4465 383.066 89.7645 383.146 90.0445C383.226 90.3205 383.34 90.5545 383.488 90.7465C383.636 90.9345 383.816 91.0785 384.028 91.1785C384.24 91.2745 384.476 91.3225 384.736 91.3225C384.988 91.3225 385.196 91.2925 385.36 91.2325C385.524 91.1685 385.66 91.1005 385.768 91.0285C385.876 90.9565 385.966 90.8905 386.038 90.8305C386.11 90.7665 386.184 90.7345 386.26 90.7345C386.356 90.7345 386.43 90.7705 386.482 90.8425L386.818 91.2745C386.678 91.4465 386.52 91.5925 386.344 91.7125C386.172 91.8325 385.988 91.9305 385.792 92.0065C385.596 92.0825 385.39 92.1385 385.174 92.1745C384.962 92.2105 384.746 92.2285 384.526 92.2285C384.146 92.2285 383.79 92.1585 383.458 92.0185C383.13 91.8785 382.844 91.6745 382.6 91.4065C382.36 91.1385 382.17 90.8105 382.03 90.4225C381.89 90.0305 381.82 89.5865 381.82 89.0905C381.82 88.6385 381.882 88.2205 382.006 87.8365C382.134 87.4525 382.32 87.1225 382.564 86.8465C382.812 86.5665 383.116 86.3485 383.476 86.1925C383.836 86.0325 384.248 85.9525 384.712 85.9525C385.148 85.9525 385.532 86.0225 385.864 86.1625C386.196 86.3025 386.492 86.5005 386.752 86.7565L386.44 87.1885ZM392.023 88.4185C392.023 88.1865 391.989 87.9725 391.921 87.7765C391.857 87.5805 391.761 87.4105 391.633 87.2665C391.505 87.1225 391.349 87.0105 391.165 86.9305C390.981 86.8505 390.769 86.8105 390.529 86.8105C390.037 86.8105 389.649 86.9525 389.365 87.2365C389.085 87.5205 388.907 87.9145 388.831 88.4185H392.023ZM392.989 91.2745C392.845 91.4425 392.679 91.5885 392.491 91.7125C392.303 91.8325 392.103 91.9305 391.891 92.0065C391.679 92.0825 391.459 92.1385 391.231 92.1745C391.007 92.2105 390.785 92.2285 390.565 92.2285C390.145 92.2285 389.755 92.1585 389.395 92.0185C389.039 91.8745 388.729 91.6665 388.465 91.3945C388.205 91.1185 388.001 90.7785 387.853 90.3745C387.709 89.9665 387.637 89.4985 387.637 88.9705C387.637 88.5465 387.703 88.1525 387.835 87.7885C387.967 87.4205 388.155 87.1005 388.399 86.8285C388.647 86.5565 388.949 86.3425 389.305 86.1865C389.661 86.0305 390.061 85.9525 390.505 85.9525C390.877 85.9525 391.219 86.0145 391.531 86.1385C391.847 86.2585 392.119 86.4345 392.347 86.6665C392.575 86.8985 392.753 87.1845 392.881 87.5245C393.013 87.8645 393.079 88.2525 393.079 88.6885C393.079 88.8685 393.059 88.9905 393.019 89.0545C392.979 89.1145 392.905 89.1445 392.797 89.1445H388.801C388.813 89.5085 388.865 89.8265 388.957 90.0985C389.049 90.3665 389.175 90.5905 389.335 90.7705C389.499 90.9505 389.693 91.0845 389.917 91.1725C390.141 91.2605 390.391 91.3045 390.667 91.3045C390.927 91.3045 391.151 91.2745 391.339 91.2145C391.531 91.1545 391.695 91.0905 391.831 91.0225C391.971 90.9505 392.087 90.8845 392.179 90.8245C392.275 90.7645 392.359 90.7345 392.431 90.7345C392.527 90.7345 392.601 90.7705 392.653 90.8425L392.989 91.2745ZM401.008 89.4385C400.532 89.4545 400.128 89.4925 399.796 89.5525C399.464 89.6085 399.194 89.6845 398.986 89.7805C398.778 89.8765 398.628 89.9905 398.536 90.1225C398.444 90.2505 398.398 90.3945 398.398 90.5545C398.398 90.7065 398.422 90.8385 398.47 90.9505C398.522 91.0585 398.59 91.1485 398.674 91.2205C398.762 91.2885 398.864 91.3385 398.98 91.3705C399.096 91.4025 399.222 91.4185 399.358 91.4185C399.538 91.4185 399.702 91.4005 399.85 91.3645C400.002 91.3285 400.144 91.2785 400.276 91.2145C400.408 91.1465 400.534 91.0645 400.654 90.9685C400.774 90.8725 400.892 90.7625 401.008 90.6385V89.4385ZM397.576 86.9005C397.916 86.5765 398.284 86.3345 398.68 86.1745C399.08 86.0145 399.518 85.9345 399.994 85.9345C400.342 85.9345 400.65 85.9925 400.918 86.1085C401.186 86.2205 401.412 86.3785 401.596 86.5825C401.78 86.7865 401.918 87.0305 402.01 87.3145C402.106 87.5985 402.154 87.9125 402.154 88.2565V92.1445H401.632C401.516 92.1445 401.428 92.1265 401.368 92.0905C401.308 92.0505 401.26 91.9785 401.224 91.8745L401.098 91.3405C400.942 91.4845 400.788 91.6125 400.636 91.7245C400.484 91.8325 400.324 91.9265 400.156 92.0065C399.992 92.0825 399.816 92.1405 399.628 92.1805C399.44 92.2205 399.232 92.2405 399.004 92.2405C398.764 92.2405 398.538 92.2085 398.326 92.1445C398.118 92.0765 397.936 91.9745 397.78 91.8385C397.624 91.7025 397.5 91.5325 397.408 91.3285C397.32 91.1245 397.276 90.8865 397.276 90.6145C397.276 90.3745 397.34 90.1445 397.468 89.9245C397.6 89.7005 397.812 89.5005 398.104 89.3245C398.4 89.1485 398.784 89.0045 399.256 88.8925C399.732 88.7805 400.316 88.7165 401.008 88.7005V88.2565C401.008 87.7965 400.91 87.4525 400.714 87.2245C400.518 86.9965 400.23 86.8825 399.85 86.8825C399.594 86.8825 399.378 86.9145 399.202 86.9785C399.03 87.0425 398.88 87.1145 398.752 87.1945C398.628 87.2705 398.518 87.3405 398.422 87.4045C398.33 87.4685 398.234 87.5005 398.134 87.5005C398.054 87.5005 397.984 87.4785 397.924 87.4345C397.868 87.3905 397.822 87.3385 397.786 87.2785L397.576 86.9005ZM404.998 86.8945C405.13 86.7545 405.268 86.6265 405.412 86.5105C405.556 86.3945 405.708 86.2965 405.868 86.2165C406.032 86.1325 406.206 86.0685 406.39 86.0245C406.578 85.9765 406.778 85.9525 406.99 85.9525C407.326 85.9525 407.62 86.0085 407.872 86.1205C408.128 86.2325 408.342 86.3905 408.514 86.5945C408.686 86.7945 408.816 87.0365 408.904 87.3205C408.992 87.6045 409.036 87.9185 409.036 88.2625V92.1445H407.86V88.2625C407.86 87.8265 407.76 87.4885 407.56 87.2485C407.36 87.0045 407.054 86.8825 406.642 86.8825C406.342 86.8825 406.06 86.9545 405.796 87.0985C405.536 87.2385 405.294 87.4305 405.07 87.6745V92.1445H403.9V86.0485H404.602C404.766 86.0485 404.868 86.1265 404.908 86.2825L404.998 86.8945ZM414.725 87.5245C414.533 87.2725 414.325 87.0965 414.101 86.9965C413.881 86.8965 413.633 86.8465 413.357 86.8465C412.821 86.8465 412.405 87.0405 412.109 87.4285C411.817 87.8125 411.671 88.3745 411.671 89.1145C411.671 89.5025 411.703 89.8345 411.767 90.1105C411.835 90.3825 411.931 90.6065 412.055 90.7825C412.183 90.9545 412.339 91.0825 412.523 91.1665C412.707 91.2465 412.915 91.2865 413.147 91.2865C413.487 91.2865 413.781 91.2105 414.029 91.0585C414.277 90.9065 414.509 90.6925 414.725 90.4165V87.5245ZM415.901 83.2885V92.1445H415.193C415.029 92.1445 414.927 92.0665 414.887 91.9105L414.785 91.2085C414.525 91.5165 414.229 91.7645 413.897 91.9525C413.569 92.1365 413.189 92.2285 412.757 92.2285C412.409 92.2285 412.093 92.1605 411.809 92.0245C411.529 91.8885 411.289 91.6905 411.089 91.4305C410.889 91.1665 410.735 90.8405 410.627 90.4525C410.519 90.0645 410.465 89.6185 410.465 89.1145C410.465 88.6625 410.525 88.2425 410.645 87.8545C410.765 87.4665 410.939 87.1305 411.167 86.8465C411.395 86.5625 411.671 86.3405 411.995 86.1805C412.319 86.0165 412.685 85.9345 413.093 85.9345C413.461 85.9345 413.773 85.9945 414.029 86.1145C414.289 86.2345 414.521 86.4045 414.725 86.6245V83.2885H415.901ZM422.836 92.2405C422.344 92.2405 421.964 92.1025 421.696 91.8265C421.432 91.5505 421.3 91.1565 421.3 90.6445V86.9965H420.592C420.524 86.9965 420.466 86.9765 420.418 86.9365C420.374 86.8925 420.352 86.8285 420.352 86.7445V86.2705L421.342 86.1325L421.606 84.3145C421.622 84.2465 421.652 84.1945 421.696 84.1585C421.744 84.1185 421.804 84.0985 421.876 84.0985H422.47V86.1445H424.198V86.9965H422.47V90.5665C422.47 90.8065 422.528 90.9865 422.644 91.1065C422.764 91.2225 422.916 91.2805 423.1 91.2805C423.208 91.2805 423.3 91.2665 423.376 91.2385C423.456 91.2105 423.524 91.1805 423.58 91.1485C423.636 91.1125 423.684 91.0805 423.724 91.0525C423.764 91.0245 423.8 91.0105 423.832 91.0105C423.872 91.0105 423.902 91.0205 423.922 91.0405C423.946 91.0565 423.97 91.0845 423.994 91.1245L424.342 91.6885C424.15 91.8645 423.922 92.0005 423.658 92.0965C423.394 92.1925 423.12 92.2405 422.836 92.2405ZM426.56 87.2185C426.756 86.8185 426.992 86.5045 427.268 86.2765C427.544 86.0485 427.876 85.9345 428.264 85.9345C428.396 85.9345 428.52 85.9505 428.636 85.9825C428.756 86.0105 428.86 86.0545 428.948 86.1145L428.87 86.9965C428.842 87.1045 428.776 87.1585 428.672 87.1585C428.616 87.1585 428.532 87.1485 428.42 87.1285C428.308 87.1045 428.188 87.0925 428.06 87.0925C427.872 87.0925 427.706 87.1205 427.562 87.1765C427.418 87.2285 427.288 87.3085 427.172 87.4165C427.06 87.5205 426.96 87.6505 426.872 87.8065C426.784 87.9585 426.702 88.1325 426.626 88.3285V92.1445H425.456V86.0485H426.128C426.256 86.0485 426.342 86.0725 426.386 86.1205C426.434 86.1645 426.468 86.2445 426.488 86.3605L426.56 87.2185ZM433.213 89.4385C432.737 89.4545 432.333 89.4925 432.001 89.5525C431.669 89.6085 431.399 89.6845 431.191 89.7805C430.983 89.8765 430.833 89.9905 430.741 90.1225C430.649 90.2505 430.603 90.3945 430.603 90.5545C430.603 90.7065 430.627 90.8385 430.675 90.9505C430.727 91.0585 430.795 91.1485 430.879 91.2205C430.967 91.2885 431.069 91.3385 431.185 91.3705C431.301 91.4025 431.427 91.4185 431.563 91.4185C431.743 91.4185 431.907 91.4005 432.055 91.3645C432.207 91.3285 432.349 91.2785 432.481 91.2145C432.613 91.1465 432.739 91.0645 432.859 90.9685C432.979 90.8725 433.097 90.7625 433.213 90.6385V89.4385ZM429.781 86.9005C430.121 86.5765 430.489 86.3345 430.885 86.1745C431.285 86.0145 431.723 85.9345 432.199 85.9345C432.547 85.9345 432.855 85.9925 433.123 86.1085C433.391 86.2205 433.617 86.3785 433.801 86.5825C433.985 86.7865 434.123 87.0305 434.215 87.3145C434.311 87.5985 434.359 87.9125 434.359 88.2565V92.1445H433.837C433.721 92.1445 433.633 92.1265 433.573 92.0905C433.513 92.0505 433.465 91.9785 433.429 91.8745L433.303 91.3405C433.147 91.4845 432.993 91.6125 432.841 91.7245C432.689 91.8325 432.529 91.9265 432.361 92.0065C432.197 92.0825 432.021 92.1405 431.833 92.1805C431.645 92.2205 431.437 92.2405 431.209 92.2405C430.969 92.2405 430.743 92.2085 430.531 92.1445C430.323 92.0765 430.141 91.9745 429.985 91.8385C429.829 91.7025 429.705 91.5325 429.613 91.3285C429.525 91.1245 429.481 90.8865 429.481 90.6145C429.481 90.3745 429.545 90.1445 429.673 89.9245C429.805 89.7005 430.017 89.5005 430.309 89.3245C430.605 89.1485 430.989 89.0045 431.461 88.8925C431.937 88.7805 432.521 88.7165 433.213 88.7005V88.2565C433.213 87.7965 433.115 87.4525 432.919 87.2245C432.723 86.9965 432.435 86.8825 432.055 86.8825C431.799 86.8825 431.583 86.9145 431.407 86.9785C431.235 87.0425 431.085 87.1145 430.957 87.1945C430.833 87.2705 430.723 87.3405 430.627 87.4045C430.535 87.4685 430.439 87.5005 430.339 87.5005C430.259 87.5005 430.189 87.4785 430.129 87.4345C430.073 87.3905 430.027 87.3385 429.991 87.2785L429.781 86.9005ZM437.203 86.8945C437.335 86.7545 437.473 86.6265 437.617 86.5105C437.761 86.3945 437.913 86.2965 438.073 86.2165C438.237 86.1325 438.411 86.0685 438.595 86.0245C438.783 85.9765 438.983 85.9525 439.195 85.9525C439.531 85.9525 439.825 86.0085 440.077 86.1205C440.333 86.2325 440.547 86.3905 440.719 86.5945C440.891 86.7945 441.021 87.0365 441.109 87.3205C441.197 87.6045 441.241 87.9185 441.241 88.2625V92.1445H440.065V88.2625C440.065 87.8265 439.965 87.4885 439.765 87.2485C439.565 87.0045 439.259 86.8825 438.847 86.8825C438.547 86.8825 438.265 86.9545 438.001 87.0985C437.741 87.2385 437.499 87.4305 437.275 87.6745V92.1445H436.105V86.0485H436.807C436.971 86.0485 437.073 86.1265 437.113 86.2825L437.203 86.8945ZM446.594 87.0985C446.562 87.1505 446.528 87.1885 446.492 87.2125C446.456 87.2325 446.41 87.2425 446.354 87.2425C446.29 87.2425 446.218 87.2205 446.138 87.1765C446.062 87.1325 445.968 87.0845 445.856 87.0325C445.748 86.9805 445.62 86.9325 445.472 86.8885C445.324 86.8445 445.148 86.8225 444.944 86.8225C444.776 86.8225 444.622 86.8445 444.482 86.8885C444.346 86.9285 444.23 86.9865 444.134 87.0625C444.038 87.1345 443.964 87.2225 443.912 87.3265C443.86 87.4265 443.834 87.5345 443.834 87.6505C443.834 87.8025 443.878 87.9285 443.966 88.0285C444.058 88.1285 444.176 88.2145 444.32 88.2865C444.468 88.3585 444.634 88.4245 444.818 88.4845C445.006 88.5405 445.196 88.6005 445.388 88.6645C445.584 88.7285 445.774 88.8025 445.958 88.8865C446.146 88.9665 446.312 89.0685 446.456 89.1925C446.604 89.3125 446.722 89.4585 446.81 89.6305C446.902 89.8025 446.948 90.0125 446.948 90.2605C446.948 90.5445 446.896 90.8085 446.792 91.0525C446.692 91.2925 446.542 91.5005 446.342 91.6765C446.146 91.8525 445.902 91.9905 445.61 92.0905C445.318 92.1905 444.984 92.2405 444.608 92.2405C444.188 92.2405 443.8 92.1705 443.444 92.0305C443.088 91.8905 442.79 91.7125 442.55 91.4965L442.826 91.0465C442.858 90.9905 442.898 90.9485 442.946 90.9205C442.994 90.8885 443.058 90.8725 443.138 90.8725C443.214 90.8725 443.292 90.9005 443.372 90.9565C443.452 91.0125 443.548 91.0745 443.66 91.1425C443.772 91.2065 443.908 91.2665 444.068 91.3225C444.228 91.3745 444.428 91.4005 444.668 91.4005C444.868 91.4005 445.042 91.3765 445.19 91.3285C445.338 91.2765 445.46 91.2085 445.556 91.1245C445.656 91.0365 445.73 90.9365 445.778 90.8245C445.826 90.7125 445.85 90.5945 445.85 90.4705C445.85 90.3105 445.804 90.1785 445.712 90.0745C445.624 89.9665 445.506 89.8745 445.358 89.7985C445.214 89.7225 445.048 89.6565 444.86 89.6005C444.672 89.5445 444.48 89.4845 444.284 89.4205C444.088 89.3565 443.896 89.2825 443.708 89.1985C443.52 89.1145 443.352 89.0085 443.204 88.8805C443.06 88.7525 442.942 88.5965 442.85 88.4125C442.762 88.2285 442.718 88.0045 442.718 87.7405C442.718 87.5045 442.766 87.2785 442.862 87.0625C442.962 86.8465 443.104 86.6565 443.288 86.4925C443.476 86.3285 443.706 86.1985 443.978 86.1025C444.254 86.0025 444.568 85.9525 444.92 85.9525C445.324 85.9525 445.688 86.0165 446.012 86.1445C446.34 86.2725 446.62 86.4485 446.852 86.6725L446.594 87.0985ZM449.565 90.6445C449.757 90.8965 449.963 91.0725 450.183 91.1725C450.407 91.2725 450.657 91.3225 450.933 91.3225C451.469 91.3225 451.883 91.1305 452.175 90.7465C452.471 90.3585 452.619 89.7945 452.619 89.0545C452.619 88.6665 452.585 88.3365 452.517 88.0645C452.453 87.7885 452.357 87.5645 452.229 87.3925C452.105 87.2165 451.951 87.0885 451.767 87.0085C451.583 86.9245 451.375 86.8825 451.143 86.8825C450.803 86.8825 450.507 86.9585 450.255 87.1105C450.007 87.2625 449.777 87.4785 449.565 87.7585V90.6445ZM449.505 86.9605C449.633 86.8085 449.769 86.6705 449.913 86.5465C450.061 86.4185 450.219 86.3105 450.387 86.2225C450.555 86.1305 450.733 86.0605 450.921 86.0125C451.113 85.9605 451.317 85.9345 451.533 85.9345C451.881 85.9345 452.195 86.0025 452.475 86.1385C452.759 86.2745 453.001 86.4745 453.201 86.7385C453.401 87.0025 453.555 87.3285 453.663 87.7165C453.775 88.1045 453.831 88.5505 453.831 89.0545C453.831 89.5065 453.769 89.9265 453.645 90.3145C453.525 90.6985 453.351 91.0325 453.123 91.3165C452.899 91.6005 452.623 91.8245 452.295 91.9885C451.971 92.1485 451.605 92.2285 451.197 92.2285C450.833 92.2285 450.521 92.1685 450.261 92.0485C450.001 91.9285 449.769 91.7605 449.565 91.5445V94.1905H448.395V86.0485H449.097C449.261 86.0485 449.363 86.1265 449.403 86.2825L449.505 86.9605ZM458.601 89.4385C458.125 89.4545 457.721 89.4925 457.389 89.5525C457.057 89.6085 456.787 89.6845 456.579 89.7805C456.371 89.8765 456.221 89.9905 456.129 90.1225C456.037 90.2505 455.991 90.3945 455.991 90.5545C455.991 90.7065 456.015 90.8385 456.063 90.9505C456.115 91.0585 456.183 91.1485 456.267 91.2205C456.355 91.2885 456.457 91.3385 456.573 91.3705C456.689 91.4025 456.815 91.4185 456.951 91.4185C457.131 91.4185 457.295 91.4005 457.443 91.3645C457.595 91.3285 457.737 91.2785 457.869 91.2145C458.001 91.1465 458.127 91.0645 458.247 90.9685C458.367 90.8725 458.485 90.7625 458.601 90.6385V89.4385ZM455.169 86.9005C455.509 86.5765 455.877 86.3345 456.273 86.1745C456.673 86.0145 457.111 85.9345 457.587 85.9345C457.935 85.9345 458.243 85.9925 458.511 86.1085C458.779 86.2205 459.005 86.3785 459.189 86.5825C459.373 86.7865 459.511 87.0305 459.603 87.3145C459.699 87.5985 459.747 87.9125 459.747 88.2565V92.1445H459.225C459.109 92.1445 459.021 92.1265 458.961 92.0905C458.901 92.0505 458.853 91.9785 458.817 91.8745L458.691 91.3405C458.535 91.4845 458.381 91.6125 458.229 91.7245C458.077 91.8325 457.917 91.9265 457.749 92.0065C457.585 92.0825 457.409 92.1405 457.221 92.1805C457.033 92.2205 456.825 92.2405 456.597 92.2405C456.357 92.2405 456.131 92.2085 455.919 92.1445C455.711 92.0765 455.529 91.9745 455.373 91.8385C455.217 91.7025 455.093 91.5325 455.001 91.3285C454.913 91.1245 454.869 90.8865 454.869 90.6145C454.869 90.3745 454.933 90.1445 455.061 89.9245C455.193 89.7005 455.405 89.5005 455.697 89.3245C455.993 89.1485 456.377 89.0045 456.849 88.8925C457.325 88.7805 457.909 88.7165 458.601 88.7005V88.2565C458.601 87.7965 458.503 87.4525 458.307 87.2245C458.111 86.9965 457.823 86.8825 457.443 86.8825C457.187 86.8825 456.971 86.9145 456.795 86.9785C456.623 87.0425 456.473 87.1145 456.345 87.1945C456.221 87.2705 456.111 87.3405 456.015 87.4045C455.923 87.4685 455.827 87.5005 455.727 87.5005C455.647 87.5005 455.577 87.4785 455.517 87.4345C455.461 87.3905 455.415 87.3385 455.379 87.2785L455.169 86.9005ZM462.597 87.2185C462.793 86.8185 463.029 86.5045 463.305 86.2765C463.581 86.0485 463.913 85.9345 464.301 85.9345C464.433 85.9345 464.557 85.9505 464.673 85.9825C464.793 86.0105 464.897 86.0545 464.985 86.1145L464.907 86.9965C464.879 87.1045 464.813 87.1585 464.709 87.1585C464.653 87.1585 464.569 87.1485 464.457 87.1285C464.345 87.1045 464.225 87.0925 464.097 87.0925C463.909 87.0925 463.743 87.1205 463.599 87.1765C463.455 87.2285 463.325 87.3085 463.209 87.4165C463.097 87.5205 462.997 87.6505 462.909 87.8065C462.821 87.9585 462.739 88.1325 462.663 88.3285V92.1445H461.493V86.0485H462.165C462.293 86.0485 462.379 86.0725 462.423 86.1205C462.471 86.1645 462.505 86.2445 462.525 86.3605L462.597 87.2185ZM469.883 88.4185C469.883 88.1865 469.849 87.9725 469.781 87.7765C469.717 87.5805 469.621 87.4105 469.493 87.2665C469.365 87.1225 469.209 87.0105 469.025 86.9305C468.841 86.8505 468.629 86.8105 468.389 86.8105C467.897 86.8105 467.509 86.9525 467.225 87.2365C466.945 87.5205 466.767 87.9145 466.691 88.4185H469.883ZM470.849 91.2745C470.705 91.4425 470.539 91.5885 470.351 91.7125C470.163 91.8325 469.963 91.9305 469.751 92.0065C469.539 92.0825 469.319 92.1385 469.091 92.1745C468.867 92.2105 468.645 92.2285 468.425 92.2285C468.005 92.2285 467.615 92.1585 467.255 92.0185C466.899 91.8745 466.589 91.6665 466.325 91.3945C466.065 91.1185 465.861 90.7785 465.713 90.3745C465.569 89.9665 465.497 89.4985 465.497 88.9705C465.497 88.5465 465.563 88.1525 465.695 87.7885C465.827 87.4205 466.015 87.1005 466.259 86.8285C466.507 86.5565 466.809 86.3425 467.165 86.1865C467.521 86.0305 467.921 85.9525 468.365 85.9525C468.737 85.9525 469.079 86.0145 469.391 86.1385C469.707 86.2585 469.979 86.4345 470.207 86.6665C470.435 86.8985 470.613 87.1845 470.741 87.5245C470.873 87.8645 470.939 88.2525 470.939 88.6885C470.939 88.8685 470.919 88.9905 470.879 89.0545C470.839 89.1145 470.765 89.1445 470.657 89.1445H466.661C466.673 89.5085 466.725 89.8265 466.817 90.0985C466.909 90.3665 467.035 90.5905 467.195 90.7705C467.359 90.9505 467.553 91.0845 467.777 91.1725C468.001 91.2605 468.251 91.3045 468.527 91.3045C468.787 91.3045 469.011 91.2745 469.199 91.2145C469.391 91.1545 469.555 91.0905 469.691 91.0225C469.831 90.9505 469.947 90.8845 470.039 90.8245C470.135 90.7645 470.219 90.7345 470.291 90.7345C470.387 90.7345 470.461 90.7705 470.513 90.8425L470.849 91.2745ZM473.474 86.8945C473.606 86.7545 473.744 86.6265 473.888 86.5105C474.032 86.3945 474.184 86.2965 474.344 86.2165C474.508 86.1325 474.682 86.0685 474.866 86.0245C475.054 85.9765 475.254 85.9525 475.466 85.9525C475.802 85.9525 476.096 86.0085 476.348 86.1205C476.604 86.2325 476.818 86.3905 476.99 86.5945C477.162 86.7945 477.292 87.0365 477.38 87.3205C477.468 87.6045 477.512 87.9185 477.512 88.2625V92.1445H476.336V88.2625C476.336 87.8265 476.236 87.4885 476.036 87.2485C475.836 87.0045 475.53 86.8825 475.118 86.8825C474.818 86.8825 474.536 86.9545 474.272 87.0985C474.012 87.2385 473.77 87.4305 473.546 87.6745V92.1445H472.376V86.0485H473.078C473.242 86.0485 473.344 86.1265 473.384 86.2825L473.474 86.8945ZM483.543 87.1885C483.507 87.2325 483.471 87.2685 483.435 87.2965C483.403 87.3205 483.355 87.3325 483.291 87.3325C483.227 87.3325 483.159 87.3085 483.087 87.2605C483.019 87.2085 482.931 87.1545 482.823 87.0985C482.719 87.0385 482.591 86.9845 482.439 86.9365C482.291 86.8845 482.107 86.8585 481.887 86.8585C481.599 86.8585 481.345 86.9105 481.125 87.0145C480.905 87.1185 480.721 87.2665 480.573 87.4585C480.429 87.6505 480.319 87.8845 480.243 88.1605C480.167 88.4365 480.129 88.7465 480.129 89.0905C480.129 89.4465 480.169 89.7645 480.249 90.0445C480.329 90.3205 480.443 90.5545 480.591 90.7465C480.739 90.9345 480.919 91.0785 481.131 91.1785C481.343 91.2745 481.579 91.3225 481.839 91.3225C482.091 91.3225 482.299 91.2925 482.463 91.2325C482.627 91.1685 482.763 91.1005 482.871 91.0285C482.979 90.9565 483.069 90.8905 483.141 90.8305C483.213 90.7665 483.287 90.7345 483.363 90.7345C483.459 90.7345 483.533 90.7705 483.585 90.8425L483.921 91.2745C483.781 91.4465 483.623 91.5925 483.447 91.7125C483.275 91.8325 483.091 91.9305 482.895 92.0065C482.699 92.0825 482.493 92.1385 482.277 92.1745C482.065 92.2105 481.849 92.2285 481.629 92.2285C481.249 92.2285 480.893 92.1585 480.561 92.0185C480.233 91.8785 479.947 91.6745 479.703 91.4065C479.463 91.1385 479.273 90.8105 479.133 90.4225C478.993 90.0305 478.923 89.5865 478.923 89.0905C478.923 88.6385 478.985 88.2205 479.109 87.8365C479.237 87.4525 479.423 87.1225 479.667 86.8465C479.915 86.5665 480.219 86.3485 480.579 86.1925C480.939 86.0325 481.351 85.9525 481.815 85.9525C482.251 85.9525 482.635 86.0225 482.967 86.1625C483.299 86.3025 483.595 86.5005 483.855 86.7565L483.543 87.1885ZM490.521 86.0485L487.137 93.9145C487.101 94.0025 487.053 94.0705 486.993 94.1185C486.933 94.1665 486.845 94.1905 486.729 94.1905H485.859L486.975 91.7605L484.473 86.0485H485.493C485.593 86.0485 485.671 86.0725 485.727 86.1205C485.783 86.1685 485.823 86.2225 485.847 86.2825L487.395 89.9425C487.427 90.0345 487.457 90.1285 487.485 90.2245C487.517 90.3165 487.543 90.4085 487.563 90.5005C487.591 90.4045 487.621 90.3105 487.653 90.2185C487.685 90.1225 487.719 90.0285 487.755 89.9365L489.249 86.2825C489.277 86.2145 489.321 86.1585 489.381 86.1145C489.441 86.0705 489.509 86.0485 489.585 86.0485H490.521ZM494.92 92.1445V87.0085L494.284 86.9305C494.192 86.9105 494.116 86.8785 494.056 86.8345C494 86.7865 493.972 86.7185 493.972 86.6305V86.1445H494.92V85.5925C494.92 85.2445 494.97 84.9345 495.07 84.6625C495.17 84.3905 495.312 84.1605 495.496 83.9725C495.684 83.7805 495.908 83.6365 496.168 83.5405C496.432 83.4405 496.728 83.3905 497.056 83.3905C497.332 83.3905 497.586 83.4305 497.818 83.5105L497.794 84.0985C497.79 84.1505 497.774 84.1905 497.746 84.2185C497.718 84.2425 497.68 84.2605 497.632 84.2725C497.588 84.2845 497.532 84.2925 497.464 84.2965C497.4 84.2965 497.33 84.2965 497.254 84.2965C497.074 84.2965 496.91 84.3185 496.762 84.3625C496.614 84.4065 496.488 84.4805 496.384 84.5845C496.28 84.6885 496.2 84.8265 496.144 84.9985C496.088 85.1665 496.06 85.3765 496.06 85.6285V86.1445H497.77V86.9965H496.096V92.1445H494.92ZM501.339 85.9525C501.787 85.9525 502.191 86.0265 502.551 86.1745C502.915 86.3185 503.223 86.5285 503.475 86.8045C503.731 87.0765 503.927 87.4065 504.063 87.7945C504.199 88.1785 504.267 88.6105 504.267 89.0905C504.267 89.5705 504.199 90.0045 504.063 90.3925C503.927 90.7805 503.731 91.1105 503.475 91.3825C503.223 91.6545 502.915 91.8645 502.551 92.0125C502.191 92.1565 501.787 92.2285 501.339 92.2285C500.887 92.2285 500.479 92.1565 500.115 92.0125C499.755 91.8645 499.447 91.6545 499.191 91.3825C498.935 91.1105 498.737 90.7805 498.597 90.3925C498.461 90.0045 498.393 89.5705 498.393 89.0905C498.393 88.6105 498.461 88.1785 498.597 87.7945C498.737 87.4065 498.935 87.0765 499.191 86.8045C499.447 86.5285 499.755 86.3185 500.115 86.1745C500.479 86.0265 500.887 85.9525 501.339 85.9525ZM501.339 91.3165C501.915 91.3165 502.345 91.1225 502.629 90.7345C502.913 90.3465 503.055 89.8005 503.055 89.0965C503.055 88.3925 502.913 87.8465 502.629 87.4585C502.345 87.0665 501.915 86.8705 501.339 86.8705C500.755 86.8705 500.319 87.0665 500.031 87.4585C499.747 87.8465 499.605 88.3925 499.605 89.0965C499.605 89.8005 499.747 90.3465 500.031 90.7345C500.319 91.1225 500.755 91.3165 501.339 91.3165ZM506.857 87.2185C507.053 86.8185 507.289 86.5045 507.565 86.2765C507.841 86.0485 508.173 85.9345 508.561 85.9345C508.693 85.9345 508.817 85.9505 508.933 85.9825C509.053 86.0105 509.157 86.0545 509.245 86.1145L509.167 86.9965C509.139 87.1045 509.073 87.1585 508.969 87.1585C508.913 87.1585 508.829 87.1485 508.717 87.1285C508.605 87.1045 508.485 87.0925 508.357 87.0925C508.169 87.0925 508.003 87.1205 507.859 87.1765C507.715 87.2285 507.585 87.3085 507.469 87.4165C507.357 87.5205 507.257 87.6505 507.169 87.8065C507.081 87.9585 506.999 88.1325 506.923 88.3285V92.1445H505.753V86.0485H506.425C506.553 86.0485 506.639 86.0725 506.683 86.1205C506.731 86.1645 506.765 86.2445 506.785 86.3605L506.857 87.2185ZM521.553 87.8365C521.553 88.4805 521.449 89.0725 521.241 89.6125C521.037 90.1485 520.747 90.6125 520.371 91.0045C519.995 91.3925 519.545 91.6945 519.021 91.9105C518.497 92.1265 517.915 92.2345 517.275 92.2345C516.639 92.2345 516.057 92.1265 515.529 91.9105C515.005 91.6945 514.555 91.3925 514.179 91.0045C513.807 90.6125 513.517 90.1485 513.309 89.6125C513.101 89.0725 512.997 88.4805 512.997 87.8365C512.997 87.1965 513.101 86.6065 513.309 86.0665C513.517 85.5265 513.807 85.0625 514.179 84.6745C514.555 84.2825 515.005 83.9785 515.529 83.7625C516.057 83.5425 516.639 83.4325 517.275 83.4325C517.915 83.4325 518.497 83.5425 519.021 83.7625C519.545 83.9785 519.995 84.2825 520.371 84.6745C520.747 85.0625 521.037 85.5265 521.241 86.0665C521.449 86.6065 521.553 87.1965 521.553 87.8365ZM520.245 87.8365C520.245 87.3245 520.175 86.8645 520.035 86.4565C519.895 86.0485 519.695 85.7025 519.435 85.4185C519.179 85.1345 518.867 84.9165 518.499 84.7645C518.135 84.6125 517.727 84.5365 517.275 84.5365C516.823 84.5365 516.413 84.6125 516.045 84.7645C515.681 84.9165 515.369 85.1345 515.109 85.4185C514.849 85.7025 514.649 86.0485 514.509 86.4565C514.369 86.8645 514.299 87.3245 514.299 87.8365C514.299 88.3525 514.369 88.8145 514.509 89.2225C514.649 89.6265 514.849 89.9705 515.109 90.2545C515.369 90.5385 515.681 90.7565 516.045 90.9085C516.413 91.0565 516.823 91.1305 517.275 91.1305C517.727 91.1305 518.135 91.0565 518.499 90.9085C518.867 90.7565 519.179 90.5385 519.435 90.2545C519.695 89.9705 519.895 89.6265 520.035 89.2225C520.175 88.8145 520.245 88.3525 520.245 87.8365ZM524.151 90.6445C524.343 90.8965 524.549 91.0725 524.769 91.1725C524.993 91.2725 525.243 91.3225 525.519 91.3225C526.055 91.3225 526.469 91.1305 526.761 90.7465C527.057 90.3585 527.205 89.7945 527.205 89.0545C527.205 88.6665 527.171 88.3365 527.103 88.0645C527.039 87.7885 526.943 87.5645 526.815 87.3925C526.691 87.2165 526.537 87.0885 526.353 87.0085C526.169 86.9245 525.961 86.8825 525.729 86.8825C525.389 86.8825 525.093 86.9585 524.841 87.1105C524.593 87.2625 524.363 87.4785 524.151 87.7585V90.6445ZM524.091 86.9605C524.219 86.8085 524.355 86.6705 524.499 86.5465C524.647 86.4185 524.805 86.3105 524.973 86.2225C525.141 86.1305 525.319 86.0605 525.507 86.0125C525.699 85.9605 525.903 85.9345 526.119 85.9345C526.467 85.9345 526.781 86.0025 527.061 86.1385C527.345 86.2745 527.587 86.4745 527.787 86.7385C527.987 87.0025 528.141 87.3285 528.249 87.7165C528.361 88.1045 528.417 88.5505 528.417 89.0545C528.417 89.5065 528.355 89.9265 528.231 90.3145C528.111 90.6985 527.937 91.0325 527.709 91.3165C527.485 91.6005 527.209 91.8245 526.881 91.9885C526.557 92.1485 526.191 92.2285 525.783 92.2285C525.419 92.2285 525.107 92.1685 524.847 92.0485C524.587 91.9285 524.355 91.7605 524.151 91.5445V94.1905H522.981V86.0485H523.683C523.847 86.0485 523.949 86.1265 523.989 86.2825L524.091 86.9605ZM533.949 88.4185C533.949 88.1865 533.915 87.9725 533.847 87.7765C533.783 87.5805 533.687 87.4105 533.559 87.2665C533.431 87.1225 533.275 87.0105 533.091 86.9305C532.907 86.8505 532.695 86.8105 532.455 86.8105C531.963 86.8105 531.575 86.9525 531.291 87.2365C531.011 87.5205 530.833 87.9145 530.757 88.4185H533.949ZM534.915 91.2745C534.771 91.4425 534.605 91.5885 534.417 91.7125C534.229 91.8325 534.029 91.9305 533.817 92.0065C533.605 92.0825 533.385 92.1385 533.157 92.1745C532.933 92.2105 532.711 92.2285 532.491 92.2285C532.071 92.2285 531.681 92.1585 531.321 92.0185C530.965 91.8745 530.655 91.6665 530.391 91.3945C530.131 91.1185 529.927 90.7785 529.779 90.3745C529.635 89.9665 529.563 89.4985 529.563 88.9705C529.563 88.5465 529.629 88.1525 529.761 87.7885C529.893 87.4205 530.081 87.1005 530.325 86.8285C530.573 86.5565 530.875 86.3425 531.231 86.1865C531.587 86.0305 531.987 85.9525 532.431 85.9525C532.803 85.9525 533.145 86.0145 533.457 86.1385C533.773 86.2585 534.045 86.4345 534.273 86.6665C534.501 86.8985 534.679 87.1845 534.807 87.5245C534.939 87.8645 535.005 88.2525 535.005 88.6885C535.005 88.8685 534.985 88.9905 534.945 89.0545C534.905 89.1145 534.831 89.1445 534.723 89.1445H530.727C530.739 89.5085 530.791 89.8265 530.883 90.0985C530.975 90.3665 531.101 90.5905 531.261 90.7705C531.425 90.9505 531.619 91.0845 531.843 91.1725C532.067 91.2605 532.317 91.3045 532.593 91.3045C532.853 91.3045 533.077 91.2745 533.265 91.2145C533.457 91.1545 533.621 91.0905 533.757 91.0225C533.897 90.9505 534.013 90.8845 534.105 90.8245C534.201 90.7645 534.285 90.7345 534.357 90.7345C534.453 90.7345 534.527 90.7705 534.579 90.8425L534.915 91.2745ZM537.546 87.2185C537.742 86.8185 537.978 86.5045 538.254 86.2765C538.53 86.0485 538.862 85.9345 539.25 85.9345C539.382 85.9345 539.506 85.9505 539.622 85.9825C539.742 86.0105 539.846 86.0545 539.934 86.1145L539.856 86.9965C539.828 87.1045 539.762 87.1585 539.658 87.1585C539.602 87.1585 539.518 87.1485 539.406 87.1285C539.294 87.1045 539.174 87.0925 539.046 87.0925C538.858 87.0925 538.692 87.1205 538.548 87.1765C538.404 87.2285 538.274 87.3085 538.158 87.4165C538.046 87.5205 537.946 87.6505 537.858 87.8065C537.77 87.9585 537.688 88.1325 537.612 88.3285V92.1445H536.442V86.0485H537.114C537.242 86.0485 537.328 86.0725 537.372 86.1205C537.42 86.1645 537.454 86.2445 537.474 86.3605L537.546 87.2185ZM544.199 89.4385C543.723 89.4545 543.319 89.4925 542.987 89.5525C542.655 89.6085 542.385 89.6845 542.177 89.7805C541.969 89.8765 541.819 89.9905 541.727 90.1225C541.635 90.2505 541.589 90.3945 541.589 90.5545C541.589 90.7065 541.613 90.8385 541.661 90.9505C541.713 91.0585 541.781 91.1485 541.865 91.2205C541.953 91.2885 542.055 91.3385 542.171 91.3705C542.287 91.4025 542.413 91.4185 542.549 91.4185C542.729 91.4185 542.893 91.4005 543.041 91.3645C543.193 91.3285 543.335 91.2785 543.467 91.2145C543.599 91.1465 543.725 91.0645 543.845 90.9685C543.965 90.8725 544.083 90.7625 544.199 90.6385V89.4385ZM540.767 86.9005C541.107 86.5765 541.475 86.3345 541.871 86.1745C542.271 86.0145 542.709 85.9345 543.185 85.9345C543.533 85.9345 543.841 85.9925 544.109 86.1085C544.377 86.2205 544.603 86.3785 544.787 86.5825C544.971 86.7865 545.109 87.0305 545.201 87.3145C545.297 87.5985 545.345 87.9125 545.345 88.2565V92.1445H544.823C544.707 92.1445 544.619 92.1265 544.559 92.0905C544.499 92.0505 544.451 91.9785 544.415 91.8745L544.289 91.3405C544.133 91.4845 543.979 91.6125 543.827 91.7245C543.675 91.8325 543.515 91.9265 543.347 92.0065C543.183 92.0825 543.007 92.1405 542.819 92.1805C542.631 92.2205 542.423 92.2405 542.195 92.2405C541.955 92.2405 541.729 92.2085 541.517 92.1445C541.309 92.0765 541.127 91.9745 540.971 91.8385C540.815 91.7025 540.691 91.5325 540.599 91.3285C540.511 91.1245 540.467 90.8865 540.467 90.6145C540.467 90.3745 540.531 90.1445 540.659 89.9245C540.791 89.7005 541.003 89.5005 541.295 89.3245C541.591 89.1485 541.975 89.0045 542.447 88.8925C542.923 88.7805 543.507 88.7165 544.199 88.7005V88.2565C544.199 87.7965 544.101 87.4525 543.905 87.2245C543.709 86.9965 543.421 86.8825 543.041 86.8825C542.785 86.8825 542.569 86.9145 542.393 86.9785C542.221 87.0425 542.071 87.1145 541.943 87.1945C541.819 87.2705 541.709 87.3405 541.613 87.4045C541.521 87.4685 541.425 87.5005 541.325 87.5005C541.245 87.5005 541.175 87.4785 541.115 87.4345C541.059 87.3905 541.013 87.3385 540.977 87.2785L540.767 86.9005ZM552.787 92.1445H551.611V86.9965H548.551V90.5665C548.551 90.8065 548.609 90.9865 548.725 91.1065C548.845 91.2225 548.997 91.2805 549.181 91.2805C549.289 91.2805 549.381 91.2665 549.457 91.2385C549.537 91.2105 549.605 91.1805 549.661 91.1485C549.717 91.1125 549.765 91.0805 549.805 91.0525C549.845 91.0245 549.881 91.0105 549.913 91.0105C549.953 91.0105 549.983 91.0205 550.003 91.0405C550.027 91.0565 550.051 91.0845 550.075 91.1245L550.423 91.6885C550.231 91.8645 550.003 92.0005 549.739 92.0965C549.475 92.1925 549.201 92.2405 548.917 92.2405C548.425 92.2405 548.045 92.1025 547.777 91.8265C547.513 91.5505 547.381 91.1565 547.381 90.6445V86.9965H546.673C546.605 86.9965 546.547 86.9765 546.499 86.9365C546.455 86.8925 546.433 86.8285 546.433 86.7445V86.2705L547.429 86.1325L547.687 84.3145C547.703 84.2465 547.733 84.1945 547.777 84.1585C547.825 84.1185 547.885 84.0985 547.957 84.0985H548.551V86.1445H552.787V92.1445ZM553.051 84.1285C553.051 84.2365 553.029 84.3405 552.985 84.4405C552.941 84.5365 552.881 84.6225 552.805 84.6985C552.733 84.7705 552.647 84.8285 552.547 84.8725C552.447 84.9125 552.343 84.9325 552.235 84.9325C552.127 84.9325 552.025 84.9125 551.929 84.8725C551.833 84.8285 551.747 84.7705 551.671 84.6985C551.599 84.6225 551.541 84.5365 551.497 84.4405C551.457 84.3405 551.437 84.2365 551.437 84.1285C551.437 84.0165 551.457 83.9105 551.497 83.8105C551.541 83.7105 551.599 83.6245 551.671 83.5525C551.747 83.4765 551.833 83.4185 551.929 83.3785C552.025 83.3345 552.127 83.3125 552.235 83.3125C552.343 83.3125 552.447 83.3345 552.547 83.3785C552.647 83.4185 552.733 83.4765 552.805 83.5525C552.881 83.6245 552.941 83.7105 552.985 83.8105C553.029 83.9105 553.051 84.0165 553.051 84.1285ZM557.264 85.9525C557.712 85.9525 558.116 86.0265 558.476 86.1745C558.84 86.3185 559.148 86.5285 559.4 86.8045C559.656 87.0765 559.852 87.4065 559.988 87.7945C560.124 88.1785 560.192 88.6105 560.192 89.0905C560.192 89.5705 560.124 90.0045 559.988 90.3925C559.852 90.7805 559.656 91.1105 559.4 91.3825C559.148 91.6545 558.84 91.8645 558.476 92.0125C558.116 92.1565 557.712 92.2285 557.264 92.2285C556.812 92.2285 556.404 92.1565 556.04 92.0125C555.68 91.8645 555.372 91.6545 555.116 91.3825C554.86 91.1105 554.662 90.7805 554.522 90.3925C554.386 90.0045 554.318 89.5705 554.318 89.0905C554.318 88.6105 554.386 88.1785 554.522 87.7945C554.662 87.4065 554.86 87.0765 555.116 86.8045C555.372 86.5285 555.68 86.3185 556.04 86.1745C556.404 86.0265 556.812 85.9525 557.264 85.9525ZM557.264 91.3165C557.84 91.3165 558.27 91.1225 558.554 90.7345C558.838 90.3465 558.98 89.8005 558.98 89.0965C558.98 88.3925 558.838 87.8465 558.554 87.4585C558.27 87.0665 557.84 86.8705 557.264 86.8705C556.68 86.8705 556.244 87.0665 555.956 87.4585C555.672 87.8465 555.53 88.3925 555.53 89.0965C555.53 89.8005 555.672 90.3465 555.956 90.7345C556.244 91.1225 556.68 91.3165 557.264 91.3165ZM562.776 86.8945C562.908 86.7545 563.046 86.6265 563.19 86.5105C563.334 86.3945 563.486 86.2965 563.646 86.2165C563.81 86.1325 563.984 86.0685 564.168 86.0245C564.356 85.9765 564.556 85.9525 564.768 85.9525C565.104 85.9525 565.398 86.0085 565.65 86.1205C565.906 86.2325 566.12 86.3905 566.292 86.5945C566.464 86.7945 566.594 87.0365 566.682 87.3205C566.77 87.6045 566.814 87.9185 566.814 88.2625V92.1445H565.638V88.2625C565.638 87.8265 565.538 87.4885 565.338 87.2485C565.138 87.0045 564.832 86.8825 564.42 86.8825C564.12 86.8825 563.838 86.9545 563.574 87.0985C563.314 87.2385 563.072 87.4305 562.848 87.6745V92.1445H561.678V86.0485H562.38C562.544 86.0485 562.646 86.1265 562.686 86.2825L562.776 86.8945ZM572.167 87.0985C572.135 87.1505 572.101 87.1885 572.065 87.2125C572.029 87.2325 571.983 87.2425 571.927 87.2425C571.863 87.2425 571.791 87.2205 571.711 87.1765C571.635 87.1325 571.541 87.0845 571.429 87.0325C571.321 86.9805 571.193 86.9325 571.045 86.8885C570.897 86.8445 570.721 86.8225 570.517 86.8225C570.349 86.8225 570.195 86.8445 570.055 86.8885C569.919 86.9285 569.803 86.9865 569.707 87.0625C569.611 87.1345 569.537 87.2225 569.485 87.3265C569.433 87.4265 569.407 87.5345 569.407 87.6505C569.407 87.8025 569.451 87.9285 569.539 88.0285C569.631 88.1285 569.749 88.2145 569.893 88.2865C570.041 88.3585 570.207 88.4245 570.391 88.4845C570.579 88.5405 570.769 88.6005 570.961 88.6645C571.157 88.7285 571.347 88.8025 571.531 88.8865C571.719 88.9665 571.885 89.0685 572.029 89.1925C572.177 89.3125 572.295 89.4585 572.383 89.6305C572.475 89.8025 572.521 90.0125 572.521 90.2605C572.521 90.5445 572.469 90.8085 572.365 91.0525C572.265 91.2925 572.115 91.5005 571.915 91.6765C571.719 91.8525 571.475 91.9905 571.183 92.0905C570.891 92.1905 570.557 92.2405 570.181 92.2405C569.761 92.2405 569.373 92.1705 569.017 92.0305C568.661 91.8905 568.363 91.7125 568.123 91.4965L568.399 91.0465C568.431 90.9905 568.471 90.9485 568.519 90.9205C568.567 90.8885 568.631 90.8725 568.711 90.8725C568.787 90.8725 568.865 90.9005 568.945 90.9565C569.025 91.0125 569.121 91.0745 569.233 91.1425C569.345 91.2065 569.481 91.2665 569.641 91.3225C569.801 91.3745 570.001 91.4005 570.241 91.4005C570.441 91.4005 570.615 91.3765 570.763 91.3285C570.911 91.2765 571.033 91.2085 571.129 91.1245C571.229 91.0365 571.303 90.9365 571.351 90.8245C571.399 90.7125 571.423 90.5945 571.423 90.4705C571.423 90.3105 571.377 90.1785 571.285 90.0745C571.197 89.9665 571.079 89.8745 570.931 89.7985C570.787 89.7225 570.621 89.6565 570.433 89.6005C570.245 89.5445 570.053 89.4845 569.857 89.4205C569.661 89.3565 569.469 89.2825 569.281 89.1985C569.093 89.1145 568.925 89.0085 568.777 88.8805C568.633 88.7525 568.515 88.5965 568.423 88.4125C568.335 88.2285 568.291 88.0045 568.291 87.7405C568.291 87.5045 568.339 87.2785 568.435 87.0625C568.535 86.8465 568.677 86.6565 568.861 86.4925C569.049 86.3285 569.279 86.1985 569.551 86.1025C569.827 86.0025 570.141 85.9525 570.493 85.9525C570.897 85.9525 571.261 86.0165 571.585 86.1445C571.913 86.2725 572.193 86.4485 572.425 86.6725L572.167 87.0985Z" fill="#3F3F46"/>
</svg>
