<svg width="575" height="127" viewBox="0 0 575 127" fill="none" xmlns="http://www.w3.org/2000/svg">
<path d="M167.5 111C160.004 111 152.614 109.226 145.935 105.823C139.256 102.42 133.478 97.4843 129.072 91.4199C124.666 85.3555 121.757 78.3344 120.585 70.9307C119.412 63.527 120.008 55.9508 122.325 48.8217L128.834 45.3721L131.36 51.7574C129.507 57.4607 129.03 63.5216 129.968 69.4446C130.906 75.3676 133.232 80.9844 136.757 85.836C140.282 90.6875 144.905 94.6359 150.248 97.3584C155.592 100.081 161.503 101.5 167.5 101.5L161.419 106.181L167.5 111Z" fill="#E6F4F1"/>
<path d="M126.363 39.75C130.111 33.2583 135.343 27.7458 141.629 23.6632C147.916 19.5805 155.08 17.0438 162.535 16.2602C169.99 15.4767 177.524 16.4686 184.522 19.1549C191.52 21.8413 197.783 26.1457 202.799 31.7163L203.297 38.9469L195.739 38.0731C191.727 33.6166 186.716 30.173 181.118 28.024C175.519 25.8749 169.492 25.0813 163.528 25.7082C157.564 26.335 151.833 28.3644 146.803 31.6305C141.774 34.8966 137.589 39.3067 134.591 44.5L133.424 37.9143L126.363 39.75Z" fill="#A5A7DD"/>
<path d="M208.634 39.75C212.382 46.2417 214.541 53.5283 214.933 61.0141C215.325 68.4998 213.94 75.9721 210.891 82.82C207.843 89.668 203.216 95.6971 197.391 100.415C191.565 105.132 184.706 108.404 177.374 109.962L170.711 106.87L175.399 100.67C181.264 99.4229 186.752 96.8055 191.412 93.0316C196.073 89.2577 199.774 84.4344 202.213 78.956C204.652 73.4777 205.76 67.4998 205.446 61.5113C205.132 55.5227 203.405 49.6934 200.407 44.5L207.311 47.2077L208.634 39.75Z" fill="#EEE8A9"/>
<path d="M44.3043 106.948C34.2524 102.507 26.0515 94.7173 21.0988 84.9072C16.1462 75.0971 14.7482 63.8733 17.1432 53.148C19.5382 42.4228 25.5779 32.8598 34.2333 26.0885C42.8886 19.3171 53.6241 15.7564 64.6105 16.013C75.5969 16.2696 86.1544 20.3276 94.4842 27.4956C102.814 34.6636 108.401 44.4982 110.292 55.3235C112.184 66.1488 110.264 77.2952 104.858 86.8634C99.4533 96.4315 90.8976 103.83 80.6493 107.797L70.3606 81.2187C74.4599 79.6318 77.8822 76.6726 80.0443 72.8454C82.2064 69.0181 82.9745 64.5596 82.2178 60.2294C81.4612 55.8993 79.2265 51.9655 75.8946 49.0983C72.5626 46.2311 68.3396 44.6079 63.9451 44.5052C59.5505 44.4026 55.2563 45.8269 51.7942 48.5354C48.332 51.244 45.9162 55.0692 44.9582 59.3592C44.0002 63.6493 44.5593 68.1389 46.5404 72.0629C48.5215 75.9869 51.8018 79.1027 55.8226 80.8792L44.3043 106.948Z" fill="#D9D9D9" fill-opacity="0.5"/>
<path d="M74.5087 63.512C74.5087 65.2293 74.2314 66.808 73.6767 68.248C73.1327 69.6773 72.3594 70.9147 71.3567 71.96C70.3541 72.9947 69.1541 73.8 67.7567 74.376C66.3594 74.952 64.8074 75.24 63.1007 75.24C61.4047 75.24 59.8527 74.952 58.4447 74.376C57.0474 73.8 55.8474 72.9947 54.8447 71.96C53.8527 70.9147 53.0794 69.6773 52.5247 68.248C51.9701 66.808 51.6927 65.2293 51.6927 63.512C51.6927 61.8053 51.9701 60.232 52.5247 58.792C53.0794 57.352 53.8527 56.1147 54.8447 55.08C55.8474 54.0347 57.0474 53.224 58.4447 52.648C59.8527 52.0613 61.4047 51.768 63.1007 51.768C64.8074 51.768 66.3594 52.0613 67.7567 52.648C69.1541 53.224 70.3541 54.0347 71.3567 55.08C72.3594 56.1147 73.1327 57.352 73.6767 58.792C74.2314 60.232 74.5087 61.8053 74.5087 63.512ZM71.0207 63.512C71.0207 62.1467 70.8341 60.92 70.4607 59.832C70.0874 58.744 69.5541 57.8213 68.8607 57.064C68.1781 56.3067 67.3461 55.7253 66.3647 55.32C65.3941 54.9147 64.3061 54.712 63.1007 54.712C61.8954 54.712 60.8021 54.9147 59.8207 55.32C58.8501 55.7253 58.0181 56.3067 57.3247 57.064C56.6314 57.8213 56.0981 58.744 55.7247 59.832C55.3514 60.92 55.1647 62.1467 55.1647 63.512C55.1647 64.888 55.3514 66.12 55.7247 67.208C56.0981 68.2853 56.6314 69.2027 57.3247 69.96C58.0181 70.7173 58.8501 71.2987 59.8207 71.704C60.8021 72.0987 61.8954 72.296 63.1007 72.296C64.3061 72.296 65.3941 72.0987 66.3647 71.704C67.3461 71.2987 68.1781 70.7173 68.8607 69.96C69.5541 69.2027 70.0874 68.2853 70.4607 67.208C70.8341 66.12 71.0207 64.888 71.0207 63.512ZM87.3482 63.848C88.2122 63.848 88.9696 63.736 89.6202 63.512C90.2816 63.288 90.8309 62.9733 91.2682 62.568C91.7162 62.152 92.0522 61.6613 92.2762 61.096C92.5002 60.52 92.6122 59.8853 92.6122 59.192C92.6122 57.7947 92.1749 56.696 91.3002 55.896C90.4362 55.096 89.1189 54.696 87.3482 54.696H83.7962V63.848H87.3482ZM87.3482 52.024C88.8202 52.024 90.1002 52.1947 91.1882 52.536C92.2762 52.8773 93.1776 53.3627 93.8922 53.992C94.6069 54.6107 95.1349 55.3627 95.4762 56.248C95.8282 57.1333 96.0042 58.1147 96.0042 59.192C96.0042 60.2693 95.8176 61.2613 95.4442 62.168C95.0709 63.064 94.5216 63.8373 93.7962 64.488C93.0709 65.1387 92.1642 65.6453 91.0762 66.008C89.9989 66.36 88.7562 66.536 87.3482 66.536H83.7962V75H80.3882V52.024H87.3482ZM115.619 72.232L115.603 75H101.363V52.024H115.603V54.792H104.787V62.072H113.491V64.744H104.787V72.232H115.619ZM140.248 52.024V75H138.52C138.253 75 138.029 74.952 137.848 74.856C137.677 74.76 137.501 74.6053 137.32 74.392L124.344 57.608C124.365 57.896 124.381 58.1787 124.392 58.456C124.413 58.7333 124.424 58.9947 124.424 59.24V75H121.432V52.024H123.192C123.491 52.024 123.715 52.0613 123.864 52.136C124.013 52.2 124.179 52.3547 124.36 52.6L137.368 69.4C137.336 69.0907 137.309 68.792 137.288 68.504C137.277 68.2053 137.272 67.928 137.272 67.672V52.024H140.248ZM178.634 63.512C178.634 65.2293 178.356 66.808 177.802 68.248C177.258 69.6773 176.484 70.9147 175.482 71.96C174.479 72.9947 173.279 73.8 171.882 74.376C170.484 74.952 168.932 75.24 167.226 75.24C165.53 75.24 163.978 74.952 162.57 74.376C161.172 73.8 159.972 72.9947 158.97 71.96C157.978 70.9147 157.204 69.6773 156.65 68.248C156.095 66.808 155.818 65.2293 155.818 63.512C155.818 61.8053 156.095 60.232 156.65 58.792C157.204 57.352 157.978 56.1147 158.97 55.08C159.972 54.0347 161.172 53.224 162.57 52.648C163.978 52.0613 165.53 51.768 167.226 51.768C168.932 51.768 170.484 52.0613 171.882 52.648C173.279 53.224 174.479 54.0347 175.482 55.08C176.484 56.1147 177.258 57.352 177.802 58.792C178.356 60.232 178.634 61.8053 178.634 63.512ZM175.146 63.512C175.146 62.1467 174.959 60.92 174.586 59.832C174.212 58.744 173.679 57.8213 172.986 57.064C172.303 56.3067 171.471 55.7253 170.49 55.32C169.519 54.9147 168.431 54.712 167.226 54.712C166.02 54.712 164.927 54.9147 163.946 55.32C162.975 55.7253 162.143 56.3067 161.45 57.064C160.756 57.8213 160.223 58.744 159.85 59.832C159.476 60.92 159.29 62.1467 159.29 63.512C159.29 64.888 159.476 66.12 159.85 67.208C160.223 68.2853 160.756 69.2027 161.45 69.96C162.143 70.7173 162.975 71.2987 163.946 71.704C164.927 72.0987 166.02 72.296 167.226 72.296C168.431 72.296 169.519 72.0987 170.49 71.704C171.471 71.2987 172.303 70.7173 172.986 69.96C173.679 69.2027 174.212 68.2853 174.586 67.208C174.959 66.12 175.146 64.888 175.146 63.512ZM191.473 63.848C192.337 63.848 193.095 63.736 193.745 63.512C194.407 63.288 194.956 62.9733 195.393 62.568C195.841 62.152 196.177 61.6613 196.401 61.096C196.625 60.52 196.737 59.8853 196.737 59.192C196.737 57.7947 196.3 56.696 195.425 55.896C194.561 55.096 193.244 54.696 191.473 54.696H187.921V63.848H191.473ZM191.473 52.024C192.945 52.024 194.225 52.1947 195.313 52.536C196.401 52.8773 197.303 53.3627 198.017 53.992C198.732 54.6107 199.26 55.3627 199.601 56.248C199.953 57.1333 200.129 58.1147 200.129 59.192C200.129 60.2693 199.943 61.2613 199.569 62.168C199.196 63.064 198.647 63.8373 197.921 64.488C197.196 65.1387 196.289 65.6453 195.201 66.008C194.124 66.36 192.881 66.536 191.473 66.536H187.921V75H184.513V52.024H191.473ZM219.744 72.232L219.728 75H205.488V52.024H219.728V54.792H208.912V62.072H217.616V64.744H208.912V72.232H219.744ZM232.069 63.096C232.944 63.096 233.712 62.9893 234.373 62.776C235.045 62.5627 235.605 62.264 236.053 61.88C236.501 61.4853 236.837 61.0213 237.061 60.488C237.285 59.944 237.397 59.3467 237.397 58.696C237.397 57.3733 236.96 56.376 236.085 55.704C235.221 55.032 233.92 54.696 232.181 54.696H228.965V63.096H232.069ZM242.789 75H239.749C239.141 75 238.698 74.76 238.421 74.28L232.741 66.312C232.56 66.0453 232.362 65.8587 232.149 65.752C231.936 65.6347 231.616 65.576 231.189 65.576H228.965V75H225.557V52.024H232.181C233.664 52.024 234.938 52.1787 236.005 52.488C237.082 52.7867 237.968 53.2187 238.661 53.784C239.365 54.3387 239.882 55.0107 240.213 55.8C240.554 56.5893 240.725 57.4747 240.725 58.456C240.725 59.256 240.602 60.008 240.357 60.712C240.112 61.416 239.749 62.0507 239.269 62.616C238.8 63.1707 238.224 63.6507 237.541 64.056C236.858 64.4613 236.085 64.7707 235.221 64.984C235.648 65.24 236.016 65.5973 236.325 66.056L242.789 75ZM259.552 66.44L256.144 57.528C255.899 56.92 255.654 56.152 255.408 55.224C255.291 55.6827 255.168 56.1093 255.04 56.504C254.923 56.8987 254.806 57.2507 254.688 57.56L251.296 66.44H259.552ZM266.288 75H263.664C263.366 75 263.12 74.9253 262.928 74.776C262.736 74.6267 262.598 74.4347 262.512 74.2L260.48 68.872H250.352L248.32 74.2C248.246 74.4027 248.107 74.5893 247.904 74.76C247.702 74.92 247.456 75 247.168 75H244.544L253.696 52.024H257.136L266.288 75ZM284.171 54.872H276.875V75H273.483V54.872H266.155V52.024H284.171V54.872ZM292.5 75H289.076V52.024H292.5V75ZM321.177 63.512C321.177 65.2293 320.9 66.808 320.345 68.248C319.801 69.6773 319.028 70.9147 318.025 71.96C317.023 72.9947 315.823 73.8 314.425 74.376C313.028 74.952 311.476 75.24 309.769 75.24C308.073 75.24 306.521 74.952 305.113 74.376C303.716 73.8 302.516 72.9947 301.513 71.96C300.521 70.9147 299.748 69.6773 299.193 68.248C298.639 66.808 298.361 65.2293 298.361 63.512C298.361 61.8053 298.639 60.232 299.193 58.792C299.748 57.352 300.521 56.1147 301.513 55.08C302.516 54.0347 303.716 53.224 305.113 52.648C306.521 52.0613 308.073 51.768 309.769 51.768C311.476 51.768 313.028 52.0613 314.425 52.648C315.823 53.224 317.023 54.0347 318.025 55.08C319.028 56.1147 319.801 57.352 320.345 58.792C320.9 60.232 321.177 61.8053 321.177 63.512ZM317.689 63.512C317.689 62.1467 317.503 60.92 317.129 59.832C316.756 58.744 316.223 57.8213 315.529 57.064C314.847 56.3067 314.015 55.7253 313.033 55.32C312.063 54.9147 310.975 54.712 309.769 54.712C308.564 54.712 307.471 54.9147 306.489 55.32C305.519 55.7253 304.687 56.3067 303.993 57.064C303.3 57.8213 302.767 58.744 302.393 59.832C302.02 60.92 301.833 62.1467 301.833 63.512C301.833 64.888 302.02 66.12 302.393 67.208C302.767 68.2853 303.3 69.2027 303.993 69.96C304.687 70.7173 305.519 71.2987 306.489 71.704C307.471 72.0987 308.564 72.296 309.769 72.296C310.975 72.296 312.063 72.0987 313.033 71.704C314.015 71.2987 314.847 70.7173 315.529 69.96C316.223 69.2027 316.756 68.2853 317.129 67.208C317.503 66.12 317.689 64.888 317.689 63.512ZM345.873 52.024V75H344.145C343.878 75 343.654 74.952 343.473 74.856C343.302 74.76 343.126 74.6053 342.945 74.392L329.969 57.608C329.99 57.896 330.006 58.1787 330.017 58.456C330.038 58.7333 330.049 58.9947 330.049 59.24V75H327.057V52.024H328.817C329.116 52.024 329.34 52.0613 329.489 52.136C329.638 52.2 329.804 52.3547 329.985 52.6L342.993 69.4C342.961 69.0907 342.934 68.792 342.913 68.504C342.902 68.2053 342.897 67.928 342.897 67.672V52.024H345.873ZM365.045 55.768C364.938 55.9493 364.826 56.0827 364.709 56.168C364.592 56.2533 364.442 56.296 364.261 56.296C364.069 56.296 363.85 56.2107 363.605 56.04C363.36 55.8587 363.05 55.6613 362.677 55.448C362.314 55.224 361.877 55.0267 361.365 54.856C360.853 54.6747 360.24 54.584 359.525 54.584C358.853 54.584 358.261 54.6747 357.749 54.856C357.248 55.0267 356.826 55.2667 356.485 55.576C356.144 55.8747 355.882 56.232 355.701 56.648C355.53 57.0533 355.445 57.496 355.445 57.976C355.445 58.5947 355.6 59.1067 355.909 59.512C356.229 59.9173 356.645 60.264 357.157 60.552C357.669 60.84 358.25 61.0907 358.901 61.304C359.552 61.5173 360.218 61.7413 360.901 61.976C361.584 62.2 362.25 62.4613 362.901 62.76C363.552 63.0587 364.133 63.4373 364.645 63.896C365.157 64.344 365.568 64.8987 365.877 65.56C366.197 66.2107 366.357 67.0107 366.357 67.96C366.357 68.9733 366.181 69.9227 365.829 70.808C365.488 71.6933 364.986 72.4667 364.325 73.128C363.664 73.7893 362.848 74.312 361.877 74.696C360.917 75.0693 359.824 75.256 358.597 75.256C357.861 75.256 357.146 75.1813 356.453 75.032C355.76 74.8933 355.104 74.696 354.485 74.44C353.866 74.1733 353.285 73.8587 352.741 73.496C352.208 73.1227 351.728 72.7067 351.301 72.248L352.277 70.616C352.373 70.488 352.485 70.3813 352.613 70.296C352.752 70.2107 352.906 70.168 353.077 70.168C353.301 70.168 353.557 70.2853 353.845 70.52C354.144 70.7547 354.506 71.016 354.933 71.304C355.37 71.5813 355.888 71.8373 356.485 72.072C357.093 72.3067 357.829 72.424 358.693 72.424C359.397 72.424 360.026 72.3333 360.581 72.152C361.136 71.96 361.6 71.6933 361.973 71.352C362.357 71 362.65 70.5787 362.853 70.088C363.056 69.5973 363.157 69.0533 363.157 68.456C363.157 67.784 363.002 67.2347 362.693 66.808C362.384 66.3813 361.973 66.024 361.461 65.736C360.949 65.448 360.368 65.2027 359.717 65C359.066 64.7973 358.4 64.5893 357.717 64.376C357.034 64.152 356.368 63.896 355.717 63.608C355.066 63.32 354.485 62.9467 353.973 62.488C353.461 62.0187 353.05 61.4373 352.741 60.744C352.432 60.04 352.277 59.176 352.277 58.152C352.277 57.3307 352.437 56.536 352.757 55.768C353.077 55 353.541 54.3227 354.149 53.736C354.768 53.1387 355.525 52.664 356.421 52.312C357.317 51.9493 358.341 51.768 359.493 51.768C360.784 51.768 361.968 51.976 363.045 52.392C364.133 52.7973 365.077 53.384 365.877 54.152L365.045 55.768ZM406.017 52.024V75H403.041V58.648C403.041 58.4027 403.046 58.1413 403.057 57.864C403.078 57.5867 403.1 57.304 403.121 57.016L395.473 71.048C395.206 71.5707 394.796 71.832 394.241 71.832H393.761C393.206 71.832 392.801 71.5707 392.545 71.048L384.753 56.968C384.817 57.5653 384.849 58.1253 384.849 58.648V75H381.857V52.024H384.385C384.684 52.024 384.913 52.056 385.073 52.12C385.244 52.1733 385.404 52.3333 385.553 52.6L393.233 66.36C393.382 66.6373 393.521 66.9307 393.649 67.24C393.777 67.5493 393.9 67.8587 394.017 68.168C394.241 67.5387 394.502 66.9307 394.801 66.344L402.337 52.6C402.476 52.3333 402.625 52.1733 402.785 52.12C402.956 52.056 403.19 52.024 403.489 52.024H406.017ZM425.509 66.44L422.101 57.528C421.855 56.92 421.61 56.152 421.365 55.224C421.247 55.6827 421.125 56.1093 420.997 56.504C420.879 56.8987 420.762 57.2507 420.645 57.56L417.253 66.44H425.509ZM432.245 75H429.621C429.322 75 429.077 74.9253 428.885 74.776C428.693 74.6267 428.554 74.4347 428.469 74.2L426.437 68.872H416.309L414.277 74.2C414.202 74.4027 414.063 74.5893 413.861 74.76C413.658 74.92 413.413 75 413.125 75H410.501L419.653 52.024H423.093L432.245 75ZM455.529 52.024V75H453.801C453.535 75 453.311 74.952 453.129 74.856C452.959 74.76 452.783 74.6053 452.601 74.392L439.625 57.608C439.647 57.896 439.663 58.1787 439.673 58.456C439.695 58.7333 439.705 58.9947 439.705 59.24V75H436.713V52.024H438.473C438.772 52.024 438.996 52.0613 439.145 52.136C439.295 52.2 439.46 52.3547 439.641 52.6L452.649 69.4C452.617 69.0907 452.591 68.792 452.569 68.504C452.559 68.2053 452.553 67.928 452.553 67.672V52.024H455.529ZM466.237 75H462.813V52.024H466.237V75ZM476.931 54.792V62.488H486.147V65.256H476.931V75H473.507V52.024H487.747V54.792H476.931ZM507.457 72.232L507.441 75H493.201V52.024H507.441V54.792H496.625V62.072H505.329V64.744H496.625V72.232H507.457ZM525.158 55.768C525.051 55.9493 524.939 56.0827 524.822 56.168C524.704 56.2533 524.555 56.296 524.374 56.296C524.182 56.296 523.963 56.2107 523.718 56.04C523.472 55.8587 523.163 55.6613 522.79 55.448C522.427 55.224 521.99 55.0267 521.478 54.856C520.966 54.6747 520.352 54.584 519.638 54.584C518.966 54.584 518.374 54.6747 517.862 54.856C517.36 55.0267 516.939 55.2667 516.598 55.576C516.256 55.8747 515.995 56.232 515.814 56.648C515.643 57.0533 515.558 57.496 515.558 57.976C515.558 58.5947 515.712 59.1067 516.022 59.512C516.342 59.9173 516.758 60.264 517.27 60.552C517.782 60.84 518.363 61.0907 519.014 61.304C519.664 61.5173 520.331 61.7413 521.014 61.976C521.696 62.2 522.363 62.4613 523.014 62.76C523.664 63.0587 524.246 63.4373 524.758 63.896C525.27 64.344 525.68 64.8987 525.99 65.56C526.31 66.2107 526.47 67.0107 526.47 67.96C526.47 68.9733 526.294 69.9227 525.942 70.808C525.6 71.6933 525.099 72.4667 524.438 73.128C523.776 73.7893 522.96 74.312 521.99 74.696C521.03 75.0693 519.936 75.256 518.71 75.256C517.974 75.256 517.259 75.1813 516.566 75.032C515.872 74.8933 515.216 74.696 514.598 74.44C513.979 74.1733 513.398 73.8587 512.854 73.496C512.32 73.1227 511.84 72.7067 511.414 72.248L512.39 70.616C512.486 70.488 512.598 70.3813 512.726 70.296C512.864 70.2107 513.019 70.168 513.19 70.168C513.414 70.168 513.67 70.2853 513.958 70.52C514.256 70.7547 514.619 71.016 515.046 71.304C515.483 71.5813 516 71.8373 516.598 72.072C517.206 72.3067 517.942 72.424 518.806 72.424C519.51 72.424 520.139 72.3333 520.694 72.152C521.248 71.96 521.712 71.6933 522.086 71.352C522.47 71 522.763 70.5787 522.966 70.088C523.168 69.5973 523.27 69.0533 523.27 68.456C523.27 67.784 523.115 67.2347 522.806 66.808C522.496 66.3813 522.086 66.024 521.574 65.736C521.062 65.448 520.48 65.2027 519.83 65C519.179 64.7973 518.512 64.5893 517.83 64.376C517.147 64.152 516.48 63.896 515.83 63.608C515.179 63.32 514.598 62.9467 514.086 62.488C513.574 62.0187 513.163 61.4373 512.854 60.744C512.544 60.04 512.39 59.176 512.39 58.152C512.39 57.3307 512.55 56.536 512.87 55.768C513.19 55 513.654 54.3227 514.262 53.736C514.88 53.1387 515.638 52.664 516.534 52.312C517.43 51.9493 518.454 51.768 519.606 51.768C520.896 51.768 522.08 51.976 523.158 52.392C524.246 52.7973 525.19 53.384 525.99 54.152L525.158 55.768ZM547.94 54.872H540.644V75H537.252V54.872H529.924V52.024H547.94V54.872ZM573.284 63.512C573.284 65.2293 573.006 66.808 572.452 68.248C571.908 69.6773 571.134 70.9147 570.132 71.96C569.129 72.9947 567.929 73.8 566.532 74.376C565.134 74.952 563.582 75.24 561.876 75.24C560.18 75.24 558.628 74.952 557.22 74.376C555.822 73.8 554.622 72.9947 553.62 71.96C552.628 70.9147 551.854 69.6773 551.3 68.248C550.745 66.808 550.468 65.2293 550.468 63.512C550.468 61.8053 550.745 60.232 551.3 58.792C551.854 57.352 552.628 56.1147 553.62 55.08C554.622 54.0347 555.822 53.224 557.22 52.648C558.628 52.0613 560.18 51.768 561.876 51.768C563.582 51.768 565.134 52.0613 566.532 52.648C567.929 53.224 569.129 54.0347 570.132 55.08C571.134 56.1147 571.908 57.352 572.452 58.792C573.006 60.232 573.284 61.8053 573.284 63.512ZM569.796 63.512C569.796 62.1467 569.609 60.92 569.236 59.832C568.862 58.744 568.329 57.8213 567.636 57.064C566.953 56.3067 566.121 55.7253 565.14 55.32C564.169 54.9147 563.081 54.712 561.876 54.712C560.67 54.712 559.577 54.9147 558.596 55.32C557.625 55.7253 556.793 56.3067 556.1 57.064C555.406 57.8213 554.873 58.744 554.5 59.832C554.126 60.92 553.94 62.1467 553.94 63.512C553.94 64.888 554.126 66.12 554.5 67.208C554.873 68.2853 555.406 69.2027 556.1 69.96C556.793 70.7173 557.625 71.2987 558.596 71.704C559.577 72.0987 560.67 72.296 561.876 72.296C563.081 72.296 564.169 72.0987 565.14 71.704C566.121 71.2987 566.953 70.7173 567.636 69.96C568.329 69.2027 568.862 68.2853 569.236 67.208C569.609 66.12 569.796 64.888 569.796 63.512Z" fill="#3F3F46"/>
<path d="M220.318 91.9858C220.642 91.9858 220.918 91.9478 221.146 91.8718C221.378 91.7958 221.566 91.6918 221.71 91.5598C221.858 91.4278 221.966 91.2718 222.034 91.0918C222.102 90.9078 222.136 90.7078 222.136 90.4918C222.136 90.0638 221.988 89.7278 221.692 89.4838C221.396 89.2358 220.938 89.1118 220.318 89.1118H218.518V91.9858H220.318ZM218.518 85.3858V88.2058H219.988C220.616 88.2058 221.082 88.0798 221.386 87.8278C221.694 87.5718 221.848 87.2278 221.848 86.7958C221.848 86.3038 221.702 85.9458 221.41 85.7218C221.118 85.4978 220.664 85.3858 220.048 85.3858H218.518ZM220.048 84.3838C220.588 84.3838 221.05 84.4358 221.434 84.5398C221.822 84.6438 222.14 84.7938 222.388 84.9898C222.636 85.1858 222.818 85.4238 222.934 85.7038C223.054 85.9798 223.114 86.2938 223.114 86.6458C223.114 86.8538 223.082 87.0538 223.018 87.2458C222.954 87.4378 222.856 87.6178 222.724 87.7858C222.592 87.9498 222.426 88.0978 222.226 88.2298C222.026 88.3618 221.79 88.4718 221.518 88.5598C222.77 88.8078 223.396 89.4618 223.396 90.5218C223.396 90.8898 223.328 91.2258 223.192 91.5298C223.056 91.8298 222.858 92.0898 222.598 92.3098C222.338 92.5298 222.018 92.6998 221.638 92.8198C221.258 92.9398 220.826 92.9998 220.342 92.9998H217.24V84.3838H220.048ZM229.926 86.9038V92.9998H229.224C229.064 92.9998 228.96 92.9218 228.912 92.7658L228.828 92.1538C228.696 92.2938 228.558 92.4218 228.414 92.5378C228.27 92.6538 228.116 92.7538 227.952 92.8378C227.788 92.9178 227.614 92.9798 227.43 93.0238C227.246 93.0718 227.048 93.0958 226.836 93.0958C226.5 93.0958 226.204 93.0398 225.948 92.9278C225.696 92.8158 225.484 92.6598 225.312 92.4598C225.14 92.2558 225.01 92.0118 224.922 91.7278C224.834 91.4438 224.79 91.1298 224.79 90.7858V86.9038H225.966V90.7858C225.966 91.2218 226.066 91.5618 226.266 91.8058C226.466 92.0458 226.772 92.1658 227.184 92.1658C227.484 92.1658 227.764 92.0958 228.024 91.9558C228.284 91.8118 228.528 91.6158 228.756 91.3678V86.9038H229.926ZM232.963 86.9038V92.9998H231.793V86.9038H232.963ZM233.185 85.0198C233.185 85.1278 233.163 85.2318 233.119 85.3318C233.075 85.4278 233.015 85.5138 232.939 85.5898C232.867 85.6618 232.781 85.7198 232.681 85.7638C232.581 85.8038 232.477 85.8238 232.369 85.8238C232.261 85.8238 232.159 85.8038 232.063 85.7638C231.967 85.7198 231.881 85.6618 231.805 85.5898C231.733 85.5138 231.675 85.4278 231.631 85.3318C231.591 85.2318 231.571 85.1278 231.571 85.0198C231.571 84.9078 231.591 84.8038 231.631 84.7078C231.675 84.6078 231.733 84.5218 231.805 84.4498C231.881 84.3738 231.967 84.3158 232.063 84.2758C232.159 84.2318 232.261 84.2098 232.369 84.2098C232.477 84.2098 232.581 84.2318 232.681 84.2758C232.781 84.3158 232.867 84.3738 232.939 84.4498C233.015 84.5218 233.075 84.6078 233.119 84.7078C233.163 84.8038 233.185 84.9078 233.185 85.0198ZM236.037 84.1438V92.9998H234.861V84.1438H236.037ZM241.818 88.3798C241.626 88.1278 241.418 87.9518 241.194 87.8518C240.974 87.7518 240.726 87.7018 240.45 87.7018C239.914 87.7018 239.498 87.8958 239.202 88.2838C238.91 88.6678 238.764 89.2298 238.764 89.9698C238.764 90.3578 238.796 90.6898 238.86 90.9658C238.928 91.2378 239.024 91.4618 239.148 91.6378C239.276 91.8098 239.432 91.9378 239.616 92.0218C239.8 92.1018 240.008 92.1418 240.24 92.1418C240.58 92.1418 240.874 92.0658 241.122 91.9138C241.37 91.7618 241.602 91.5478 241.818 91.2718V88.3798ZM242.994 84.1438V92.9998H242.286C242.122 92.9998 242.02 92.9218 241.98 92.7658L241.878 92.0638C241.618 92.3718 241.322 92.6198 240.99 92.8078C240.662 92.9918 240.282 93.0838 239.85 93.0838C239.502 93.0838 239.186 93.0158 238.902 92.8798C238.622 92.7438 238.382 92.5458 238.182 92.2858C237.982 92.0218 237.828 91.6958 237.72 91.3078C237.612 90.9198 237.558 90.4738 237.558 89.9698C237.558 89.5178 237.618 89.0978 237.738 88.7098C237.858 88.3218 238.032 87.9858 238.26 87.7018C238.488 87.4178 238.764 87.1958 239.088 87.0358C239.412 86.8718 239.778 86.7898 240.186 86.7898C240.554 86.7898 240.866 86.8498 241.122 86.9698C241.382 87.0898 241.614 87.2598 241.818 87.4798V84.1438H242.994ZM246.03 86.9038V92.9998H244.86V86.9038H246.03ZM246.252 85.0198C246.252 85.1278 246.23 85.2318 246.186 85.3318C246.142 85.4278 246.082 85.5138 246.006 85.5898C245.934 85.6618 245.848 85.7198 245.748 85.7638C245.648 85.8038 245.544 85.8238 245.436 85.8238C245.328 85.8238 245.226 85.8038 245.13 85.7638C245.034 85.7198 244.948 85.6618 244.872 85.5898C244.8 85.5138 244.742 85.4278 244.698 85.3318C244.658 85.2318 244.638 85.1278 244.638 85.0198C244.638 84.9078 244.658 84.8038 244.698 84.7078C244.742 84.6078 244.8 84.5218 244.872 84.4498C244.948 84.3738 245.034 84.3158 245.13 84.2758C245.226 84.2318 245.328 84.2098 245.436 84.2098C245.544 84.2098 245.648 84.2318 245.748 84.2758C245.848 84.3158 245.934 84.3738 246.006 84.4498C246.082 84.5218 246.142 84.6078 246.186 84.7078C246.23 84.8038 246.252 84.9078 246.252 85.0198ZM249.002 87.7498C249.134 87.6098 249.272 87.4818 249.416 87.3658C249.56 87.2498 249.712 87.1518 249.872 87.0718C250.036 86.9878 250.21 86.9238 250.394 86.8798C250.582 86.8318 250.782 86.8078 250.994 86.8078C251.33 86.8078 251.624 86.8638 251.876 86.9758C252.132 87.0878 252.346 87.2458 252.518 87.4498C252.69 87.6498 252.82 87.8918 252.908 88.1758C252.996 88.4598 253.04 88.7738 253.04 89.1178V92.9998H251.864V89.1178C251.864 88.6818 251.764 88.3438 251.564 88.1038C251.364 87.8598 251.058 87.7378 250.646 87.7378C250.346 87.7378 250.064 87.8098 249.8 87.9538C249.54 88.0938 249.298 88.2858 249.074 88.5298V92.9998H247.904V86.9038H248.606C248.77 86.9038 248.872 86.9818 248.912 87.1378L249.002 87.7498ZM256.941 89.9578C257.149 89.9578 257.331 89.9298 257.487 89.8738C257.647 89.8178 257.779 89.7398 257.883 89.6398C257.991 89.5358 258.071 89.4118 258.123 89.2678C258.179 89.1238 258.207 88.9658 258.207 88.7938C258.207 88.4418 258.099 88.1618 257.883 87.9538C257.671 87.7418 257.357 87.6358 256.941 87.6358C256.529 87.6358 256.215 87.7418 255.999 87.9538C255.787 88.1618 255.681 88.4418 255.681 88.7938C255.681 88.9658 255.707 89.1238 255.759 89.2678C255.815 89.4078 255.895 89.5298 255.999 89.6338C256.107 89.7338 256.239 89.8138 256.395 89.8738C256.555 89.9298 256.737 89.9578 256.941 89.9578ZM258.807 93.3178C258.807 93.1738 258.767 93.0598 258.687 92.9758C258.607 92.8878 258.497 92.8198 258.357 92.7718C258.221 92.7198 258.061 92.6838 257.877 92.6638C257.693 92.6398 257.499 92.6218 257.295 92.6098C257.095 92.5978 256.889 92.5878 256.677 92.5798C256.465 92.5678 256.261 92.5478 256.065 92.5198C255.857 92.6238 255.685 92.7498 255.549 92.8978C255.417 93.0458 255.351 93.2198 255.351 93.4198C255.351 93.5478 255.383 93.6678 255.447 93.7798C255.515 93.8918 255.617 93.9878 255.753 94.0678C255.893 94.1518 256.067 94.2158 256.275 94.2598C256.487 94.3078 256.739 94.3318 257.031 94.3318C257.319 94.3318 257.573 94.3058 257.793 94.2538C258.013 94.2058 258.197 94.1358 258.345 94.0438C258.497 93.9558 258.611 93.8498 258.687 93.7258C258.767 93.6018 258.807 93.4658 258.807 93.3178ZM259.995 87.1318V87.5698C259.995 87.7138 259.905 87.8038 259.725 87.8398L259.071 87.9358C259.127 88.0598 259.171 88.1918 259.203 88.3318C259.235 88.4678 259.251 88.6118 259.251 88.7638C259.251 89.0638 259.193 89.3358 259.077 89.5798C258.961 89.8198 258.801 90.0258 258.597 90.1978C258.393 90.3698 258.149 90.5018 257.865 90.5938C257.585 90.6858 257.277 90.7318 256.941 90.7318C256.665 90.7318 256.407 90.7018 256.167 90.6418C256.047 90.7138 255.955 90.7938 255.891 90.8818C255.831 90.9658 255.801 91.0498 255.801 91.1338C255.801 91.2738 255.859 91.3778 255.975 91.4458C256.095 91.5138 256.249 91.5638 256.437 91.5958C256.629 91.6238 256.847 91.6418 257.091 91.6498C257.339 91.6578 257.589 91.6718 257.841 91.6918C258.097 91.7078 258.347 91.7398 258.591 91.7878C258.839 91.8318 259.057 91.9058 259.245 92.0098C259.437 92.1098 259.591 92.2498 259.707 92.4298C259.827 92.6058 259.887 92.8358 259.887 93.1198C259.887 93.3838 259.821 93.6398 259.689 93.8878C259.561 94.1358 259.373 94.3558 259.125 94.5478C258.877 94.7398 258.575 94.8938 258.219 95.0098C257.863 95.1258 257.459 95.1838 257.007 95.1838C256.555 95.1838 256.161 95.1398 255.825 95.0518C255.493 94.9638 255.215 94.8458 254.991 94.6978C254.771 94.5498 254.605 94.3778 254.493 94.1818C254.385 93.9858 254.331 93.7818 254.331 93.5698C254.331 93.2738 254.423 93.0238 254.607 92.8198C254.791 92.6118 255.045 92.4498 255.369 92.3338C255.193 92.2538 255.053 92.1458 254.949 92.0098C254.845 91.8698 254.793 91.6858 254.793 91.4578C254.793 91.3698 254.809 91.2798 254.841 91.1878C254.873 91.0918 254.921 90.9978 254.985 90.9058C255.053 90.8098 255.135 90.7198 255.231 90.6358C255.331 90.5518 255.445 90.4758 255.573 90.4078C255.273 90.2398 255.037 90.0178 254.865 89.7418C254.693 89.4618 254.607 89.1358 254.607 88.7638C254.607 88.4638 254.665 88.1938 254.781 87.9538C254.897 87.7138 255.057 87.5078 255.261 87.3358C255.469 87.1638 255.715 87.0318 255.999 86.9398C256.287 86.8478 256.601 86.8018 256.941 86.8018C257.469 86.8018 257.923 86.9118 258.303 87.1318H259.995ZM267.74 90.2938C267.264 90.3098 266.86 90.3478 266.528 90.4078C266.196 90.4638 265.926 90.5398 265.718 90.6358C265.51 90.7318 265.36 90.8458 265.268 90.9778C265.176 91.1058 265.13 91.2498 265.13 91.4098C265.13 91.5618 265.154 91.6938 265.202 91.8058C265.254 91.9138 265.322 92.0038 265.406 92.0758C265.494 92.1438 265.596 92.1938 265.712 92.2258C265.828 92.2578 265.954 92.2738 266.09 92.2738C266.27 92.2738 266.434 92.2558 266.582 92.2198C266.734 92.1838 266.876 92.1338 267.008 92.0698C267.14 92.0018 267.266 91.9198 267.386 91.8238C267.506 91.7278 267.624 91.6178 267.74 91.4938V90.2938ZM264.308 87.7558C264.648 87.4318 265.016 87.1898 265.412 87.0298C265.812 86.8698 266.25 86.7898 266.726 86.7898C267.074 86.7898 267.382 86.8478 267.65 86.9638C267.918 87.0758 268.144 87.2338 268.328 87.4378C268.512 87.6418 268.65 87.8858 268.742 88.1698C268.838 88.4538 268.886 88.7678 268.886 89.1118V92.9998H268.364C268.248 92.9998 268.16 92.9818 268.1 92.9458C268.04 92.9058 267.992 92.8338 267.956 92.7298L267.83 92.1958C267.674 92.3398 267.52 92.4678 267.368 92.5798C267.216 92.6878 267.056 92.7818 266.888 92.8618C266.724 92.9378 266.548 92.9958 266.36 93.0358C266.172 93.0758 265.964 93.0958 265.736 93.0958C265.496 93.0958 265.27 93.0638 265.058 92.9998C264.85 92.9318 264.668 92.8298 264.512 92.6938C264.356 92.5578 264.232 92.3878 264.14 92.1838C264.052 91.9798 264.008 91.7418 264.008 91.4698C264.008 91.2298 264.072 90.9998 264.2 90.7798C264.332 90.5558 264.544 90.3558 264.836 90.1798C265.132 90.0038 265.516 89.8598 265.988 89.7478C266.464 89.6358 267.048 89.5718 267.74 89.5558V89.1118C267.74 88.6518 267.642 88.3078 267.446 88.0798C267.25 87.8518 266.962 87.7378 266.582 87.7378C266.326 87.7378 266.11 87.7698 265.934 87.8338C265.762 87.8978 265.612 87.9698 265.484 88.0498C265.36 88.1258 265.25 88.1958 265.154 88.2598C265.062 88.3238 264.966 88.3558 264.866 88.3558C264.786 88.3558 264.716 88.3338 264.656 88.2898C264.6 88.2458 264.554 88.1938 264.518 88.1338L264.308 87.7558ZM278.119 88.0438C278.083 88.0878 278.047 88.1238 278.011 88.1518C277.979 88.1758 277.931 88.1878 277.867 88.1878C277.803 88.1878 277.735 88.1638 277.663 88.1158C277.595 88.0638 277.507 88.0098 277.399 87.9538C277.295 87.8938 277.167 87.8398 277.015 87.7918C276.867 87.7398 276.683 87.7138 276.463 87.7138C276.175 87.7138 275.921 87.7658 275.701 87.8698C275.481 87.9738 275.297 88.1218 275.149 88.3138C275.005 88.5058 274.895 88.7398 274.819 89.0158C274.743 89.2918 274.705 89.6018 274.705 89.9458C274.705 90.3018 274.745 90.6198 274.825 90.8998C274.905 91.1758 275.019 91.4098 275.167 91.6018C275.315 91.7898 275.495 91.9338 275.707 92.0338C275.919 92.1298 276.155 92.1778 276.415 92.1778C276.667 92.1778 276.875 92.1478 277.039 92.0878C277.203 92.0238 277.339 91.9558 277.447 91.8838C277.555 91.8118 277.645 91.7458 277.717 91.6858C277.789 91.6218 277.863 91.5898 277.939 91.5898C278.035 91.5898 278.109 91.6258 278.161 91.6978L278.497 92.1298C278.357 92.3018 278.199 92.4478 278.023 92.5678C277.851 92.6878 277.667 92.7858 277.471 92.8618C277.275 92.9378 277.069 92.9938 276.853 93.0298C276.641 93.0658 276.425 93.0838 276.205 93.0838C275.825 93.0838 275.469 93.0138 275.137 92.8738C274.809 92.7338 274.523 92.5298 274.279 92.2618C274.039 91.9938 273.849 91.6658 273.709 91.2778C273.569 90.8858 273.499 90.4418 273.499 89.9458C273.499 89.4938 273.561 89.0758 273.685 88.6918C273.813 88.3078 273.999 87.9778 274.243 87.7018C274.491 87.4218 274.795 87.2038 275.155 87.0478C275.515 86.8878 275.927 86.8078 276.391 86.8078C276.827 86.8078 277.211 86.8778 277.543 87.0178C277.875 87.1578 278.171 87.3558 278.431 87.6118L278.119 88.0438ZM282.262 86.8078C282.71 86.8078 283.114 86.8818 283.474 87.0298C283.838 87.1738 284.146 87.3838 284.398 87.6598C284.654 87.9318 284.85 88.2618 284.986 88.6498C285.122 89.0338 285.19 89.4658 285.19 89.9458C285.19 90.4258 285.122 90.8598 284.986 91.2478C284.85 91.6358 284.654 91.9658 284.398 92.2378C284.146 92.5098 283.838 92.7198 283.474 92.8678C283.114 93.0118 282.71 93.0838 282.262 93.0838C281.81 93.0838 281.402 93.0118 281.038 92.8678C280.678 92.7198 280.37 92.5098 280.114 92.2378C279.858 91.9658 279.66 91.6358 279.52 91.2478C279.384 90.8598 279.316 90.4258 279.316 89.9458C279.316 89.4658 279.384 89.0338 279.52 88.6498C279.66 88.2618 279.858 87.9318 280.114 87.6598C280.37 87.3838 280.678 87.1738 281.038 87.0298C281.402 86.8818 281.81 86.8078 282.262 86.8078ZM282.262 92.1718C282.838 92.1718 283.268 91.9778 283.552 91.5898C283.836 91.2018 283.978 90.6558 283.978 89.9518C283.978 89.2478 283.836 88.7018 283.552 88.3138C283.268 87.9218 282.838 87.7258 282.262 87.7258C281.678 87.7258 281.242 87.9218 280.954 88.3138C280.67 88.7018 280.528 89.2478 280.528 89.9518C280.528 90.6558 280.67 91.2018 280.954 91.5898C281.242 91.9778 281.678 92.1718 282.262 92.1718ZM286.676 92.9998V86.9038H287.378C287.542 86.9038 287.644 86.9818 287.684 87.1378L287.768 87.7198C287.992 87.4518 288.24 87.2338 288.512 87.0658C288.788 86.8938 289.11 86.8078 289.478 86.8078C289.882 86.8078 290.21 86.9198 290.462 87.1438C290.714 87.3638 290.898 87.6638 291.014 88.0438C291.102 87.8278 291.216 87.6418 291.356 87.4858C291.496 87.3298 291.652 87.2018 291.824 87.1018C291.996 87.0018 292.178 86.9278 292.37 86.8798C292.566 86.8318 292.764 86.8078 292.964 86.8078C293.288 86.8078 293.576 86.8598 293.828 86.9638C294.084 87.0638 294.3 87.2118 294.476 87.4078C294.652 87.6038 294.786 87.8458 294.878 88.1338C294.97 88.4218 295.016 88.7498 295.016 89.1178V92.9998H293.84V89.1178C293.84 88.6618 293.74 88.3178 293.54 88.0858C293.344 87.8538 293.056 87.7378 292.676 87.7378C292.508 87.7378 292.348 87.7678 292.196 87.8278C292.044 87.8838 291.91 87.9698 291.794 88.0858C291.682 88.2018 291.592 88.3458 291.524 88.5178C291.46 88.6898 291.428 88.8898 291.428 89.1178V92.9998H290.252V89.1178C290.252 88.6458 290.158 88.2978 289.97 88.0738C289.782 87.8498 289.506 87.7378 289.142 87.7378C288.89 87.7378 288.656 87.8038 288.44 87.9358C288.224 88.0678 288.026 88.2478 287.846 88.4758V92.9998H286.676ZM296.77 92.9998V86.9038H297.472C297.636 86.9038 297.738 86.9818 297.778 87.1378L297.862 87.7198C298.086 87.4518 298.334 87.2338 298.606 87.0658C298.882 86.8938 299.204 86.8078 299.572 86.8078C299.976 86.8078 300.304 86.9198 300.556 87.1438C300.808 87.3638 300.992 87.6638 301.108 88.0438C301.196 87.8278 301.31 87.6418 301.45 87.4858C301.59 87.3298 301.746 87.2018 301.918 87.1018C302.09 87.0018 302.272 86.9278 302.464 86.8798C302.66 86.8318 302.858 86.8078 303.058 86.8078C303.382 86.8078 303.67 86.8598 303.922 86.9638C304.178 87.0638 304.394 87.2118 304.57 87.4078C304.746 87.6038 304.88 87.8458 304.972 88.1338C305.064 88.4218 305.11 88.7498 305.11 89.1178V92.9998H303.934V89.1178C303.934 88.6618 303.834 88.3178 303.634 88.0858C303.438 87.8538 303.15 87.7378 302.77 87.7378C302.602 87.7378 302.442 87.7678 302.29 87.8278C302.138 87.8838 302.004 87.9698 301.888 88.0858C301.776 88.2018 301.686 88.3458 301.618 88.5178C301.554 88.6898 301.522 88.8898 301.522 89.1178V92.9998H300.346V89.1178C300.346 88.6458 300.252 88.2978 300.064 88.0738C299.876 87.8498 299.6 87.7378 299.236 87.7378C298.984 87.7378 298.75 87.8038 298.534 87.9358C298.318 88.0678 298.12 88.2478 297.94 88.4758V92.9998H296.77ZM311.934 86.9038V92.9998H311.232C311.072 92.9998 310.968 92.9218 310.92 92.7658L310.836 92.1538C310.704 92.2938 310.566 92.4218 310.422 92.5378C310.278 92.6538 310.124 92.7538 309.96 92.8378C309.796 92.9178 309.622 92.9798 309.438 93.0238C309.254 93.0718 309.056 93.0958 308.844 93.0958C308.508 93.0958 308.212 93.0398 307.956 92.9278C307.704 92.8158 307.492 92.6598 307.32 92.4598C307.148 92.2558 307.018 92.0118 306.93 91.7278C306.842 91.4438 306.798 91.1298 306.798 90.7858V86.9038H307.974V90.7858C307.974 91.2218 308.074 91.5618 308.274 91.8058C308.474 92.0458 308.78 92.1658 309.192 92.1658C309.492 92.1658 309.772 92.0958 310.032 91.9558C310.292 91.8118 310.536 91.6158 310.764 91.3678V86.9038H311.934ZM314.845 87.7498C314.977 87.6098 315.115 87.4818 315.259 87.3658C315.403 87.2498 315.555 87.1518 315.715 87.0718C315.879 86.9878 316.053 86.9238 316.237 86.8798C316.425 86.8318 316.625 86.8078 316.837 86.8078C317.173 86.8078 317.467 86.8638 317.719 86.9758C317.975 87.0878 318.189 87.2458 318.361 87.4498C318.533 87.6498 318.663 87.8918 318.751 88.1758C318.839 88.4598 318.883 88.7738 318.883 89.1178V92.9998H317.707V89.1178C317.707 88.6818 317.607 88.3438 317.407 88.1038C317.207 87.8598 316.901 87.7378 316.489 87.7378C316.189 87.7378 315.907 87.8098 315.643 87.9538C315.383 88.0938 315.141 88.2858 314.917 88.5298V92.9998H313.747V86.9038H314.449C314.613 86.9038 314.715 86.9818 314.755 87.1378L314.845 87.7498ZM321.866 86.9038V92.9998H320.696V86.9038H321.866ZM322.088 85.0198C322.088 85.1278 322.066 85.2318 322.022 85.3318C321.978 85.4278 321.918 85.5138 321.842 85.5898C321.77 85.6618 321.684 85.7198 321.584 85.7638C321.484 85.8038 321.38 85.8238 321.272 85.8238C321.164 85.8238 321.062 85.8038 320.966 85.7638C320.87 85.7198 320.784 85.6618 320.708 85.5898C320.636 85.5138 320.578 85.4278 320.534 85.3318C320.494 85.2318 320.474 85.1278 320.474 85.0198C320.474 84.9078 320.494 84.8038 320.534 84.7078C320.578 84.6078 320.636 84.5218 320.708 84.4498C320.784 84.3738 320.87 84.3158 320.966 84.2758C321.062 84.2318 321.164 84.2098 321.272 84.2098C321.38 84.2098 321.484 84.2318 321.584 84.2758C321.684 84.3158 321.77 84.3738 321.842 84.4498C321.918 84.5218 321.978 84.6078 322.022 84.7078C322.066 84.8038 322.088 84.9078 322.088 85.0198ZM325.648 93.0958C325.156 93.0958 324.776 92.9578 324.508 92.6818C324.244 92.4058 324.112 92.0118 324.112 91.4998V87.8518H323.404C323.336 87.8518 323.278 87.8318 323.23 87.7918C323.186 87.7478 323.164 87.6838 323.164 87.5998V87.1258L324.154 86.9878L324.418 85.1698C324.434 85.1018 324.464 85.0498 324.508 85.0138C324.556 84.9738 324.616 84.9538 324.688 84.9538H325.282V86.9998H327.01V87.8518H325.282V91.4218C325.282 91.6618 325.34 91.8418 325.456 91.9618C325.576 92.0778 325.728 92.1358 325.912 92.1358C326.02 92.1358 326.112 92.1218 326.188 92.0938C326.268 92.0658 326.336 92.0358 326.392 92.0038C326.448 91.9678 326.496 91.9358 326.536 91.9078C326.576 91.8798 326.612 91.8658 326.644 91.8658C326.684 91.8658 326.714 91.8758 326.734 91.8958C326.758 91.9118 326.782 91.9398 326.806 91.9798L327.154 92.5438C326.962 92.7198 326.734 92.8558 326.47 92.9518C326.206 93.0478 325.932 93.0958 325.648 93.0958ZM333.596 86.9038L330.212 94.7698C330.176 94.8578 330.128 94.9258 330.068 94.9738C330.008 95.0218 329.92 95.0458 329.804 95.0458H328.934L330.05 92.6158L327.548 86.9038H328.568C328.668 86.9038 328.746 86.9278 328.802 86.9758C328.858 87.0238 328.898 87.0778 328.922 87.1378L330.47 90.7978C330.502 90.8898 330.532 90.9838 330.56 91.0798C330.592 91.1718 330.618 91.2638 330.638 91.3558C330.666 91.2598 330.696 91.1658 330.728 91.0738C330.76 90.9778 330.794 90.8838 330.83 90.7918L332.324 87.1378C332.352 87.0698 332.396 87.0138 332.456 86.9698C332.516 86.9258 332.584 86.9038 332.66 86.9038H333.596ZM340.19 86.8078C340.638 86.8078 341.042 86.8818 341.402 87.0298C341.766 87.1738 342.074 87.3838 342.326 87.6598C342.582 87.9318 342.778 88.2618 342.914 88.6498C343.05 89.0338 343.118 89.4658 343.118 89.9458C343.118 90.4258 343.05 90.8598 342.914 91.2478C342.778 91.6358 342.582 91.9658 342.326 92.2378C342.074 92.5098 341.766 92.7198 341.402 92.8678C341.042 93.0118 340.638 93.0838 340.19 93.0838C339.738 93.0838 339.33 93.0118 338.966 92.8678C338.606 92.7198 338.298 92.5098 338.042 92.2378C337.786 91.9658 337.588 91.6358 337.448 91.2478C337.312 90.8598 337.244 90.4258 337.244 89.9458C337.244 89.4658 337.312 89.0338 337.448 88.6498C337.588 88.2618 337.786 87.9318 338.042 87.6598C338.298 87.3838 338.606 87.1738 338.966 87.0298C339.33 86.8818 339.738 86.8078 340.19 86.8078ZM340.19 92.1718C340.766 92.1718 341.196 91.9778 341.48 91.5898C341.764 91.2018 341.906 90.6558 341.906 89.9518C341.906 89.2478 341.764 88.7018 341.48 88.3138C341.196 87.9218 340.766 87.7258 340.19 87.7258C339.606 87.7258 339.17 87.9218 338.882 88.3138C338.598 88.7018 338.456 89.2478 338.456 89.9518C338.456 90.6558 338.598 91.2018 338.882 91.5898C339.17 91.9778 339.606 92.1718 340.19 92.1718ZM344.866 92.9998V87.8638L344.23 87.7858C344.138 87.7658 344.062 87.7338 344.002 87.6898C343.946 87.6418 343.918 87.5738 343.918 87.4858V86.9998H344.866V86.4478C344.866 86.0998 344.916 85.7898 345.016 85.5178C345.116 85.2458 345.258 85.0158 345.442 84.8278C345.63 84.6358 345.854 84.4918 346.114 84.3958C346.378 84.2958 346.674 84.2458 347.002 84.2458C347.278 84.2458 347.532 84.2858 347.764 84.3658L347.74 84.9538C347.736 85.0058 347.72 85.0458 347.692 85.0738C347.664 85.0978 347.626 85.1158 347.578 85.1278C347.534 85.1398 347.478 85.1478 347.41 85.1518C347.346 85.1518 347.276 85.1518 347.2 85.1518C347.02 85.1518 346.856 85.1738 346.708 85.2178C346.56 85.2618 346.434 85.3358 346.33 85.4398C346.226 85.5438 346.146 85.6818 346.09 85.8538C346.034 86.0218 346.006 86.2318 346.006 86.4838V86.9998H347.716V87.8518H346.042V92.9998H344.866ZM353.037 91.4998C353.229 91.7518 353.435 91.9278 353.655 92.0278C353.879 92.1278 354.129 92.1778 354.405 92.1778C354.941 92.1778 355.355 91.9858 355.647 91.6018C355.943 91.2138 356.091 90.6498 356.091 89.9098C356.091 89.5218 356.057 89.1918 355.989 88.9198C355.925 88.6438 355.829 88.4198 355.701 88.2478C355.577 88.0718 355.423 87.9438 355.239 87.8638C355.055 87.7798 354.847 87.7378 354.615 87.7378C354.275 87.7378 353.979 87.8138 353.727 87.9658C353.479 88.1178 353.249 88.3338 353.037 88.6138V91.4998ZM352.977 87.8158C353.105 87.6638 353.241 87.5258 353.385 87.4018C353.533 87.2738 353.691 87.1658 353.859 87.0778C354.027 86.9858 354.205 86.9158 354.393 86.8678C354.585 86.8158 354.789 86.7898 355.005 86.7898C355.353 86.7898 355.667 86.8578 355.947 86.9938C356.231 87.1298 356.473 87.3298 356.673 87.5938C356.873 87.8578 357.027 88.1838 357.135 88.5718C357.247 88.9598 357.303 89.4058 357.303 89.9098C357.303 90.3618 357.241 90.7818 357.117 91.1698C356.997 91.5538 356.823 91.8878 356.595 92.1718C356.371 92.4558 356.095 92.6798 355.767 92.8438C355.443 93.0038 355.077 93.0838 354.669 93.0838C354.305 93.0838 353.993 93.0238 353.733 92.9038C353.473 92.7838 353.241 92.6158 353.037 92.3998V95.0458H351.867V86.9038H352.569C352.733 86.9038 352.835 86.9818 352.875 87.1378L352.977 87.8158ZM359.901 88.0738C360.097 87.6738 360.333 87.3598 360.609 87.1318C360.885 86.9038 361.217 86.7898 361.605 86.7898C361.737 86.7898 361.861 86.8058 361.977 86.8378C362.097 86.8658 362.201 86.9098 362.289 86.9698L362.211 87.8518C362.183 87.9598 362.117 88.0138 362.013 88.0138C361.957 88.0138 361.873 88.0038 361.761 87.9838C361.649 87.9598 361.529 87.9478 361.401 87.9478C361.213 87.9478 361.047 87.9758 360.903 88.0318C360.759 88.0838 360.629 88.1638 360.513 88.2718C360.401 88.3758 360.301 88.5058 360.213 88.6618C360.125 88.8138 360.043 88.9878 359.967 89.1838V92.9998H358.797V86.9038H359.469C359.597 86.9038 359.683 86.9278 359.727 86.9758C359.775 87.0198 359.809 87.0998 359.829 87.2158L359.901 88.0738ZM366.554 90.2938C366.078 90.3098 365.674 90.3478 365.342 90.4078C365.01 90.4638 364.74 90.5398 364.532 90.6358C364.324 90.7318 364.174 90.8458 364.082 90.9778C363.99 91.1058 363.944 91.2498 363.944 91.4098C363.944 91.5618 363.968 91.6938 364.016 91.8058C364.068 91.9138 364.136 92.0038 364.22 92.0758C364.308 92.1438 364.41 92.1938 364.526 92.2258C364.642 92.2578 364.768 92.2738 364.904 92.2738C365.084 92.2738 365.248 92.2558 365.396 92.2198C365.548 92.1838 365.69 92.1338 365.822 92.0698C365.954 92.0018 366.08 91.9198 366.2 91.8238C366.32 91.7278 366.438 91.6178 366.554 91.4938V90.2938ZM363.122 87.7558C363.462 87.4318 363.83 87.1898 364.226 87.0298C364.626 86.8698 365.064 86.7898 365.54 86.7898C365.888 86.7898 366.196 86.8478 366.464 86.9638C366.732 87.0758 366.958 87.2338 367.142 87.4378C367.326 87.6418 367.464 87.8858 367.556 88.1698C367.652 88.4538 367.7 88.7678 367.7 89.1118V92.9998H367.178C367.062 92.9998 366.974 92.9818 366.914 92.9458C366.854 92.9058 366.806 92.8338 366.77 92.7298L366.644 92.1958C366.488 92.3398 366.334 92.4678 366.182 92.5798C366.03 92.6878 365.87 92.7818 365.702 92.8618C365.538 92.9378 365.362 92.9958 365.174 93.0358C364.986 93.0758 364.778 93.0958 364.55 93.0958C364.31 93.0958 364.084 93.0638 363.872 92.9998C363.664 92.9318 363.482 92.8298 363.326 92.6938C363.17 92.5578 363.046 92.3878 362.954 92.1838C362.866 91.9798 362.822 91.7418 362.822 91.4698C362.822 91.2298 362.886 90.9998 363.014 90.7798C363.146 90.5558 363.358 90.3558 363.65 90.1798C363.946 90.0038 364.33 89.8598 364.802 89.7478C365.278 89.6358 365.862 89.5718 366.554 89.5558V89.1118C366.554 88.6518 366.456 88.3078 366.26 88.0798C366.064 87.8518 365.776 87.7378 365.396 87.7378C365.14 87.7378 364.924 87.7698 364.748 87.8338C364.576 87.8978 364.426 87.9698 364.298 88.0498C364.174 88.1258 364.064 88.1958 363.968 88.2598C363.876 88.3238 363.78 88.3558 363.68 88.3558C363.6 88.3558 363.53 88.3338 363.47 88.2898C363.414 88.2458 363.368 88.1938 363.332 88.1338L363.122 87.7558ZM373.718 88.0438C373.682 88.0878 373.646 88.1238 373.61 88.1518C373.578 88.1758 373.53 88.1878 373.466 88.1878C373.402 88.1878 373.334 88.1638 373.262 88.1158C373.194 88.0638 373.106 88.0098 372.998 87.9538C372.894 87.8938 372.766 87.8398 372.614 87.7918C372.466 87.7398 372.282 87.7138 372.062 87.7138C371.774 87.7138 371.52 87.7658 371.3 87.8698C371.08 87.9738 370.896 88.1218 370.748 88.3138C370.604 88.5058 370.494 88.7398 370.418 89.0158C370.342 89.2918 370.304 89.6018 370.304 89.9458C370.304 90.3018 370.344 90.6198 370.424 90.8998C370.504 91.1758 370.618 91.4098 370.766 91.6018C370.914 91.7898 371.094 91.9338 371.306 92.0338C371.518 92.1298 371.754 92.1778 372.014 92.1778C372.266 92.1778 372.474 92.1478 372.638 92.0878C372.802 92.0238 372.938 91.9558 373.046 91.8838C373.154 91.8118 373.244 91.7458 373.316 91.6858C373.388 91.6218 373.462 91.5898 373.538 91.5898C373.634 91.5898 373.708 91.6258 373.76 91.6978L374.096 92.1298C373.956 92.3018 373.798 92.4478 373.622 92.5678C373.45 92.6878 373.266 92.7858 373.07 92.8618C372.874 92.9378 372.668 92.9938 372.452 93.0298C372.24 93.0658 372.024 93.0838 371.804 93.0838C371.424 93.0838 371.068 93.0138 370.736 92.8738C370.408 92.7338 370.122 92.5298 369.878 92.2618C369.638 91.9938 369.448 91.6658 369.308 91.2778C369.168 90.8858 369.098 90.4418 369.098 89.9458C369.098 89.4938 369.16 89.0758 369.284 88.6918C369.412 88.3078 369.598 87.9778 369.842 87.7018C370.09 87.4218 370.394 87.2038 370.754 87.0478C371.114 86.8878 371.526 86.8078 371.99 86.8078C372.426 86.8078 372.81 86.8778 373.142 87.0178C373.474 87.1578 373.77 87.3558 374.03 87.6118L373.718 88.0438ZM381.146 92.9998H379.97V87.8518H376.91V91.4218C376.91 91.6618 376.968 91.8418 377.084 91.9618C377.204 92.0778 377.356 92.1358 377.54 92.1358C377.648 92.1358 377.74 92.1218 377.816 92.0938C377.896 92.0658 377.964 92.0358 378.02 92.0038C378.076 91.9678 378.124 91.9358 378.164 91.9078C378.204 91.8798 378.24 91.8658 378.272 91.8658C378.312 91.8658 378.342 91.8758 378.362 91.8958C378.386 91.9118 378.41 91.9398 378.434 91.9798L378.782 92.5438C378.59 92.7198 378.362 92.8558 378.098 92.9518C377.834 93.0478 377.56 93.0958 377.276 93.0958C376.784 93.0958 376.404 92.9578 376.136 92.6818C375.872 92.4058 375.74 92.0118 375.74 91.4998V87.8518H375.032C374.964 87.8518 374.906 87.8318 374.858 87.7918C374.814 87.7478 374.792 87.6838 374.792 87.5998V87.1258L375.788 86.9878L376.046 85.1698C376.062 85.1018 376.092 85.0498 376.136 85.0138C376.184 84.9738 376.244 84.9538 376.316 84.9538H376.91V86.9998H381.146V92.9998ZM381.41 84.9838C381.41 85.0918 381.388 85.1958 381.344 85.2958C381.3 85.3918 381.24 85.4778 381.164 85.5538C381.092 85.6258 381.006 85.6838 380.906 85.7278C380.806 85.7678 380.702 85.7878 380.594 85.7878C380.486 85.7878 380.384 85.7678 380.288 85.7278C380.192 85.6838 380.106 85.6258 380.03 85.5538C379.958 85.4778 379.9 85.3918 379.856 85.2958C379.816 85.1958 379.796 85.0918 379.796 84.9838C379.796 84.8718 379.816 84.7658 379.856 84.6658C379.9 84.5658 379.958 84.4798 380.03 84.4078C380.106 84.3318 380.192 84.2738 380.288 84.2338C380.384 84.1898 380.486 84.1678 380.594 84.1678C380.702 84.1678 380.806 84.1898 380.906 84.2338C381.006 84.2738 381.092 84.3318 381.164 84.4078C381.24 84.4798 381.3 84.5658 381.344 84.6658C381.388 84.7658 381.41 84.8718 381.41 84.9838ZM387.297 88.0438C387.261 88.0878 387.225 88.1238 387.189 88.1518C387.157 88.1758 387.109 88.1878 387.045 88.1878C386.981 88.1878 386.913 88.1638 386.841 88.1158C386.773 88.0638 386.685 88.0098 386.577 87.9538C386.473 87.8938 386.345 87.8398 386.193 87.7918C386.045 87.7398 385.861 87.7138 385.641 87.7138C385.353 87.7138 385.099 87.7658 384.879 87.8698C384.659 87.9738 384.475 88.1218 384.327 88.3138C384.183 88.5058 384.073 88.7398 383.997 89.0158C383.921 89.2918 383.883 89.6018 383.883 89.9458C383.883 90.3018 383.923 90.6198 384.003 90.8998C384.083 91.1758 384.197 91.4098 384.345 91.6018C384.493 91.7898 384.673 91.9338 384.885 92.0338C385.097 92.1298 385.333 92.1778 385.593 92.1778C385.845 92.1778 386.053 92.1478 386.217 92.0878C386.381 92.0238 386.517 91.9558 386.625 91.8838C386.733 91.8118 386.823 91.7458 386.895 91.6858C386.967 91.6218 387.041 91.5898 387.117 91.5898C387.213 91.5898 387.287 91.6258 387.339 91.6978L387.675 92.1298C387.535 92.3018 387.377 92.4478 387.201 92.5678C387.029 92.6878 386.845 92.7858 386.649 92.8618C386.453 92.9378 386.247 92.9938 386.031 93.0298C385.819 93.0658 385.603 93.0838 385.383 93.0838C385.003 93.0838 384.647 93.0138 384.315 92.8738C383.987 92.7338 383.701 92.5298 383.457 92.2618C383.217 91.9938 383.027 91.6658 382.887 91.2778C382.747 90.8858 382.677 90.4418 382.677 89.9458C382.677 89.4938 382.739 89.0758 382.863 88.6918C382.991 88.3078 383.177 87.9778 383.421 87.7018C383.669 87.4218 383.973 87.2038 384.333 87.0478C384.693 86.8878 385.105 86.8078 385.569 86.8078C386.005 86.8078 386.389 86.8778 386.721 87.0178C387.053 87.1578 387.349 87.3558 387.609 87.6118L387.297 88.0438ZM392.879 89.2738C392.879 89.0418 392.845 88.8278 392.777 88.6318C392.713 88.4358 392.617 88.2658 392.489 88.1218C392.361 87.9778 392.205 87.8658 392.021 87.7858C391.837 87.7058 391.625 87.6658 391.385 87.6658C390.893 87.6658 390.505 87.8078 390.221 88.0918C389.941 88.3758 389.763 88.7698 389.687 89.2738H392.879ZM393.845 92.1298C393.701 92.2978 393.535 92.4438 393.347 92.5678C393.159 92.6878 392.959 92.7858 392.747 92.8618C392.535 92.9378 392.315 92.9938 392.087 93.0298C391.863 93.0658 391.641 93.0838 391.421 93.0838C391.001 93.0838 390.611 93.0138 390.251 92.8738C389.895 92.7298 389.585 92.5218 389.321 92.2498C389.061 91.9738 388.857 91.6338 388.709 91.2298C388.565 90.8218 388.493 90.3538 388.493 89.8258C388.493 89.4018 388.559 89.0078 388.691 88.6438C388.823 88.2758 389.011 87.9558 389.255 87.6838C389.503 87.4118 389.805 87.1978 390.161 87.0418C390.517 86.8858 390.917 86.8078 391.361 86.8078C391.733 86.8078 392.075 86.8698 392.387 86.9938C392.703 87.1138 392.975 87.2898 393.203 87.5218C393.431 87.7538 393.609 88.0398 393.737 88.3798C393.869 88.7198 393.935 89.1078 393.935 89.5438C393.935 89.7238 393.915 89.8458 393.875 89.9098C393.835 89.9698 393.761 89.9998 393.653 89.9998H389.657C389.669 90.3638 389.721 90.6818 389.813 90.9538C389.905 91.2218 390.031 91.4458 390.191 91.6258C390.355 91.8058 390.549 91.9398 390.773 92.0278C390.997 92.1158 391.247 92.1598 391.523 92.1598C391.783 92.1598 392.007 92.1298 392.195 92.0698C392.387 92.0098 392.551 91.9458 392.687 91.8778C392.827 91.8058 392.943 91.7398 393.035 91.6798C393.131 91.6198 393.215 91.5898 393.287 91.5898C393.383 91.5898 393.457 91.6258 393.509 91.6978L393.845 92.1298ZM401.864 90.2938C401.388 90.3098 400.984 90.3478 400.652 90.4078C400.32 90.4638 400.05 90.5398 399.842 90.6358C399.634 90.7318 399.484 90.8458 399.392 90.9778C399.3 91.1058 399.254 91.2498 399.254 91.4098C399.254 91.5618 399.278 91.6938 399.326 91.8058C399.378 91.9138 399.446 92.0038 399.53 92.0758C399.618 92.1438 399.72 92.1938 399.836 92.2258C399.952 92.2578 400.078 92.2738 400.214 92.2738C400.394 92.2738 400.558 92.2558 400.706 92.2198C400.858 92.1838 401 92.1338 401.132 92.0698C401.264 92.0018 401.39 91.9198 401.51 91.8238C401.63 91.7278 401.748 91.6178 401.864 91.4938V90.2938ZM398.432 87.7558C398.772 87.4318 399.14 87.1898 399.536 87.0298C399.936 86.8698 400.374 86.7898 400.85 86.7898C401.198 86.7898 401.506 86.8478 401.774 86.9638C402.042 87.0758 402.268 87.2338 402.452 87.4378C402.636 87.6418 402.774 87.8858 402.866 88.1698C402.962 88.4538 403.01 88.7678 403.01 89.1118V92.9998H402.488C402.372 92.9998 402.284 92.9818 402.224 92.9458C402.164 92.9058 402.116 92.8338 402.08 92.7298L401.954 92.1958C401.798 92.3398 401.644 92.4678 401.492 92.5798C401.34 92.6878 401.18 92.7818 401.012 92.8618C400.848 92.9378 400.672 92.9958 400.484 93.0358C400.296 93.0758 400.088 93.0958 399.86 93.0958C399.62 93.0958 399.394 93.0638 399.182 92.9998C398.974 92.9318 398.792 92.8298 398.636 92.6938C398.48 92.5578 398.356 92.3878 398.264 92.1838C398.176 91.9798 398.132 91.7418 398.132 91.4698C398.132 91.2298 398.196 90.9998 398.324 90.7798C398.456 90.5558 398.668 90.3558 398.96 90.1798C399.256 90.0038 399.64 89.8598 400.112 89.7478C400.588 89.6358 401.172 89.5718 401.864 89.5558V89.1118C401.864 88.6518 401.766 88.3078 401.57 88.0798C401.374 87.8518 401.086 87.7378 400.706 87.7378C400.45 87.7378 400.234 87.7698 400.058 87.8338C399.886 87.8978 399.736 87.9698 399.608 88.0498C399.484 88.1258 399.374 88.1958 399.278 88.2598C399.186 88.3238 399.09 88.3558 398.99 88.3558C398.91 88.3558 398.84 88.3338 398.78 88.2898C398.724 88.2458 398.678 88.1938 398.642 88.1338L398.432 87.7558ZM405.854 87.7498C405.986 87.6098 406.124 87.4818 406.268 87.3658C406.412 87.2498 406.564 87.1518 406.724 87.0718C406.888 86.9878 407.062 86.9238 407.246 86.8798C407.434 86.8318 407.634 86.8078 407.846 86.8078C408.182 86.8078 408.476 86.8638 408.728 86.9758C408.984 87.0878 409.198 87.2458 409.37 87.4498C409.542 87.6498 409.672 87.8918 409.76 88.1758C409.848 88.4598 409.892 88.7738 409.892 89.1178V92.9998H408.716V89.1178C408.716 88.6818 408.616 88.3438 408.416 88.1038C408.216 87.8598 407.91 87.7378 407.498 87.7378C407.198 87.7378 406.916 87.8098 406.652 87.9538C406.392 88.0938 406.15 88.2858 405.926 88.5298V92.9998H404.756V86.9038H405.458C405.622 86.9038 405.724 86.9818 405.764 87.1378L405.854 87.7498ZM415.581 88.3798C415.389 88.1278 415.181 87.9518 414.957 87.8518C414.737 87.7518 414.489 87.7018 414.213 87.7018C413.677 87.7018 413.261 87.8958 412.965 88.2838C412.673 88.6678 412.527 89.2298 412.527 89.9698C412.527 90.3578 412.559 90.6898 412.623 90.9658C412.691 91.2378 412.787 91.4618 412.911 91.6378C413.039 91.8098 413.195 91.9378 413.379 92.0218C413.563 92.1018 413.771 92.1418 414.003 92.1418C414.343 92.1418 414.637 92.0658 414.885 91.9138C415.133 91.7618 415.365 91.5478 415.581 91.2718V88.3798ZM416.757 84.1438V92.9998H416.049C415.885 92.9998 415.783 92.9218 415.743 92.7658L415.641 92.0638C415.381 92.3718 415.085 92.6198 414.753 92.8078C414.425 92.9918 414.045 93.0838 413.613 93.0838C413.265 93.0838 412.949 93.0158 412.665 92.8798C412.385 92.7438 412.145 92.5458 411.945 92.2858C411.745 92.0218 411.591 91.6958 411.483 91.3078C411.375 90.9198 411.321 90.4738 411.321 89.9698C411.321 89.5178 411.381 89.0978 411.501 88.7098C411.621 88.3218 411.795 87.9858 412.023 87.7018C412.251 87.4178 412.527 87.1958 412.851 87.0358C413.175 86.8718 413.541 86.7898 413.949 86.7898C414.317 86.7898 414.629 86.8498 414.885 86.9698C415.145 87.0898 415.377 87.2598 415.581 87.4798V84.1438H416.757ZM423.693 93.0958C423.201 93.0958 422.821 92.9578 422.553 92.6818C422.289 92.4058 422.157 92.0118 422.157 91.4998V87.8518H421.449C421.381 87.8518 421.323 87.8318 421.275 87.7918C421.231 87.7478 421.209 87.6838 421.209 87.5998V87.1258L422.199 86.9878L422.463 85.1698C422.479 85.1018 422.509 85.0498 422.553 85.0138C422.601 84.9738 422.661 84.9538 422.733 84.9538H423.327V86.9998H425.055V87.8518H423.327V91.4218C423.327 91.6618 423.385 91.8418 423.501 91.9618C423.621 92.0778 423.773 92.1358 423.957 92.1358C424.065 92.1358 424.157 92.1218 424.233 92.0938C424.313 92.0658 424.381 92.0358 424.437 92.0038C424.493 91.9678 424.541 91.9358 424.581 91.9078C424.621 91.8798 424.657 91.8658 424.689 91.8658C424.729 91.8658 424.759 91.8758 424.779 91.8958C424.803 91.9118 424.827 91.9398 424.851 91.9798L425.199 92.5438C425.007 92.7198 424.779 92.8558 424.515 92.9518C424.251 93.0478 423.977 93.0958 423.693 93.0958ZM427.416 88.0738C427.612 87.6738 427.848 87.3598 428.124 87.1318C428.4 86.9038 428.732 86.7898 429.12 86.7898C429.252 86.7898 429.376 86.8058 429.492 86.8378C429.612 86.8658 429.716 86.9098 429.804 86.9698L429.726 87.8518C429.698 87.9598 429.632 88.0138 429.528 88.0138C429.472 88.0138 429.388 88.0038 429.276 87.9838C429.164 87.9598 429.044 87.9478 428.916 87.9478C428.728 87.9478 428.562 87.9758 428.418 88.0318C428.274 88.0838 428.144 88.1638 428.028 88.2718C427.916 88.3758 427.816 88.5058 427.728 88.6618C427.64 88.8138 427.558 88.9878 427.482 89.1838V92.9998H426.312V86.9038H426.984C427.112 86.9038 427.198 86.9278 427.242 86.9758C427.29 87.0198 427.324 87.0998 427.344 87.2158L427.416 88.0738ZM434.069 90.2938C433.593 90.3098 433.189 90.3478 432.857 90.4078C432.525 90.4638 432.255 90.5398 432.047 90.6358C431.839 90.7318 431.689 90.8458 431.597 90.9778C431.505 91.1058 431.459 91.2498 431.459 91.4098C431.459 91.5618 431.483 91.6938 431.531 91.8058C431.583 91.9138 431.651 92.0038 431.735 92.0758C431.823 92.1438 431.925 92.1938 432.041 92.2258C432.157 92.2578 432.283 92.2738 432.419 92.2738C432.599 92.2738 432.763 92.2558 432.911 92.2198C433.063 92.1838 433.205 92.1338 433.337 92.0698C433.469 92.0018 433.595 91.9198 433.715 91.8238C433.835 91.7278 433.953 91.6178 434.069 91.4938V90.2938ZM430.637 87.7558C430.977 87.4318 431.345 87.1898 431.741 87.0298C432.141 86.8698 432.579 86.7898 433.055 86.7898C433.403 86.7898 433.711 86.8478 433.979 86.9638C434.247 87.0758 434.473 87.2338 434.657 87.4378C434.841 87.6418 434.979 87.8858 435.071 88.1698C435.167 88.4538 435.215 88.7678 435.215 89.1118V92.9998H434.693C434.577 92.9998 434.489 92.9818 434.429 92.9458C434.369 92.9058 434.321 92.8338 434.285 92.7298L434.159 92.1958C434.003 92.3398 433.849 92.4678 433.697 92.5798C433.545 92.6878 433.385 92.7818 433.217 92.8618C433.053 92.9378 432.877 92.9958 432.689 93.0358C432.501 93.0758 432.293 93.0958 432.065 93.0958C431.825 93.0958 431.599 93.0638 431.387 92.9998C431.179 92.9318 430.997 92.8298 430.841 92.6938C430.685 92.5578 430.561 92.3878 430.469 92.1838C430.381 91.9798 430.337 91.7418 430.337 91.4698C430.337 91.2298 430.401 90.9998 430.529 90.7798C430.661 90.5558 430.873 90.3558 431.165 90.1798C431.461 90.0038 431.845 89.8598 432.317 89.7478C432.793 89.6358 433.377 89.5718 434.069 89.5558V89.1118C434.069 88.6518 433.971 88.3078 433.775 88.0798C433.579 87.8518 433.291 87.7378 432.911 87.7378C432.655 87.7378 432.439 87.7698 432.263 87.8338C432.091 87.8978 431.941 87.9698 431.813 88.0498C431.689 88.1258 431.579 88.1958 431.483 88.2598C431.391 88.3238 431.295 88.3558 431.195 88.3558C431.115 88.3558 431.045 88.3338 430.985 88.2898C430.929 88.2458 430.883 88.1938 430.847 88.1338L430.637 87.7558ZM438.059 87.7498C438.191 87.6098 438.329 87.4818 438.473 87.3658C438.617 87.2498 438.769 87.1518 438.929 87.0718C439.093 86.9878 439.267 86.9238 439.451 86.8798C439.639 86.8318 439.839 86.8078 440.051 86.8078C440.387 86.8078 440.681 86.8638 440.933 86.9758C441.189 87.0878 441.403 87.2458 441.575 87.4498C441.747 87.6498 441.877 87.8918 441.965 88.1758C442.053 88.4598 442.097 88.7738 442.097 89.1178V92.9998H440.921V89.1178C440.921 88.6818 440.821 88.3438 440.621 88.1038C440.421 87.8598 440.115 87.7378 439.703 87.7378C439.403 87.7378 439.121 87.8098 438.857 87.9538C438.597 88.0938 438.355 88.2858 438.131 88.5298V92.9998H436.961V86.9038H437.663C437.827 86.9038 437.929 86.9818 437.969 87.1378L438.059 87.7498ZM447.45 87.9538C447.418 88.0058 447.384 88.0438 447.348 88.0678C447.312 88.0878 447.266 88.0978 447.21 88.0978C447.146 88.0978 447.074 88.0758 446.994 88.0318C446.918 87.9878 446.824 87.9398 446.712 87.8878C446.604 87.8358 446.476 87.7878 446.328 87.7438C446.18 87.6998 446.004 87.6778 445.8 87.6778C445.632 87.6778 445.478 87.6998 445.338 87.7438C445.202 87.7838 445.086 87.8418 444.99 87.9178C444.894 87.9898 444.82 88.0778 444.768 88.1818C444.716 88.2818 444.69 88.3898 444.69 88.5058C444.69 88.6578 444.734 88.7838 444.822 88.8838C444.914 88.9838 445.032 89.0698 445.176 89.1418C445.324 89.2138 445.49 89.2798 445.674 89.3398C445.862 89.3958 446.052 89.4558 446.244 89.5198C446.44 89.5838 446.63 89.6578 446.814 89.7418C447.002 89.8218 447.168 89.9238 447.312 90.0478C447.46 90.1678 447.578 90.3138 447.666 90.4858C447.758 90.6578 447.804 90.8678 447.804 91.1158C447.804 91.3998 447.752 91.6638 447.648 91.9078C447.548 92.1478 447.398 92.3558 447.198 92.5318C447.002 92.7078 446.758 92.8458 446.466 92.9458C446.174 93.0458 445.84 93.0958 445.464 93.0958C445.044 93.0958 444.656 93.0258 444.3 92.8858C443.944 92.7458 443.646 92.5678 443.406 92.3518L443.682 91.9018C443.714 91.8458 443.754 91.8038 443.802 91.7758C443.85 91.7438 443.914 91.7278 443.994 91.7278C444.07 91.7278 444.148 91.7558 444.228 91.8118C444.308 91.8678 444.404 91.9298 444.516 91.9978C444.628 92.0618 444.764 92.1218 444.924 92.1778C445.084 92.2298 445.284 92.2558 445.524 92.2558C445.724 92.2558 445.898 92.2318 446.046 92.1838C446.194 92.1318 446.316 92.0638 446.412 91.9798C446.512 91.8918 446.586 91.7918 446.634 91.6798C446.682 91.5678 446.706 91.4498 446.706 91.3258C446.706 91.1658 446.66 91.0338 446.568 90.9298C446.48 90.8218 446.362 90.7298 446.214 90.6538C446.07 90.5778 445.904 90.5118 445.716 90.4558C445.528 90.3998 445.336 90.3398 445.14 90.2758C444.944 90.2118 444.752 90.1378 444.564 90.0538C444.376 89.9698 444.208 89.8638 444.06 89.7358C443.916 89.6078 443.798 89.4518 443.706 89.2678C443.618 89.0838 443.574 88.8598 443.574 88.5958C443.574 88.3598 443.622 88.1338 443.718 87.9178C443.818 87.7018 443.96 87.5118 444.144 87.3478C444.332 87.1838 444.562 87.0538 444.834 86.9578C445.11 86.8578 445.424 86.8078 445.776 86.8078C446.18 86.8078 446.544 86.8718 446.868 86.9998C447.196 87.1278 447.476 87.3038 447.708 87.5278L447.45 87.9538ZM450.421 91.4998C450.613 91.7518 450.819 91.9278 451.039 92.0278C451.263 92.1278 451.513 92.1778 451.789 92.1778C452.325 92.1778 452.739 91.9858 453.031 91.6018C453.327 91.2138 453.475 90.6498 453.475 89.9098C453.475 89.5218 453.441 89.1918 453.373 88.9198C453.309 88.6438 453.213 88.4198 453.085 88.2478C452.961 88.0718 452.807 87.9438 452.623 87.8638C452.439 87.7798 452.231 87.7378 451.999 87.7378C451.659 87.7378 451.363 87.8138 451.111 87.9658C450.863 88.1178 450.633 88.3338 450.421 88.6138V91.4998ZM450.361 87.8158C450.489 87.6638 450.625 87.5258 450.769 87.4018C450.917 87.2738 451.075 87.1658 451.243 87.0778C451.411 86.9858 451.589 86.9158 451.777 86.8678C451.969 86.8158 452.173 86.7898 452.389 86.7898C452.737 86.7898 453.051 86.8578 453.331 86.9938C453.615 87.1298 453.857 87.3298 454.057 87.5938C454.257 87.8578 454.411 88.1838 454.519 88.5718C454.631 88.9598 454.687 89.4058 454.687 89.9098C454.687 90.3618 454.625 90.7818 454.501 91.1698C454.381 91.5538 454.207 91.8878 453.979 92.1718C453.755 92.4558 453.479 92.6798 453.151 92.8438C452.827 93.0038 452.461 93.0838 452.053 93.0838C451.689 93.0838 451.377 93.0238 451.117 92.9038C450.857 92.7838 450.625 92.6158 450.421 92.3998V95.0458H449.251V86.9038H449.953C450.117 86.9038 450.219 86.9818 450.259 87.1378L450.361 87.8158ZM459.457 90.2938C458.981 90.3098 458.577 90.3478 458.245 90.4078C457.913 90.4638 457.643 90.5398 457.435 90.6358C457.227 90.7318 457.077 90.8458 456.985 90.9778C456.893 91.1058 456.847 91.2498 456.847 91.4098C456.847 91.5618 456.871 91.6938 456.919 91.8058C456.971 91.9138 457.039 92.0038 457.123 92.0758C457.211 92.1438 457.313 92.1938 457.429 92.2258C457.545 92.2578 457.671 92.2738 457.807 92.2738C457.987 92.2738 458.151 92.2558 458.299 92.2198C458.451 92.1838 458.593 92.1338 458.725 92.0698C458.857 92.0018 458.983 91.9198 459.103 91.8238C459.223 91.7278 459.341 91.6178 459.457 91.4938V90.2938ZM456.025 87.7558C456.365 87.4318 456.733 87.1898 457.129 87.0298C457.529 86.8698 457.967 86.7898 458.443 86.7898C458.791 86.7898 459.099 86.8478 459.367 86.9638C459.635 87.0758 459.861 87.2338 460.045 87.4378C460.229 87.6418 460.367 87.8858 460.459 88.1698C460.555 88.4538 460.603 88.7678 460.603 89.1118V92.9998H460.081C459.965 92.9998 459.877 92.9818 459.817 92.9458C459.757 92.9058 459.709 92.8338 459.673 92.7298L459.547 92.1958C459.391 92.3398 459.237 92.4678 459.085 92.5798C458.933 92.6878 458.773 92.7818 458.605 92.8618C458.441 92.9378 458.265 92.9958 458.077 93.0358C457.889 93.0758 457.681 93.0958 457.453 93.0958C457.213 93.0958 456.987 93.0638 456.775 92.9998C456.567 92.9318 456.385 92.8298 456.229 92.6938C456.073 92.5578 455.949 92.3878 455.857 92.1838C455.769 91.9798 455.725 91.7418 455.725 91.4698C455.725 91.2298 455.789 90.9998 455.917 90.7798C456.049 90.5558 456.261 90.3558 456.553 90.1798C456.849 90.0038 457.233 89.8598 457.705 89.7478C458.181 89.6358 458.765 89.5718 459.457 89.5558V89.1118C459.457 88.6518 459.359 88.3078 459.163 88.0798C458.967 87.8518 458.679 87.7378 458.299 87.7378C458.043 87.7378 457.827 87.7698 457.651 87.8338C457.479 87.8978 457.329 87.9698 457.201 88.0498C457.077 88.1258 456.967 88.1958 456.871 88.2598C456.779 88.3238 456.683 88.3558 456.583 88.3558C456.503 88.3558 456.433 88.3338 456.373 88.2898C456.317 88.2458 456.271 88.1938 456.235 88.1338L456.025 87.7558ZM463.453 88.0738C463.649 87.6738 463.885 87.3598 464.161 87.1318C464.437 86.9038 464.769 86.7898 465.157 86.7898C465.289 86.7898 465.413 86.8058 465.529 86.8378C465.649 86.8658 465.753 86.9098 465.841 86.9698L465.763 87.8518C465.735 87.9598 465.669 88.0138 465.565 88.0138C465.509 88.0138 465.425 88.0038 465.313 87.9838C465.201 87.9598 465.081 87.9478 464.953 87.9478C464.765 87.9478 464.599 87.9758 464.455 88.0318C464.311 88.0838 464.181 88.1638 464.065 88.2718C463.953 88.3758 463.853 88.5058 463.765 88.6618C463.677 88.8138 463.595 88.9878 463.519 89.1838V92.9998H462.349V86.9038H463.021C463.149 86.9038 463.235 86.9278 463.279 86.9758C463.327 87.0198 463.361 87.0998 463.381 87.2158L463.453 88.0738ZM470.739 89.2738C470.739 89.0418 470.705 88.8278 470.637 88.6318C470.573 88.4358 470.477 88.2658 470.349 88.1218C470.221 87.9778 470.065 87.8658 469.881 87.7858C469.697 87.7058 469.485 87.6658 469.245 87.6658C468.753 87.6658 468.365 87.8078 468.081 88.0918C467.801 88.3758 467.623 88.7698 467.547 89.2738H470.739ZM471.705 92.1298C471.561 92.2978 471.395 92.4438 471.207 92.5678C471.019 92.6878 470.819 92.7858 470.607 92.8618C470.395 92.9378 470.175 92.9938 469.947 93.0298C469.723 93.0658 469.501 93.0838 469.281 93.0838C468.861 93.0838 468.471 93.0138 468.111 92.8738C467.755 92.7298 467.445 92.5218 467.181 92.2498C466.921 91.9738 466.717 91.6338 466.569 91.2298C466.425 90.8218 466.353 90.3538 466.353 89.8258C466.353 89.4018 466.419 89.0078 466.551 88.6438C466.683 88.2758 466.871 87.9558 467.115 87.6838C467.363 87.4118 467.665 87.1978 468.021 87.0418C468.377 86.8858 468.777 86.8078 469.221 86.8078C469.593 86.8078 469.935 86.8698 470.247 86.9938C470.563 87.1138 470.835 87.2898 471.063 87.5218C471.291 87.7538 471.469 88.0398 471.597 88.3798C471.729 88.7198 471.795 89.1078 471.795 89.5438C471.795 89.7238 471.775 89.8458 471.735 89.9098C471.695 89.9698 471.621 89.9998 471.513 89.9998H467.517C467.529 90.3638 467.581 90.6818 467.673 90.9538C467.765 91.2218 467.891 91.4458 468.051 91.6258C468.215 91.8058 468.409 91.9398 468.633 92.0278C468.857 92.1158 469.107 92.1598 469.383 92.1598C469.643 92.1598 469.867 92.1298 470.055 92.0698C470.247 92.0098 470.411 91.9458 470.547 91.8778C470.687 91.8058 470.803 91.7398 470.895 91.6798C470.991 91.6198 471.075 91.5898 471.147 91.5898C471.243 91.5898 471.317 91.6258 471.369 91.6978L471.705 92.1298ZM474.331 87.7498C474.463 87.6098 474.601 87.4818 474.745 87.3658C474.889 87.2498 475.041 87.1518 475.201 87.0718C475.365 86.9878 475.539 86.9238 475.723 86.8798C475.911 86.8318 476.111 86.8078 476.323 86.8078C476.659 86.8078 476.953 86.8638 477.205 86.9758C477.461 87.0878 477.675 87.2458 477.847 87.4498C478.019 87.6498 478.149 87.8918 478.237 88.1758C478.325 88.4598 478.369 88.7738 478.369 89.1178V92.9998H477.193V89.1178C477.193 88.6818 477.093 88.3438 476.893 88.1038C476.693 87.8598 476.387 87.7378 475.975 87.7378C475.675 87.7378 475.393 87.8098 475.129 87.9538C474.869 88.0938 474.627 88.2858 474.403 88.5298V92.9998H473.233V86.9038H473.935C474.099 86.9038 474.201 86.9818 474.241 87.1378L474.331 87.7498ZM484.4 88.0438C484.364 88.0878 484.328 88.1238 484.292 88.1518C484.26 88.1758 484.212 88.1878 484.148 88.1878C484.084 88.1878 484.016 88.1638 483.944 88.1158C483.876 88.0638 483.788 88.0098 483.68 87.9538C483.576 87.8938 483.448 87.8398 483.296 87.7918C483.148 87.7398 482.964 87.7138 482.744 87.7138C482.456 87.7138 482.202 87.7658 481.982 87.8698C481.762 87.9738 481.578 88.1218 481.43 88.3138C481.286 88.5058 481.176 88.7398 481.1 89.0158C481.024 89.2918 480.986 89.6018 480.986 89.9458C480.986 90.3018 481.026 90.6198 481.106 90.8998C481.186 91.1758 481.3 91.4098 481.448 91.6018C481.596 91.7898 481.776 91.9338 481.988 92.0338C482.2 92.1298 482.436 92.1778 482.696 92.1778C482.948 92.1778 483.156 92.1478 483.32 92.0878C483.484 92.0238 483.62 91.9558 483.728 91.8838C483.836 91.8118 483.926 91.7458 483.998 91.6858C484.07 91.6218 484.144 91.5898 484.22 91.5898C484.316 91.5898 484.39 91.6258 484.442 91.6978L484.778 92.1298C484.638 92.3018 484.48 92.4478 484.304 92.5678C484.132 92.6878 483.948 92.7858 483.752 92.8618C483.556 92.9378 483.35 92.9938 483.134 93.0298C482.922 93.0658 482.706 93.0838 482.486 93.0838C482.106 93.0838 481.75 93.0138 481.418 92.8738C481.09 92.7338 480.804 92.5298 480.56 92.2618C480.32 91.9938 480.13 91.6658 479.99 91.2778C479.85 90.8858 479.78 90.4418 479.78 89.9458C479.78 89.4938 479.842 89.0758 479.966 88.6918C480.094 88.3078 480.28 87.9778 480.524 87.7018C480.772 87.4218 481.076 87.2038 481.436 87.0478C481.796 86.8878 482.208 86.8078 482.672 86.8078C483.108 86.8078 483.492 86.8778 483.824 87.0178C484.156 87.1578 484.452 87.3558 484.712 87.6118L484.4 88.0438ZM491.378 86.9038L487.994 94.7698C487.958 94.8578 487.91 94.9258 487.85 94.9738C487.79 95.0218 487.702 95.0458 487.586 95.0458H486.716L487.832 92.6158L485.33 86.9038H486.35C486.45 86.9038 486.528 86.9278 486.584 86.9758C486.64 87.0238 486.68 87.0778 486.704 87.1378L488.252 90.7978C488.284 90.8898 488.314 90.9838 488.342 91.0798C488.374 91.1718 488.4 91.2638 488.42 91.3558C488.448 91.2598 488.478 91.1658 488.51 91.0738C488.542 90.9778 488.576 90.8838 488.612 90.7918L490.106 87.1378C490.134 87.0698 490.178 87.0138 490.238 86.9698C490.298 86.9258 490.366 86.9038 490.442 86.9038H491.378ZM495.777 92.9998V87.8638L495.141 87.7858C495.049 87.7658 494.973 87.7338 494.913 87.6898C494.857 87.6418 494.829 87.5738 494.829 87.4858V86.9998H495.777V86.4478C495.777 86.0998 495.827 85.7898 495.927 85.5178C496.027 85.2458 496.169 85.0158 496.353 84.8278C496.541 84.6358 496.765 84.4918 497.025 84.3958C497.289 84.2958 497.585 84.2458 497.913 84.2458C498.189 84.2458 498.443 84.2858 498.675 84.3658L498.651 84.9538C498.647 85.0058 498.631 85.0458 498.603 85.0738C498.575 85.0978 498.537 85.1158 498.489 85.1278C498.445 85.1398 498.389 85.1478 498.321 85.1518C498.257 85.1518 498.187 85.1518 498.111 85.1518C497.931 85.1518 497.767 85.1738 497.619 85.2178C497.471 85.2618 497.345 85.3358 497.241 85.4398C497.137 85.5438 497.057 85.6818 497.001 85.8538C496.945 86.0218 496.917 86.2318 496.917 86.4838V86.9998H498.627V87.8518H496.953V92.9998H495.777ZM502.196 86.8078C502.644 86.8078 503.048 86.8818 503.408 87.0298C503.772 87.1738 504.08 87.3838 504.332 87.6598C504.588 87.9318 504.784 88.2618 504.92 88.6498C505.056 89.0338 505.124 89.4658 505.124 89.9458C505.124 90.4258 505.056 90.8598 504.92 91.2478C504.784 91.6358 504.588 91.9658 504.332 92.2378C504.08 92.5098 503.772 92.7198 503.408 92.8678C503.048 93.0118 502.644 93.0838 502.196 93.0838C501.744 93.0838 501.336 93.0118 500.972 92.8678C500.612 92.7198 500.304 92.5098 500.048 92.2378C499.792 91.9658 499.594 91.6358 499.454 91.2478C499.318 90.8598 499.25 90.4258 499.25 89.9458C499.25 89.4658 499.318 89.0338 499.454 88.6498C499.594 88.2618 499.792 87.9318 500.048 87.6598C500.304 87.3838 500.612 87.1738 500.972 87.0298C501.336 86.8818 501.744 86.8078 502.196 86.8078ZM502.196 92.1718C502.772 92.1718 503.202 91.9778 503.486 91.5898C503.77 91.2018 503.912 90.6558 503.912 89.9518C503.912 89.2478 503.77 88.7018 503.486 88.3138C503.202 87.9218 502.772 87.7258 502.196 87.7258C501.612 87.7258 501.176 87.9218 500.888 88.3138C500.604 88.7018 500.462 89.2478 500.462 89.9518C500.462 90.6558 500.604 91.2018 500.888 91.5898C501.176 91.9778 501.612 92.1718 502.196 92.1718ZM507.714 88.0738C507.91 87.6738 508.146 87.3598 508.422 87.1318C508.698 86.9038 509.03 86.7898 509.418 86.7898C509.55 86.7898 509.674 86.8058 509.79 86.8378C509.91 86.8658 510.014 86.9098 510.102 86.9698L510.024 87.8518C509.996 87.9598 509.93 88.0138 509.826 88.0138C509.77 88.0138 509.686 88.0038 509.574 87.9838C509.462 87.9598 509.342 87.9478 509.214 87.9478C509.026 87.9478 508.86 87.9758 508.716 88.0318C508.572 88.0838 508.442 88.1638 508.326 88.2718C508.214 88.3758 508.114 88.5058 508.026 88.6618C507.938 88.8138 507.856 88.9878 507.78 89.1838V92.9998H506.61V86.9038H507.282C507.41 86.9038 507.496 86.9278 507.54 86.9758C507.588 87.0198 507.622 87.0998 507.642 87.2158L507.714 88.0738ZM522.41 88.6918C522.41 89.3358 522.306 89.9278 522.098 90.4678C521.894 91.0038 521.604 91.4678 521.228 91.8598C520.852 92.2478 520.402 92.5498 519.878 92.7658C519.354 92.9818 518.772 93.0898 518.132 93.0898C517.496 93.0898 516.914 92.9818 516.386 92.7658C515.862 92.5498 515.412 92.2478 515.036 91.8598C514.664 91.4678 514.374 91.0038 514.166 90.4678C513.958 89.9278 513.854 89.3358 513.854 88.6918C513.854 88.0518 513.958 87.4618 514.166 86.9218C514.374 86.3818 514.664 85.9178 515.036 85.5298C515.412 85.1378 515.862 84.8338 516.386 84.6178C516.914 84.3978 517.496 84.2878 518.132 84.2878C518.772 84.2878 519.354 84.3978 519.878 84.6178C520.402 84.8338 520.852 85.1378 521.228 85.5298C521.604 85.9178 521.894 86.3818 522.098 86.9218C522.306 87.4618 522.41 88.0518 522.41 88.6918ZM521.102 88.6918C521.102 88.1798 521.032 87.7198 520.892 87.3118C520.752 86.9038 520.552 86.5578 520.292 86.2738C520.036 85.9898 519.724 85.7718 519.356 85.6198C518.992 85.4678 518.584 85.3918 518.132 85.3918C517.68 85.3918 517.27 85.4678 516.902 85.6198C516.538 85.7718 516.226 85.9898 515.966 86.2738C515.706 86.5578 515.506 86.9038 515.366 87.3118C515.226 87.7198 515.156 88.1798 515.156 88.6918C515.156 89.2078 515.226 89.6698 515.366 90.0778C515.506 90.4818 515.706 90.8258 515.966 91.1098C516.226 91.3938 516.538 91.6118 516.902 91.7638C517.27 91.9118 517.68 91.9858 518.132 91.9858C518.584 91.9858 518.992 91.9118 519.356 91.7638C519.724 91.6118 520.036 91.3938 520.292 91.1098C520.552 90.8258 520.752 90.4818 520.892 90.0778C521.032 89.6698 521.102 89.2078 521.102 88.6918ZM525.007 91.4998C525.199 91.7518 525.405 91.9278 525.625 92.0278C525.849 92.1278 526.099 92.1778 526.375 92.1778C526.911 92.1778 527.325 91.9858 527.617 91.6018C527.913 91.2138 528.061 90.6498 528.061 89.9098C528.061 89.5218 528.027 89.1918 527.959 88.9198C527.895 88.6438 527.799 88.4198 527.671 88.2478C527.547 88.0718 527.393 87.9438 527.209 87.8638C527.025 87.7798 526.817 87.7378 526.585 87.7378C526.245 87.7378 525.949 87.8138 525.697 87.9658C525.449 88.1178 525.219 88.3338 525.007 88.6138V91.4998ZM524.947 87.8158C525.075 87.6638 525.211 87.5258 525.355 87.4018C525.503 87.2738 525.661 87.1658 525.829 87.0778C525.997 86.9858 526.175 86.9158 526.363 86.8678C526.555 86.8158 526.759 86.7898 526.975 86.7898C527.323 86.7898 527.637 86.8578 527.917 86.9938C528.201 87.1298 528.443 87.3298 528.643 87.5938C528.843 87.8578 528.997 88.1838 529.105 88.5718C529.217 88.9598 529.273 89.4058 529.273 89.9098C529.273 90.3618 529.211 90.7818 529.087 91.1698C528.967 91.5538 528.793 91.8878 528.565 92.1718C528.341 92.4558 528.065 92.6798 527.737 92.8438C527.413 93.0038 527.047 93.0838 526.639 93.0838C526.275 93.0838 525.963 93.0238 525.703 92.9038C525.443 92.7838 525.211 92.6158 525.007 92.3998V95.0458H523.837V86.9038H524.539C524.703 86.9038 524.805 86.9818 524.845 87.1378L524.947 87.8158ZM534.805 89.2738C534.805 89.0418 534.771 88.8278 534.703 88.6318C534.639 88.4358 534.543 88.2658 534.415 88.1218C534.287 87.9778 534.131 87.8658 533.947 87.7858C533.763 87.7058 533.551 87.6658 533.311 87.6658C532.819 87.6658 532.431 87.8078 532.147 88.0918C531.867 88.3758 531.689 88.7698 531.613 89.2738H534.805ZM535.771 92.1298C535.627 92.2978 535.461 92.4438 535.273 92.5678C535.085 92.6878 534.885 92.7858 534.673 92.8618C534.461 92.9378 534.241 92.9938 534.013 93.0298C533.789 93.0658 533.567 93.0838 533.347 93.0838C532.927 93.0838 532.537 93.0138 532.177 92.8738C531.821 92.7298 531.511 92.5218 531.247 92.2498C530.987 91.9738 530.783 91.6338 530.635 91.2298C530.491 90.8218 530.419 90.3538 530.419 89.8258C530.419 89.4018 530.485 89.0078 530.617 88.6438C530.749 88.2758 530.937 87.9558 531.181 87.6838C531.429 87.4118 531.731 87.1978 532.087 87.0418C532.443 86.8858 532.843 86.8078 533.287 86.8078C533.659 86.8078 534.001 86.8698 534.313 86.9938C534.629 87.1138 534.901 87.2898 535.129 87.5218C535.357 87.7538 535.535 88.0398 535.663 88.3798C535.795 88.7198 535.861 89.1078 535.861 89.5438C535.861 89.7238 535.841 89.8458 535.801 89.9098C535.761 89.9698 535.687 89.9998 535.579 89.9998H531.583C531.595 90.3638 531.647 90.6818 531.739 90.9538C531.831 91.2218 531.957 91.4458 532.117 91.6258C532.281 91.8058 532.475 91.9398 532.699 92.0278C532.923 92.1158 533.173 92.1598 533.449 92.1598C533.709 92.1598 533.933 92.1298 534.121 92.0698C534.313 92.0098 534.477 91.9458 534.613 91.8778C534.753 91.8058 534.869 91.7398 534.961 91.6798C535.057 91.6198 535.141 91.5898 535.213 91.5898C535.309 91.5898 535.383 91.6258 535.435 91.6978L535.771 92.1298ZM538.403 88.0738C538.599 87.6738 538.835 87.3598 539.111 87.1318C539.387 86.9038 539.719 86.7898 540.107 86.7898C540.239 86.7898 540.363 86.8058 540.479 86.8378C540.599 86.8658 540.703 86.9098 540.791 86.9698L540.713 87.8518C540.685 87.9598 540.619 88.0138 540.515 88.0138C540.459 88.0138 540.375 88.0038 540.263 87.9838C540.151 87.9598 540.031 87.9478 539.903 87.9478C539.715 87.9478 539.549 87.9758 539.405 88.0318C539.261 88.0838 539.131 88.1638 539.015 88.2718C538.903 88.3758 538.803 88.5058 538.715 88.6618C538.627 88.8138 538.545 88.9878 538.469 89.1838V92.9998H537.299V86.9038H537.971C538.099 86.9038 538.185 86.9278 538.229 86.9758C538.277 87.0198 538.311 87.0998 538.331 87.2158L538.403 88.0738ZM545.056 90.2938C544.58 90.3098 544.176 90.3478 543.844 90.4078C543.512 90.4638 543.242 90.5398 543.034 90.6358C542.826 90.7318 542.676 90.8458 542.584 90.9778C542.492 91.1058 542.446 91.2498 542.446 91.4098C542.446 91.5618 542.47 91.6938 542.518 91.8058C542.57 91.9138 542.638 92.0038 542.722 92.0758C542.81 92.1438 542.912 92.1938 543.028 92.2258C543.144 92.2578 543.27 92.2738 543.406 92.2738C543.586 92.2738 543.75 92.2558 543.898 92.2198C544.05 92.1838 544.192 92.1338 544.324 92.0698C544.456 92.0018 544.582 91.9198 544.702 91.8238C544.822 91.7278 544.94 91.6178 545.056 91.4938V90.2938ZM541.624 87.7558C541.964 87.4318 542.332 87.1898 542.728 87.0298C543.128 86.8698 543.566 86.7898 544.042 86.7898C544.39 86.7898 544.698 86.8478 544.966 86.9638C545.234 87.0758 545.46 87.2338 545.644 87.4378C545.828 87.6418 545.966 87.8858 546.058 88.1698C546.154 88.4538 546.202 88.7678 546.202 89.1118V92.9998H545.68C545.564 92.9998 545.476 92.9818 545.416 92.9458C545.356 92.9058 545.308 92.8338 545.272 92.7298L545.146 92.1958C544.99 92.3398 544.836 92.4678 544.684 92.5798C544.532 92.6878 544.372 92.7818 544.204 92.8618C544.04 92.9378 543.864 92.9958 543.676 93.0358C543.488 93.0758 543.28 93.0958 543.052 93.0958C542.812 93.0958 542.586 93.0638 542.374 92.9998C542.166 92.9318 541.984 92.8298 541.828 92.6938C541.672 92.5578 541.548 92.3878 541.456 92.1838C541.368 91.9798 541.324 91.7418 541.324 91.4698C541.324 91.2298 541.388 90.9998 541.516 90.7798C541.648 90.5558 541.86 90.3558 542.152 90.1798C542.448 90.0038 542.832 89.8598 543.304 89.7478C543.78 89.6358 544.364 89.5718 545.056 89.5558V89.1118C545.056 88.6518 544.958 88.3078 544.762 88.0798C544.566 87.8518 544.278 87.7378 543.898 87.7378C543.642 87.7378 543.426 87.7698 543.25 87.8338C543.078 87.8978 542.928 87.9698 542.8 88.0498C542.676 88.1258 542.566 88.1958 542.47 88.2598C542.378 88.3238 542.282 88.3558 542.182 88.3558C542.102 88.3558 542.032 88.3338 541.972 88.2898C541.916 88.2458 541.87 88.1938 541.834 88.1338L541.624 87.7558ZM553.644 92.9998H552.468V87.8518H549.408V91.4218C549.408 91.6618 549.466 91.8418 549.582 91.9618C549.702 92.0778 549.854 92.1358 550.038 92.1358C550.146 92.1358 550.238 92.1218 550.314 92.0938C550.394 92.0658 550.462 92.0358 550.518 92.0038C550.574 91.9678 550.622 91.9358 550.662 91.9078C550.702 91.8798 550.738 91.8658 550.77 91.8658C550.81 91.8658 550.84 91.8758 550.86 91.8958C550.884 91.9118 550.908 91.9398 550.932 91.9798L551.28 92.5438C551.088 92.7198 550.86 92.8558 550.596 92.9518C550.332 93.0478 550.058 93.0958 549.774 93.0958C549.282 93.0958 548.902 92.9578 548.634 92.6818C548.37 92.4058 548.238 92.0118 548.238 91.4998V87.8518H547.53C547.462 87.8518 547.404 87.8318 547.356 87.7918C547.312 87.7478 547.29 87.6838 547.29 87.5998V87.1258L548.286 86.9878L548.544 85.1698C548.56 85.1018 548.59 85.0498 548.634 85.0138C548.682 84.9738 548.742 84.9538 548.814 84.9538H549.408V86.9998H553.644V92.9998ZM553.908 84.9838C553.908 85.0918 553.886 85.1958 553.842 85.2958C553.798 85.3918 553.738 85.4778 553.662 85.5538C553.59 85.6258 553.504 85.6838 553.404 85.7278C553.304 85.7678 553.2 85.7878 553.092 85.7878C552.984 85.7878 552.882 85.7678 552.786 85.7278C552.69 85.6838 552.604 85.6258 552.528 85.5538C552.456 85.4778 552.398 85.3918 552.354 85.2958C552.314 85.1958 552.294 85.0918 552.294 84.9838C552.294 84.8718 552.314 84.7658 552.354 84.6658C552.398 84.5658 552.456 84.4798 552.528 84.4078C552.604 84.3318 552.69 84.2738 552.786 84.2338C552.882 84.1898 552.984 84.1678 553.092 84.1678C553.2 84.1678 553.304 84.1898 553.404 84.2338C553.504 84.2738 553.59 84.3318 553.662 84.4078C553.738 84.4798 553.798 84.5658 553.842 84.6658C553.886 84.7658 553.908 84.8718 553.908 84.9838ZM558.12 86.8078C558.568 86.8078 558.972 86.8818 559.332 87.0298C559.696 87.1738 560.004 87.3838 560.256 87.6598C560.512 87.9318 560.708 88.2618 560.844 88.6498C560.98 89.0338 561.048 89.4658 561.048 89.9458C561.048 90.4258 560.98 90.8598 560.844 91.2478C560.708 91.6358 560.512 91.9658 560.256 92.2378C560.004 92.5098 559.696 92.7198 559.332 92.8678C558.972 93.0118 558.568 93.0838 558.12 93.0838C557.668 93.0838 557.26 93.0118 556.896 92.8678C556.536 92.7198 556.228 92.5098 555.972 92.2378C555.716 91.9658 555.518 91.6358 555.378 91.2478C555.242 90.8598 555.174 90.4258 555.174 89.9458C555.174 89.4658 555.242 89.0338 555.378 88.6498C555.518 88.2618 555.716 87.9318 555.972 87.6598C556.228 87.3838 556.536 87.1738 556.896 87.0298C557.26 86.8818 557.668 86.8078 558.12 86.8078ZM558.12 92.1718C558.696 92.1718 559.126 91.9778 559.41 91.5898C559.694 91.2018 559.836 90.6558 559.836 89.9518C559.836 89.2478 559.694 88.7018 559.41 88.3138C559.126 87.9218 558.696 87.7258 558.12 87.7258C557.536 87.7258 557.1 87.9218 556.812 88.3138C556.528 88.7018 556.386 89.2478 556.386 89.9518C556.386 90.6558 556.528 91.2018 556.812 91.5898C557.1 91.9778 557.536 92.1718 558.12 92.1718ZM563.632 87.7498C563.764 87.6098 563.902 87.4818 564.046 87.3658C564.19 87.2498 564.342 87.1518 564.502 87.0718C564.666 86.9878 564.84 86.9238 565.024 86.8798C565.212 86.8318 565.412 86.8078 565.624 86.8078C565.96 86.8078 566.254 86.8638 566.506 86.9758C566.762 87.0878 566.976 87.2458 567.148 87.4498C567.32 87.6498 567.45 87.8918 567.538 88.1758C567.626 88.4598 567.67 88.7738 567.67 89.1178V92.9998H566.494V89.1178C566.494 88.6818 566.394 88.3438 566.194 88.1038C565.994 87.8598 565.688 87.7378 565.276 87.7378C564.976 87.7378 564.694 87.8098 564.43 87.9538C564.17 88.0938 563.928 88.2858 563.704 88.5298V92.9998H562.534V86.9038H563.236C563.4 86.9038 563.502 86.9818 563.542 87.1378L563.632 87.7498ZM573.023 87.9538C572.991 88.0058 572.957 88.0438 572.921 88.0678C572.885 88.0878 572.839 88.0978 572.783 88.0978C572.719 88.0978 572.647 88.0758 572.567 88.0318C572.491 87.9878 572.397 87.9398 572.285 87.8878C572.177 87.8358 572.049 87.7878 571.901 87.7438C571.753 87.6998 571.577 87.6778 571.373 87.6778C571.205 87.6778 571.051 87.6998 570.911 87.7438C570.775 87.7838 570.659 87.8418 570.563 87.9178C570.467 87.9898 570.393 88.0778 570.341 88.1818C570.289 88.2818 570.263 88.3898 570.263 88.5058C570.263 88.6578 570.307 88.7838 570.395 88.8838C570.487 88.9838 570.605 89.0698 570.749 89.1418C570.897 89.2138 571.063 89.2798 571.247 89.3398C571.435 89.3958 571.625 89.4558 571.817 89.5198C572.013 89.5838 572.203 89.6578 572.387 89.7418C572.575 89.8218 572.741 89.9238 572.885 90.0478C573.033 90.1678 573.151 90.3138 573.239 90.4858C573.331 90.6578 573.377 90.8678 573.377 91.1158C573.377 91.3998 573.325 91.6638 573.221 91.9078C573.121 92.1478 572.971 92.3558 572.771 92.5318C572.575 92.7078 572.331 92.8458 572.039 92.9458C571.747 93.0458 571.413 93.0958 571.037 93.0958C570.617 93.0958 570.229 93.0258 569.873 92.8858C569.517 92.7458 569.219 92.5678 568.979 92.3518L569.255 91.9018C569.287 91.8458 569.327 91.8038 569.375 91.7758C569.423 91.7438 569.487 91.7278 569.567 91.7278C569.643 91.7278 569.721 91.7558 569.801 91.8118C569.881 91.8678 569.977 91.9298 570.089 91.9978C570.201 92.0618 570.337 92.1218 570.497 92.1778C570.657 92.2298 570.857 92.2558 571.097 92.2558C571.297 92.2558 571.471 92.2318 571.619 92.1838C571.767 92.1318 571.889 92.0638 571.985 91.9798C572.085 91.8918 572.159 91.7918 572.207 91.6798C572.255 91.5678 572.279 91.4498 572.279 91.3258C572.279 91.1658 572.233 91.0338 572.141 90.9298C572.053 90.8218 571.935 90.7298 571.787 90.6538C571.643 90.5778 571.477 90.5118 571.289 90.4558C571.101 90.3998 570.909 90.3398 570.713 90.2758C570.517 90.2118 570.325 90.1378 570.137 90.0538C569.949 89.9698 569.781 89.8638 569.633 89.7358C569.489 89.6078 569.371 89.4518 569.279 89.2678C569.191 89.0838 569.147 88.8598 569.147 88.5958C569.147 88.3598 569.195 88.1338 569.291 87.9178C569.391 87.7018 569.533 87.5118 569.717 87.3478C569.905 87.1838 570.135 87.0538 570.407 86.9578C570.683 86.8578 570.997 86.8078 571.349 86.8078C571.753 86.8078 572.117 86.8718 572.441 86.9998C572.769 87.1278 573.049 87.3038 573.281 87.5278L573.023 87.9538Z" fill="#3F3F46"/>
</svg>
